<svg width="32" height="28" viewBox="0 0 32 28" fill="none" xmlns="http://www.w3.org/2000/svg">
<path d="M16 10.1370V15.4703M16 20.8037H16.0133M13.72 3.28366L2.42667 22.137C2.19383 22.5402 2.07062 22.9974 2.06932 23.463C2.06802 23.9286 2.18866 24.3865 2.41924 24.791C2.64982 25.1956 2.9823 25.5327 3.38361 25.7688C3.78492 26.0049 4.24107 26.1319 4.70667 26.137H27.2933C27.7589 26.1319 28.2151 26.0049 28.6164 25.7688C29.0177 25.5327 29.3502 25.1956 29.5808 24.791C29.8114 24.3865 29.932 23.9286 29.9307 23.463C29.9294 22.9974 29.8062 22.5402 29.5733 22.137L18.28 3.28366C18.0423 2.8918 17.7076 2.56782 17.3083 2.34297C16.9089 2.11812 16.4583 2 16 2C15.5417 2 15.0911 2.11812 14.6917 2.34297C14.2924 2.56782 13.9577 2.8918 13.72 3.28366Z" stroke="#FF9900" stroke-width="3" stroke-linecap="round" stroke-linejoin="round"/>
</svg>
