<svg width="150" height="150" viewBox="0 0 150 150" fill="none" xmlns="http://www.w3.org/2000/svg">
<g clip-path="url(#clip0_230_5149)">
<rect width="150" height="150" fill="#004455"/>
<g clip-path="url(#clip1_230_5149)">
<path d="M40.8475 63.8182L40.4036 63.9372C40.1565 64.5172 39.1073 66.0344 38.6991 66.7307C38.2869 67.4336 37.5831 69.0346 37.1732 69.4958L37.3007 69.9714C38.248 70.2213 39.8212 71.3429 40.7556 71.8907L47.924 76.0407C49.0768 76.705 53.5594 79.1178 54.2895 79.7349C53.9856 81.0664 53.0875 82.2204 52.4936 83.4389C49.5551 89.4686 50.4289 97.5547 55.3908 102.289C55.9025 102.777 56.4388 103.486 57.0126 103.87C58.9146 105.143 60.9343 106.272 62.911 107.428C64.0609 108.109 66.3138 109.218 67.2498 109.998L67.2928 110.034C66.5647 111.959 65.5684 113.142 64.712 114.973C64.734 115.106 64.7586 115.238 64.7859 115.369C64.9236 116.028 65.192 116.38 65.7606 116.748C67.2292 117.698 80.742 125.634 81.6011 125.38C81.8841 125.296 87.4308 115.519 88.0068 114.461C89.8026 115.354 98.5109 120.851 99.6028 120.539C100.536 119.498 102.092 116.367 102.7 115.071C100.706 113.786 92.9504 109.585 91.9724 108.4C91.869 107.308 95.8665 100.87 96.7853 99.2797L99.4099 94.742C99.9303 93.8445 100.651 92.5175 101.286 91.7427C103.749 92.675 107.419 95.2377 109.878 96.4832C110.745 96.9224 111.476 97.4637 112.439 97.8647C113.091 97.6593 115.674 93.1644 115.798 92.3884C115.144 91.3937 108.061 87.6127 106.627 86.6674C106.083 86.3089 105.392 85.8095 104.831 85.388C106.835 81.7361 109.036 78.1959 111.017 74.5149C110.478 73.9747 109.745 73.4082 109.1 73.0065C105.281 70.6313 101.329 68.4555 97.4345 66.2073C96.5468 65.6949 95.4499 65.0272 94.5148 64.6436C92.9675 64.601 91.776 68.8808 90.635 69.6343C90.353 69.8205 88.8774 68.8342 88.4456 68.5993C86.4204 67.4973 84.395 66.2879 82.4102 65.1081C81.6431 64.6521 80.4439 64.1917 79.6001 63.873C73.1336 61.4308 65.2112 63.8033 60.8059 69.028C60.1107 69.8568 58.6992 73.161 57.9229 73.5183C56.4074 73.1067 42.3336 64.9815 40.8475 63.8182ZM101.817 76.8292C101.335 77.9198 99.9536 80.0723 99.2902 81.1991L95.0053 88.6217L87.5471 101.548C86.3858 103.562 84.9278 106.278 83.7222 108.149C82.1274 110.91 80.6841 113.406 79.2633 116.259C77.7785 115.888 75.2073 114.443 74.034 113.408C74.0744 112.855 74.0864 112.651 74.2343 112.115C74.534 111.027 76.8666 108.159 76.0233 107.174C75.7154 106.814 73.6193 105.741 73.0949 105.437L66.6773 101.68C61.9379 98.9483 57.4644 96.6497 57.7011 90.3825C57.8411 86.6758 60.0969 83.8971 61.8253 80.7902C63.0308 78.6233 64.2614 76.4959 65.5584 74.3902C66.8093 72.3512 69.4182 70.1943 71.8088 69.7514C72.7355 69.7618 74.5531 69.6304 75.308 69.7831C78.1317 70.354 80.9319 72.2988 83.4348 73.7547L89.0155 76.9578C90.022 77.5328 91.4231 78.3979 92.438 78.828C93.9773 79.4804 95.622 73.6575 96.5847 73.8471C97.827 74.0918 100.904 75.9415 101.817 76.8292Z" fill="#FEFEFE"/>
<path d="M80.9283 87.4159C80.0748 87.6485 78.1673 91.4829 77.8415 92.4103C77.9723 92.6494 78.2109 93.0469 78.3646 93.2456C78.9237 93.9691 82.2856 96.0302 82.9749 96.1027C83.7633 95.5067 86.8842 91.0078 85.9709 90.145C85.3873 89.5935 81.7347 87.5629 80.9283 87.4159Z" fill="#FEFEFE"/>
<path d="M142.628 99.5823C142.862 98.934 143.112 98.2721 143.414 97.6651C144.276 95.9264 145.893 94.3171 143.584 92.8698C141.977 91.8623 140.293 90.9434 138.654 89.9922C136.53 88.7513 134.397 87.5247 132.257 86.3122C131.431 85.8497 128.935 84.3194 128.138 84.4853C127.212 85.6018 125.166 89.3868 124.352 90.8042L117.21 103.173L104.887 124.527L100.746 131.701C100.183 132.678 99.1803 134.296 98.6987 135.271C99.134 135.691 99.9972 136.491 100.486 136.769C102.348 137.828 114.028 144.882 115.379 145.041C116.852 144.623 117.894 141.323 119.263 139.884C120.563 140.939 122.013 141.48 123.369 142.32C127.78 145.053 131.86 147.425 137.312 146.748C141.835 146.186 145.832 144.275 148.772 140.678C149.73 139.505 150.971 137.338 151.884 136.002C153.143 136.886 155.118 137.927 156.511 138.731L164.314 143.222C165.885 144.107 167.558 144.841 168.945 145.963L169.094 145.923C169.169 145.825 169.142 145.856 169.201 145.792C170.606 144.298 171.488 141.681 172.552 140.068L172.506 139.896C171.869 139.743 166.176 136.418 165.121 135.706C162.919 134.22 157.062 131.51 155.486 129.864C156.084 127.96 157.096 126.996 157.678 125.52C159.482 120.941 159.366 115.641 157.101 111.265C154.194 105.647 150.788 104.674 145.777 101.779C144.538 101.063 143.601 100.631 142.628 99.5823ZM136.052 96.5442C134.376 101.09 130.868 101.137 136.537 104.427L143.237 108.271C145.016 109.289 148.204 110.889 149.506 112.316C151.753 114.778 152.916 119.045 151.592 122.217C150.471 125.05 148.543 127.588 147.12 130.267C144.419 135.356 141.261 141.041 134.484 139.943C131.989 139.539 131.183 138.964 129.034 137.701C128.032 136.988 117.851 131.059 116.893 130.782C114.754 132.847 114.801 133.99 113.369 136.144C112.641 135.779 111.877 135.423 111.163 135.029C110.029 134.404 107.615 133.456 108.517 131.815C110.128 128.883 111.83 126.016 113.5 123.124L122.854 106.908L128.299 97.4933C128.644 96.8977 130.377 93.7988 130.678 93.4088C132.18 94.1766 134.986 95.4308 136.052 96.5442Z" fill="#FEFEFE"/>
<path d="M126.824 113.69C125.542 114.498 124.77 116.166 124.023 117.425C122.801 119.486 124.609 120.4 126.176 121.189C126.95 121.578 127.645 121.966 128.389 122.327C128.481 122.314 128.884 122.246 128.924 122.216C129.817 121.547 132.042 117.94 131.636 116.903C131.323 116.105 127.691 114.007 126.824 113.69Z" fill="#FEFEFE"/>
</g>
</g>
<defs>
<clipPath id="clip0_230_5149">
<rect width="150" height="150" fill="white"/>
</clipPath>
<clipPath id="clip1_230_5149">
<rect width="112.5" height="112.5" fill="white" transform="matrix(-0.965926 0.258819 0.258819 0.965926 144.667 36)"/>
</clipPath>
</defs>
</svg>
