<svg width="150" height="150" viewBox="0 0 150 150" fill="none" xmlns="http://www.w3.org/2000/svg">
<g clip-path="url(#clip0_230_5161)">
<rect width="150" height="150" fill="#004455"/>
<g clip-path="url(#clip1_230_5161)">
<path d="M95.0935 77.6201C110.142 72.2012 126.733 80.0142 132.141 95.0664C137.549 110.119 129.724 126.704 114.668 132.101C99.6274 137.493 83.0625 129.678 77.6598 114.641C72.257 99.6041 80.0605 83.0335 95.0935 77.6201ZM111.18 126.028C122.823 122.574 129.491 110.365 126.103 98.702C122.716 87.0391 110.545 80.3019 98.8626 83.6235C87.0866 86.9717 80.2834 99.2624 83.6983 111.019C87.1133 122.776 99.4424 129.509 111.18 126.028Z" fill="#FEFEFE"/>
<path d="M110.373 93.156C111.481 92.7363 112.829 93.7282 113.747 94.2813C114.768 94.8964 115.818 95.176 116.104 96.4576C116.031 97.0716 105.494 115.198 104.646 116.079C104.051 116.016 98.9968 113.054 97.9671 112.506C96.1502 111.19 93.5419 110.356 92.1097 108.541C92.5963 107.179 94.1433 104.528 95.0213 103.338C97.0004 103.855 100.557 105.919 102.2 107.178C102.882 105.821 103.737 104.546 104.474 103.221C106.357 99.8347 108.464 96.5147 110.373 93.156Z" fill="#FEFEFE"/>
<path d="M151.103 87.0449C153.33 86.0681 155.331 85.0123 157.678 84.5601L161.005 96.9764C160.569 97.9173 161.222 102.696 161.25 104.165C161.495 116.789 157.173 129.576 149.292 139.437C148.566 140.339 147.934 141.275 147.127 142.158C143.783 145.868 139.982 149.14 135.815 151.894C133.23 153.59 130.692 155.026 127.818 156.179C127.094 156.47 125.784 157.018 125.359 157.642L113.223 160.894C112.535 160.464 110.848 160.775 110.056 160.859C98.7411 162.05 87.585 159.647 77.5513 154.342C76.4705 153.774 75.4177 153.155 74.3966 152.486C73.8666 152.142 72.5629 151.215 72.0584 151.012C71.7742 151.63 73.3237 155.949 73.2657 156.743C73.1883 157.802 67.797 158.772 66.872 158.769C66.2466 157.261 65.0712 152.617 64.6315 150.883C64.0025 148.403 62.7363 144.32 62.3321 141.918C62.5155 141.655 62.7411 141.268 62.917 140.987C67.5693 139.46 72.4193 138.409 77.1171 137.017C78.0296 136.747 78.5808 136.612 79.5314 136.564C80.0699 138.229 80.9656 141.211 81.1533 142.848C79.6629 143.442 76.7536 144.028 75.4769 144.671L75.4965 144.868C76.5706 146.344 82.1149 148.796 83.8239 149.826C84.4435 150.2 87.1963 151.109 88.1399 151.437C97.7308 154.778 108.701 155.422 118.479 152.504C119.681 152.145 123.063 151.02 124.102 150.575C134.541 146.058 143.15 138.148 148.534 128.128C153.258 119.147 155.407 107.255 153.784 97.2161C153.331 94.4115 151.956 89.7921 151.103 87.0449Z" fill="#FEFEFE"/>
<path d="M85.1688 51.9424L95.614 49.1436C95.8841 49.299 95.981 49.3522 96.2885 49.3472C97.7075 49.3239 99.2007 48.975 100.616 48.8016C101.978 48.6346 103.413 48.6027 104.786 48.5596C106.381 48.5094 107.992 48.6469 109.584 48.7387C110.092 48.768 110.612 48.7246 111.116 48.7759C111.617 48.8269 112.097 49.0305 112.597 49.0975C113.265 49.187 113.935 49.2071 114.603 49.3184C122.516 50.6385 130.336 53.8173 136.804 58.5923C136.573 57.7568 134.943 52.3146 135.846 52.0546C136.96 51.7337 139.672 50.8737 140.889 50.6611C141.03 50.6377 141.17 50.6185 141.312 50.6033C142.096 52.0961 143.559 58.2729 144.063 60.1353C144.592 62.0849 145.655 65.5957 146.026 67.452C145.019 68.1364 138.629 69.6224 136.882 70.0955L131.911 71.4413C131.371 71.587 129.674 72.0621 129.181 72.0911C128.45 71.5494 127.344 66.8669 127.452 65.8911C127.716 65.5778 132.238 64.2982 132.874 64.1992C131.749 63.2083 129.478 61.9102 128.122 61.169C120.967 57.2562 110.824 54.8587 102.633 55.3682C98.3619 55.5911 94.1336 56.3313 90.0409 57.5725C65.6682 65.1464 50.7725 91.334 56.8497 116.082C57.4663 118.594 58.3319 121.064 58.9392 123.56C57.8745 124.327 54.4467 125.748 53.1565 126.116C52.7893 125.649 52.7019 125.409 52.1088 125.236L48.9229 113.346C49.3872 112.6 48.6686 108.444 48.6296 107.302C48.5297 104.376 48.5404 101.685 48.8295 98.7551C49.6906 90.7432 52.2932 83.0165 56.4547 76.1163C61.0144 68.5043 67.304 62.0742 74.8137 57.3477C78.0912 55.3238 81.1877 53.89 84.7289 52.4292C85.0012 52.3169 85.0464 52.1846 85.1688 51.9424Z" fill="#FEFEFE"/>
<path d="M141.312 50.6033C141.767 50.6101 141.813 50.5333 142.118 50.7515C143.024 53.7611 143.679 56.9188 144.547 59.9487C145.175 62.142 145.84 64.3541 146.322 66.5806C146.372 66.8142 146.14 67.2558 146.026 67.452C145.655 65.5957 144.592 62.0849 144.064 60.1353C143.559 58.2729 142.096 52.0961 141.312 50.6033Z" fill="#FEFEFE" fill-opacity="0.180392"/>
</g>
</g>
<defs>
<clipPath id="clip0_230_5161">
<rect width="150" height="150" fill="white"/>
</clipPath>
<clipPath id="clip1_230_5161">
<rect width="112.5" height="112.5" fill="white" transform="translate(36 65.1171) rotate(-15)"/>
</clipPath>
</defs>
</svg>
