<svg width="150" height="150" viewBox="0 0 150 150" fill="none" xmlns="http://www.w3.org/2000/svg">
<g clip-path="url(#clip0_227_679)">
<rect width="150" height="150" fill="#FFCC00"/>
<g clip-path="url(#clip1_227_679)">
<path d="M114.452 98.8956C114.288 95.9825 114.268 94.0184 114.935 91.1047C116.267 85.2282 119.886 80.1246 124.991 76.9226C130.138 73.6894 136.361 72.6392 142.284 74.0044C149.127 75.5959 154.909 80.2085 157.844 86.5987C158.024 86.9911 158.29 87.464 158.521 87.8269L158.578 87.9161L159.897 92.841C159.829 93.308 159.96 95.5558 159.974 96.1729C160.008 98.9206 159.521 101.65 158.537 104.216C156.39 109.949 152.053 114.595 146.479 117.13C140.922 119.587 134.616 119.733 128.95 117.537C123.171 115.332 118.79 111.017 116.278 105.399C114.325 105.796 112.245 106.635 110.367 106.968C110.275 107.922 110.182 108.944 109.996 109.883C109.249 113.577 107.068 116.824 103.932 118.914C100.886 120.916 97.1687 121.624 93.5994 120.885C89.1699 119.97 86.4866 117.648 84.0835 113.986C82.3031 114.457 79.7486 115.317 78.0934 115.621C77.5697 120.058 76.8065 123.134 73.2645 126.311C70.5308 128.769 66.9229 130.025 63.2535 129.795C59.3988 129.569 55.6601 127.686 53.2176 124.677C52.5026 123.796 51.8284 122.304 51.1222 121.554L49.9893 117.326C50.1056 116.939 50.1651 113.944 50.4306 112.714C51.2274 109.164 53.391 106.07 56.4526 104.104C59.5824 102.095 63.3832 101.415 67.0153 102.214C71.2323 103.151 73.9873 105.465 76.2542 109.029C77.9231 108.766 80.6219 107.972 82.3204 107.519C82.3624 106.575 82.4119 105.718 82.5777 104.785C83.1965 101.121 85.2661 97.8601 88.3188 95.7406C91.3755 93.6135 95.1546 92.7938 98.8179 93.4635C103.459 94.3152 106.031 96.7011 108.596 100.405C110.557 99.9398 112.51 99.4365 114.452 98.8956ZM142.662 111.5C151.096 108.459 155.461 99.1506 152.406 90.7217C149.351 82.2927 140.035 77.943 131.611 81.0124C123.208 84.0744 118.871 93.3632 121.918 101.772C124.966 110.181 134.248 114.534 142.662 111.5ZM99.1887 113.949C102.931 112.358 104.667 108.027 103.059 104.291C101.451 100.556 97.1131 98.839 93.3846 100.463C89.6792 102.077 87.9753 106.383 89.5731 110.095C91.1709 113.808 95.4691 115.53 99.1887 113.949ZM66.927 122.59C70.6611 120.988 72.3836 116.657 70.77 112.928C69.1565 109.199 64.8207 107.49 61.0967 109.116C57.3894 110.734 55.6898 115.046 57.2962 118.759C58.9026 122.471 63.2095 124.184 66.927 122.59Z" fill="black"/>
<path d="M139.961 87.4889C140.638 87.4939 144.942 89.985 145.785 90.4554C145.084 92.0399 143.562 94.7131 142.709 96.3189C141.053 99.4331 139.37 102.719 137.649 105.778L133.208 103.43C131.118 102.355 129.033 101.269 126.954 100.173C127.951 98.1337 128.858 96.3039 130.001 94.3474C131.483 95.0947 133.501 96.2161 134.966 96.8136C136.618 93.7251 138.187 90.5107 139.961 87.4889Z" fill="black"/>
</g>
</g>
<defs>
<clipPath id="clip0_227_679">
<rect width="150" height="150" fill="white"/>
</clipPath>
<clipPath id="clip1_227_679">
<rect width="112.5" height="112.5" fill="white" transform="translate(36 65.1171) rotate(-15)"/>
</clipPath>
</defs>
</svg>
