<svg width="150" height="150" viewBox="0 0 150 150" fill="none" xmlns="http://www.w3.org/2000/svg">
<g clip-path="url(#clip0_227_5116)">
<rect width="150" height="150" fill="#FFCC00"/>
<g clip-path="url(#clip1_227_5116)">
<path d="M86.2242 52.2486L94.9938 49.8988L95.0992 49.9047C96.02 49.947 98.0656 49.5607 99.0911 49.455C100.841 49.2746 102.509 49.1402 104.276 49.1131C113.209 48.972 122.048 50.9616 130.06 54.9172C132.049 55.891 134.182 57.1479 136.099 58.2682C135.632 59.5458 132.75 64.3051 131.93 65.7192L123.021 81.1502C121.042 80.0734 119.203 78.919 117.132 78.0068C110.738 75.204 103.558 74.7614 96.8686 76.758C89.1542 78.9838 82.667 84.2335 78.8814 91.314C75.1269 98.3191 74.326 106.534 76.6565 114.132C78.9622 121.667 84.1532 127.984 91.0975 131.706C98.0654 135.456 106.24 136.277 113.814 133.987C124.449 130.742 132.038 122.374 134.452 111.571L114.799 116.848L108.817 118.454C107.883 118.704 106.353 119.062 105.505 119.388C105.098 117.575 104.576 115.673 104.072 113.88C102.2 107.217 100.577 100.439 98.6865 93.7865C111.309 90.2408 124.248 86.9132 136.929 83.5174L148.809 80.3289C150.141 79.9712 153.645 78.9475 154.885 78.7841C155.65 80.3634 156.37 81.9636 157.047 83.5823C157.398 84.4162 158.079 86.2247 158.51 86.9267L160.677 95.0136L160.672 95.1171C160.623 96.2542 161.161 99.1714 161.273 100.449C161.463 102.636 161.527 104.508 161.476 106.708C161.092 121.865 154.638 136.232 143.564 146.588C139.608 150.312 135.155 153.364 130.309 155.827C129.17 156.406 125.023 157.978 124.387 158.492L115.386 160.903C114.884 160.838 110.085 161.462 109.097 161.54C105.601 161.793 102.089 161.71 98.6091 161.294C81.9033 159.293 66.9599 149.946 57.8502 135.8C56.6037 133.85 55.6244 131.983 54.5649 129.941C53.9141 128.687 52.8694 125.38 52.1031 124.476L49.6792 115.429C49.8309 114.628 49.3657 112.347 49.2712 111.424C49.1709 110.444 49.1008 109.493 49.0418 108.501C48.7388 103.526 49.1191 98.5323 50.1721 93.6601C53.3634 78.6084 62.5924 65.5262 75.7017 57.4713C77.7969 56.1923 79.9672 55.0401 82.2004 54.021C83.2828 53.5375 85.3024 52.8777 86.2242 52.2486ZM106.808 98.5461C107.897 102.617 109.189 107.065 110.161 111.117C120.674 108.492 131.381 105.486 141.895 102.705C141.663 104.964 141.732 107.275 141.467 109.544C140.791 115.319 138.294 122.46 134.593 126.987C136.633 128.355 139.335 129.723 141.461 131.021C142.21 131.478 145.339 133.294 146.043 133.555C146.332 133.116 146.625 132.68 146.921 132.245C154.235 120.65 156.609 107.639 153.599 94.2176C152.964 91.3832 152.217 89.3693 151.224 86.66C139.181 89.5828 127.187 93.2298 115.163 96.2738C113.075 96.8022 110.931 97.379 108.868 97.9898C108.139 98.2148 107.556 98.4 106.808 98.5461ZM60.3461 84.1614C62.6696 85.5289 65.0009 86.8832 67.3399 88.2241C68.7582 89.0413 70.4178 90.048 71.8635 90.7578C74.6727 83.3365 81.2983 76.8712 88.1799 73.1318C97.263 68.5986 106.581 67.5716 116.421 70.6768C117.47 71.0081 119.753 71.993 120.643 72.1967C121.131 70.9728 122.69 68.3799 123.436 67.1284C124.612 65.1567 125.879 62.7707 127.111 60.874C116.013 55.3524 103.235 54.2378 91.3476 57.7545C78.6573 61.4375 67.9618 70.0334 61.635 81.6343C61.189 82.4683 60.7593 83.3108 60.3461 84.1614ZM57.8159 90.4906C57.1554 93.3568 56.5201 95.1778 56.0803 98.2454C54.3962 109.889 56.8936 121.752 63.1288 131.728C64.7059 134.252 69.3627 140.426 71.7782 141.956C72.5397 140.658 73.2926 139.355 74.0364 138.047L76.9391 133.035C77.3618 132.304 78.1852 130.968 78.4911 130.25C71.5503 122.309 68.3623 113.862 68.8021 103.146C68.8943 100.897 69.4434 99.1278 69.6301 97.189C67.3411 95.7676 64.81 94.4032 62.4846 93.0226C61.6965 92.5546 58.5068 90.6648 57.8159 90.4906ZM134.949 145.133C136.057 144.315 141.349 139.924 141.618 138.923C141.202 138.378 130.883 132.398 130.081 132.266C129.646 132.457 127.764 134.103 127.212 134.522C125.926 135.504 124.576 136.398 123.171 137.2C113.631 142.559 102.19 143.357 91.9978 139.374C89.5784 138.429 87.6794 137.439 85.4955 136.039C85.0214 135.735 83.9404 134.916 83.4938 134.94C81.3882 138.468 78.9205 142.621 76.982 146.231C89.257 154.151 101.681 156.907 116.147 153.811C122.571 152.436 129.748 149.165 134.949 145.133Z" fill="black"/>
</g>
</g>
<defs>
<clipPath id="clip0_227_5116">
<rect width="150" height="150" fill="white"/>
</clipPath>
<clipPath id="clip1_227_5116">
<rect width="112.5" height="112.5" fill="white" transform="translate(36.332 65.6172) rotate(-15)"/>
</clipPath>
</defs>
</svg>
