<svg width="24" height="24" viewBox="0 0 24 24" fill="none" xmlns="http://www.w3.org/2000/svg">
<path d="M18.707 6.24635C16.219 3.46581 12.2733 2.50877 8.78792 3.8404C5.30249 5.17204 3.00014 8.5162 3 12.2473V13.0003" stroke="#FF0000" stroke-width="1.5" stroke-linecap="round" stroke-linejoin="round"/>
<path d="M5.29297 18.2492C7.78084 21.0296 11.7262 21.9867 15.2116 20.6554C18.6969 19.324 20.9994 15.9802 21 12.2492V11.5002" stroke="#FF0000" stroke-width="1.5" stroke-linecap="round" stroke-linejoin="round"/>
<path d="M18.75 13.7473L21 11.4973L23.25 13.7473" stroke="#FF0000" stroke-width="1.5" stroke-linecap="round" stroke-linejoin="round"/>
<path d="M5.25 10.7473L3 12.9973L0.75 10.7473" stroke="#FF0000" stroke-width="1.5" stroke-linecap="round" stroke-linejoin="round"/>
<path d="M12 6.99731V12.9973" stroke="#FF0000" stroke-width="1.5" stroke-linecap="round" stroke-linejoin="round"/>
<path d="M12 16.0002C11.7929 16.0002 11.625 16.1681 11.625 16.3752C11.625 16.5824 11.7929 16.7502 12 16.7502C12.2071 16.7502 12.375 16.5824 12.375 16.3752C12.375 16.1681 12.2071 16.0002 12 16.0002" stroke="#FF0000" stroke-width="1.5" stroke-linecap="round" stroke-linejoin="round"/>
</svg>
