<svg width="72" height="20" viewBox="0 0 72 20" fill="none" xmlns="http://www.w3.org/2000/svg">
<path fill-rule="evenodd" clip-rule="evenodd" d="M20.6801 8.51227C20.9815 7.30693 22.0645 6.46135 23.3069 6.46135H27.6466C29.4081 6.46135 30.7006 8.11676 30.2734 9.82566L29.7035 12.1052C29.4736 13.025 28.7792 13.7575 27.873 14.0364L21.338 16.0471C21.3345 16.1076 21.3536 16.1651 21.3883 16.2106C21.4328 16.2687 21.5029 16.3072 21.5839 16.3072H27.0767C27.7564 16.3072 28.3075 16.8582 28.3075 17.538C28.3075 18.2177 27.7564 18.7687 27.0767 18.7687H21.5839C19.8224 18.7687 18.5299 17.1133 18.9571 15.4044L20.6801 8.51227ZM31.5853 9.04666C31.5248 6.98615 29.8344 5.23062 27.6466 5.23062H23.3069C21.8677 5.23062 20.5755 6.01072 19.8876 7.21398L19.9265 7.05834C20.0853 6.42301 19.9816 5.7836 19.6839 5.25462C20.6003 4.80311 21.2307 3.85976 21.2307 2.76915C21.2307 1.23979 19.991 0 18.4616 0C16.9322 0 15.6924 1.23979 15.6924 2.76915C15.6924 3.37299 15.8857 3.9317 16.2138 4.38677C15.702 4.71343 15.3094 5.22888 15.1506 5.86436L13.5387 12.312L11.2834 3.29084C10.8451 1.53762 9.26978 0.307683 7.4626 0.307683H7.30736C5.50018 0.307683 3.92491 1.53762 3.48661 3.29084L0.0740755 16.941C-0.255635 18.2598 0.546214 19.5962 1.86506 19.9259C3.1839 20.2556 4.52031 19.4538 4.85002 18.1349L5.68373 14.8001C6.15317 15.1661 6.74362 15.3842 7.38499 15.3842C8.02636 15.3842 8.61681 15.1661 9.08624 14.8001L9.64027 17.0163C10.0786 18.7695 11.6539 19.9994 13.461 19.9994H13.6163C15.4235 19.9994 16.9987 18.7695 17.437 17.0163L17.6453 16.1833C17.7057 18.2439 19.3961 19.9994 21.5839 19.9994H27.0767C28.4231 19.9994 29.517 18.9185 29.5379 17.5771C29.5545 18.6653 30.2969 19.6495 31.4027 19.9259C32.7215 20.2556 34.0579 19.4538 34.3876 18.1349L35.1522 15.0765H36.2315L36.9961 18.1349C37.3258 19.4538 38.6622 20.2556 39.9811 19.9259C41.0814 19.6508 41.8219 18.6749 41.8455 17.5931C41.8691 18.6749 42.6096 19.6508 43.71 19.9259C45.0288 20.2556 46.3653 19.4538 46.695 18.1349L47.1829 16.1833C47.2433 18.2438 48.9337 19.9994 51.1215 19.9994H56.6143C57.7438 19.9994 58.7284 19.2307 59.0023 18.135L59.0882 17.7914C59.1919 18.7923 59.9076 19.6677 60.9403 19.9259C62.2591 20.2556 63.5955 19.4538 63.9252 18.1349L65.9206 10.1536H68.9217C70.2811 10.1536 71.3831 9.05151 71.3831 7.69208C71.3831 6.33265 70.2811 5.23062 68.9217 5.23062H65.1518C63.3447 5.23062 61.7694 6.46055 61.3311 8.21377L61.1229 9.04664C61.0624 6.98613 59.372 5.23062 57.1843 5.23062H52.9221C52.187 5.23062 51.5271 5.55292 51.076 6.06394C50.7671 5.71389 50.3601 5.4524 49.8981 5.32239L50.3872 3.36614C50.7169 2.04729 49.915 0.710877 48.5962 0.381167C47.2773 0.0514558 45.9409 0.853308 45.6112 2.17215L44.8466 5.23062H44.307C43.5719 5.23062 42.9121 5.55283 42.4611 6.06373C41.6593 5.15235 40.2872 4.95213 39.2494 5.644L37.1626 7.03525L38.0798 3.36614C38.4095 2.04729 37.6077 0.710877 36.2888 0.381167C34.97 0.0514558 33.6336 0.853308 33.3039 2.17215L31.5853 9.04666ZM35.1965 9.82512L36.8858 3.06764C37.0507 2.40822 36.6498 1.74001 35.9904 1.57515C35.3309 1.4103 34.6627 1.81122 34.4979 2.47064L30.8057 17.2394C30.6408 17.8989 31.0417 18.5671 31.7012 18.7319C32.3606 18.8968 33.0288 18.4959 33.1936 17.8364L34.1913 13.8458H37.0002C37.1132 13.8458 37.2116 13.9226 37.239 14.0322L38.1901 17.8364C38.3549 18.4959 39.0231 18.8968 39.6826 18.7319C40.342 18.5671 40.7429 17.8989 40.5781 17.2395L39.627 13.4352C39.4757 12.83 39.1273 12.3155 38.6606 11.9532C38.267 11.6475 37.7892 11.4502 37.2745 11.3981L41.2975 8.7161C41.6487 8.48195 41.8408 8.09852 41.8456 7.70607L41.8457 7.69208C41.8457 7.68691 41.8456 7.68173 41.8456 7.67655C41.8429 7.44667 41.7759 7.21491 41.6388 7.00938C41.2618 6.44382 40.4977 6.29099 39.9321 6.66803L35.1965 9.82512ZM43.9377 8.86643C44.0542 8.90307 44.1783 8.92282 44.307 8.92282H45.1922L43.113 17.2394C42.9482 17.8989 43.3491 18.5671 44.0085 18.7319C44.6679 18.8968 45.3361 18.4959 45.501 17.8364L47.7294 8.92282H49.2299C49.9097 8.92282 50.4607 8.3718 50.4607 7.69208C50.4607 7.14105 50.0985 6.67459 49.5993 6.51773C49.4827 6.4811 49.3586 6.46135 49.2299 6.46135H48.3447L49.1932 3.06764C49.358 2.40822 48.9571 1.74001 48.2977 1.57515C47.6383 1.4103 46.9701 1.81122 46.8052 2.47064L45.8075 6.46135H44.307C43.6345 6.46135 43.088 7.00071 43.0765 7.67044C43.0763 7.67764 43.0763 7.68485 43.0763 7.69208C43.0763 7.6988 43.0763 7.7055 43.0764 7.71218C43.0851 8.25443 43.4445 8.71148 43.9377 8.86643ZM57.1843 8.92282C57.2653 8.92282 57.3353 8.96132 57.3798 9.01948C57.4146 9.06494 57.4337 9.12242 57.4301 9.1829L50.8951 11.1937C49.9889 11.4725 49.2946 12.205 49.0646 13.1249L48.4947 15.4044C48.0675 17.1133 49.36 18.7687 51.1215 18.7687H56.6143C57.1791 18.7687 57.6714 18.3843 57.8083 17.8364L59.811 9.82566C60.2383 8.11676 58.9457 6.46135 57.1843 6.46135H52.9221C52.2424 6.46135 51.6914 7.01237 51.6914 7.69208C51.6914 8.3718 52.2424 8.92282 52.9221 8.92282H57.1843ZM8.72779 13.3663C8.85238 13.1441 8.92341 12.8879 8.92341 12.615C8.92341 12.0716 8.64167 11.594 8.21629 11.3203C7.97657 11.1661 7.69123 11.0766 7.38499 11.0766C7.07875 11.0766 6.7934 11.1661 6.55368 11.3203C6.12831 11.594 5.84658 12.0716 5.84658 12.615C5.84658 12.8879 5.91761 13.1441 6.04218 13.3663C6.30554 13.836 6.8082 14.1534 7.38499 14.1534C7.96178 14.1534 8.46443 13.836 8.72779 13.3663ZM7.06857 4.18633C7.09596 4.07675 7.19441 3.99988 7.30736 3.99988H7.4626C7.57555 3.99988 7.67401 4.07675 7.7014 4.18633L10.8343 16.7178C11.1356 17.9231 12.2186 18.7687 13.461 18.7687H13.6163C14.8587 18.7687 15.9417 17.9231 16.243 16.7178L18.7325 6.75985C18.8481 6.29736 18.6855 5.83056 18.3505 5.53611C18.2079 5.41073 18.034 5.3166 17.837 5.26736C17.6398 5.21805 17.4417 5.21936 17.2566 5.26308C16.8229 5.36551 16.4601 5.70069 16.3445 6.16285L13.8551 16.1208C13.8277 16.2303 13.7292 16.3072 13.6163 16.3072H13.461C13.3481 16.3072 13.2496 16.2303 13.2222 16.1208L10.0894 3.58934C9.78804 2.384 8.70504 1.53842 7.4626 1.53842H7.30736C6.06493 1.53842 4.98193 2.384 4.68059 3.58934L1.26806 17.2395C1.10321 17.8989 1.50413 18.5671 2.16355 18.7319C2.82297 18.8968 3.49118 18.4959 3.65604 17.8364L7.06857 4.18633ZM17.5376 3.9993C17.6994 4.12101 17.886 4.21154 18.0884 4.26198C18.2079 4.29176 18.3329 4.30757 18.4616 4.30757C18.542 4.30757 18.621 4.30139 18.6981 4.28949C19.4355 4.1757 20 3.53835 20 2.76915C20 1.91951 19.3112 1.23073 18.4616 1.23073C17.612 1.23073 16.9232 1.91951 16.9232 2.76915C16.9232 3.27205 17.1645 3.71859 17.5376 3.9993ZM27.1492 11.6837C27.2315 11.6584 27.2947 11.5918 27.3156 11.5082L27.8854 9.22866C27.9243 9.07331 27.8068 8.92282 27.6466 8.92282H23.3069C23.194 8.92282 23.0955 8.99969 23.0681 9.10926L22.0308 13.2586L27.1492 11.6837ZM51.619 13.5463C51.5366 13.5716 51.4735 13.6382 51.4526 13.7219L50.8827 16.0014C50.8439 16.1567 50.9614 16.3072 51.1215 16.3072H55.6534L56.7374 11.9714L51.619 13.5463ZM65.1518 8.92282C65.0389 8.92282 64.9404 8.99969 64.913 9.10926L62.7313 17.8364C62.5664 18.4959 61.8982 18.8968 61.2388 18.7319C60.5793 18.5671 60.1784 17.8989 60.3433 17.2395L62.5251 8.51227C62.8264 7.30693 63.9094 6.46135 65.1518 6.46135H68.9217C69.6014 6.46135 70.1524 7.01237 70.1524 7.69208C70.1524 8.3718 69.6014 8.92282 68.9217 8.92282H65.1518Z" fill="#004455"/>
<path fill-rule="evenodd" clip-rule="evenodd" d="M18.461 4.30779C19.3107 4.30779 19.9995 3.61902 19.9995 2.76937C19.9995 1.91973 19.3107 1.23096 18.461 1.23096C17.6114 1.23096 16.9226 1.91973 16.9226 2.76937C16.9226 3.61902 17.6114 4.30779 18.461 4.30779ZM7.06801 4.18655C7.0954 4.07698 7.19386 4.00011 7.30681 4.00011H7.46205C7.57499 4.00011 7.67345 4.07698 7.70084 4.18655L10.8337 16.718C11.135 17.9233 12.218 18.7689 13.4605 18.7689H13.6157C14.8581 18.7689 15.9411 17.9233 16.2425 16.718L18.732 6.76007C18.8968 6.10065 18.4959 5.43244 17.8365 5.26759C17.177 5.10273 16.5088 5.50366 16.344 6.16308L13.8545 16.121C13.8271 16.2306 13.7287 16.3074 13.6157 16.3074H13.4605C13.3475 16.3074 13.2491 16.2306 13.2217 16.121L10.0888 3.58956C9.78748 2.38422 8.70448 1.53864 7.46205 1.53864H7.30681C6.06437 1.53864 4.98137 2.38422 4.68004 3.58956L1.26751 17.2397C1.10265 17.8991 1.50358 18.5673 2.163 18.7322C2.82242 18.897 3.49062 18.4961 3.65548 17.8367L7.06801 4.18655ZM8.92285 12.6152C8.92285 13.4649 8.23408 14.1537 7.38444 14.1537C6.53479 14.1537 5.84602 13.4649 5.84602 12.6152C5.84602 11.7656 6.53479 11.0768 7.38444 11.0768C8.23408 11.0768 8.92285 11.7656 8.92285 12.6152ZM48.2971 1.57538C48.9565 1.74023 49.3575 2.40844 49.1926 3.06786L48.3442 6.46157H49.2294C49.9091 6.46157 50.4601 7.01259 50.4601 7.69231C50.4601 8.37202 49.9091 8.92304 49.2294 8.92304H47.7288L45.5004 17.8367C45.3356 18.4961 44.6673 18.897 44.0079 18.7322C43.3485 18.5673 42.9476 17.8991 43.1124 17.2397L45.1916 8.92304H44.3064C43.6267 8.92304 43.0757 8.37202 43.0757 7.69231C43.0757 7.01259 43.6267 6.46157 44.3064 6.46157H45.807L46.8046 2.47087C46.9695 1.81145 47.6377 1.41052 48.2971 1.57538ZM64.9125 9.10949C64.9399 8.99991 65.0383 8.92304 65.1513 8.92304H68.9211C69.6008 8.92304 70.1518 8.37202 70.1518 7.69231C70.1518 7.01259 69.6008 6.46157 68.9211 6.46157H65.1513C63.9088 6.46157 62.8258 7.30715 62.5245 8.51249L60.3427 17.2397C60.1778 17.8991 60.5788 18.5673 61.2382 18.7322C61.8976 18.897 62.5658 18.4961 62.7307 17.8367L64.9125 9.10949ZM23.3063 8.92304C23.1934 8.92304 23.0949 8.99991 23.0675 9.10949L22.0302 13.2589L27.1486 11.684C27.231 11.6586 27.2941 11.592 27.315 11.5084L27.8849 9.22889C27.9237 9.07353 27.8062 8.92304 27.6461 8.92304H23.3063ZM21.3375 16.0474L27.8725 14.0366C28.7787 13.7578 29.473 13.0252 29.703 12.1054L30.2728 9.82588C30.7001 8.11698 29.4076 6.46157 27.6461 6.46157H23.3063C22.0639 6.46157 20.9809 7.30715 20.6796 8.51249L19.118 14.7588L19.1077 14.7999L18.9565 15.4046C18.5293 17.1135 19.8218 18.7689 21.5833 18.7689H27.0762C27.7559 18.7689 28.3069 18.2179 28.3069 17.5382C28.3069 16.8585 27.7559 16.3074 27.0762 16.3074H21.5833C21.439 16.3074 21.3293 16.1852 21.3375 16.0474ZM56.6138 18.7689C57.1785 18.7689 57.6708 18.3846 57.8078 17.8367L59.649 10.4717L59.6593 10.4306L59.8104 9.82588C60.2377 8.11698 58.9452 6.46157 57.1837 6.46157H52.9216C52.2418 6.46157 51.6908 7.01259 51.6908 7.69231C51.6908 8.37202 52.2418 8.92304 52.9216 8.92304H57.1837C57.328 8.92304 57.4377 9.04527 57.4295 9.18313L50.8945 11.1939C49.9883 11.4727 49.294 12.2053 49.064 13.1251L48.4941 15.4046C48.0669 17.1135 49.3594 18.7689 51.1209 18.7689H56.6138ZM51.6184 13.5465L56.7368 11.9716L55.6528 16.3074H51.1209C50.9608 16.3074 50.8433 16.1569 50.8821 16.0016L51.452 13.7221C51.4729 13.6385 51.536 13.5719 51.6184 13.5465ZM36.8853 3.06786C37.0501 2.40844 36.6492 1.74023 35.9898 1.57538C35.3304 1.41052 34.6622 1.81145 34.4973 2.47087L32.0366 12.3138L32.0353 12.3189L30.8051 17.2397C30.6402 17.8991 31.0412 18.5673 31.7006 18.7322C32.36 18.897 33.0282 18.4961 33.1931 17.8367L34.1907 13.846H36.9997C37.1126 13.846 37.2111 13.9228 37.2384 14.0324L38.1895 17.8367C38.3544 18.4961 39.0226 18.897 39.682 18.7322C40.3414 18.5673 40.7423 17.8991 40.5775 17.2397L39.6264 13.4354C39.3475 12.3197 38.3988 11.5122 37.2739 11.3983L41.2969 8.71632C41.8625 8.33928 42.0153 7.57516 41.6383 7.0096C41.2612 6.44404 40.4971 6.29122 39.9315 6.66826L35.1959 9.82535L36.8853 3.06786Z" fill="#FFCC00"/>
</svg>
