<svg width="512" height="512" viewBox="0 0 512 512" fill="none" xmlns="http://www.w3.org/2000/svg">
<path d="M71.8806 0H102.044C101.944 11.2007 102.165 22.7789 101.944 33.8989L330.653 33.9772L400.997 33.9807C412.662 33.9823 428.756 33.5618 440.204 34.2755C435.972 37.7236 429.473 45.1359 425.502 49.3927L403.279 72.975L364.054 114.505C355.501 123.528 345.598 133.642 337.51 142.97C348.389 153.351 361.503 168.056 372.024 179.213L440.156 251.615C430.952 251.263 420.282 251.609 410.93 251.622L354.863 251.648L181.105 251.643L126.052 251.673C121.076 251.681 105.827 252.169 102.074 251.378C101.125 315.617 102.572 380.77 101.975 445.098C101.77 467.157 102.471 490.101 101.949 512H72.0336C71.6371 497.436 71.9436 481.743 71.9441 467.049L71.9496 383.495L71.9541 130.697C71.9541 87.734 72.6111 42.8217 71.8806 0ZM101.986 221.188C118.039 220.777 136.828 221.276 153.126 221.279L261.942 221.288L331.784 221.284C343.412 221.281 359.359 220.769 370.602 221.595L334.832 183.599C322.516 170.717 308.858 155.251 296.398 143.124C302.045 135.146 316.92 120.789 324.095 113.084C334.382 101.885 344.806 90.8125 355.362 79.8675C359.478 75.5245 366.362 67.5065 370.632 64.245L180.234 64.2015L127.59 64.2435C121.815 64.251 106.819 64.676 102.05 63.9365C101.449 116 101.971 169.049 101.986 221.188Z" fill="black"/>
</svg>
