<svg width="150" height="150" viewBox="0 0 150 150" fill="none" xmlns="http://www.w3.org/2000/svg">
<g clip-path="url(#clip0_230_5369)">
<rect width="150" height="150" fill="#FFCC00"/>
<g clip-path="url(#clip1_230_5369)">
<path d="M113.575 44.3311L119.948 42.6233L132.404 89.14L136.124 103.023L137.329 107.515C137.547 108.326 137.833 109.291 138.005 110.093C141.815 109.203 145.685 107.981 149.498 107.056C150.143 109.705 150.957 112.532 151.665 115.177L154.609 126.162L146.813 128.256C145.877 128.507 144.001 129.08 143.146 129.241L146.713 142.537C147.489 145.435 148.316 148.39 149.052 151.294L142.694 152.997C142.304 151.701 141.952 150.28 141.599 148.964L139.661 141.728L137.857 134.994C137.503 133.678 137.094 132.27 136.786 130.954C133.033 132.001 129.07 133.021 125.295 134.011C125.194 133.459 124.893 132.45 124.742 131.887L123.652 127.824L120.196 114.926C121.226 114.556 123.19 114.089 124.308 113.79L131.655 111.832C131.485 111.391 131.198 110.155 131.057 109.628L129.819 104.99L125.778 89.9072L117.732 59.8789C116.358 54.7551 114.865 49.4628 113.575 44.3311ZM128.272 119.578C128.789 121.473 129.553 124.029 129.955 125.899C131.912 125.44 133.971 124.851 135.918 124.329L145.695 121.709L146.528 121.495C146.337 120.917 146.157 120.219 146.017 119.62C145.672 118.141 145.149 116.627 144.836 115.149C139.767 116.456 134.266 117.899 129.235 119.326C128.882 119.433 128.633 119.506 128.272 119.578Z" fill="black"/>
<path d="M60.7278 58.4914L67.1015 56.7835L79.5297 103.193L83.2615 117.119L84.4766 121.651C84.6976 122.475 84.984 123.439 85.1588 124.254C88.9702 123.36 92.8445 122.129 96.6524 121.216C97.2304 123.593 97.9617 126.135 98.5974 128.508L101.763 140.322L93.963 142.416C93.0374 142.665 91.1437 143.243 90.2994 143.399L93.9196 156.896C94.6787 159.729 95.4851 162.615 96.2057 165.454L89.8469 167.157C88.7722 163.545 87.7621 159.426 86.7782 155.751L84.9954 149.099C84.6457 147.801 84.2462 146.415 83.9395 145.115L72.4487 148.171C72.3449 147.604 72.0648 146.686 71.9056 146.092L70.8097 142.003L67.3494 129.086C68.3411 128.727 70.2796 128.266 71.3656 127.975L78.8078 125.992C78.6417 125.559 78.346 124.297 78.2082 123.78L76.9901 119.216L72.9736 104.224L64.9171 74.1592C63.5322 68.9918 62.0328 63.6673 60.7278 58.4914ZM77.1091 140.06C79.184 139.571 81.237 138.958 83.302 138.427C86.7627 137.539 90.2116 136.522 93.6758 135.655C93.1665 133.917 92.7648 132.128 92.2633 130.385C92.1627 130.035 92.065 129.665 91.9888 129.31L80.5314 132.366L77.2207 133.258C76.7345 133.391 75.994 133.625 75.5208 133.716C75.5043 133.76 75.4877 133.803 75.4712 133.846C75.8703 135.655 76.744 138.353 77.1091 140.06Z" fill="black"/>
<path d="M87.0446 51.4398L93.4186 49.7318L97.2361 64.0023L98.4047 68.3593C98.5993 69.0853 98.8712 70.0024 99.0208 70.7221C102.832 69.8277 106.706 68.5983 110.515 67.6844C111.108 70.1239 111.858 72.7295 112.51 75.1643L115.625 86.7897L107.826 88.8843C106.912 89.13 104.99 89.7152 104.161 89.8671L115.418 131.86L120.083 149.273C120.893 152.295 121.757 155.375 122.523 158.402L116.164 160.106C115.753 158.733 115.376 157.214 115.003 155.822L112.937 148.109L106.759 125.049L100.83 102.92L98.9198 95.7963C98.5513 94.4277 98.124 92.9521 97.8027 91.5822L86.311 94.6383C86.2119 94.096 85.9133 93.096 85.7653 92.5437L84.6764 88.4813L81.2121 75.5544C82.213 75.1916 84.2094 74.7165 85.3023 74.4235L92.6704 72.4602C92.4948 71.9984 92.1792 70.6588 92.0352 70.1139L90.8021 65.4964C89.5595 60.8567 88.2163 56.0853 87.0446 51.4398ZM89.2881 80.2055C89.8095 82.1177 90.561 84.6363 90.9715 86.5271C92.9179 86.0707 94.9646 85.4857 96.902 84.9658L106.711 82.3376L107.544 82.1227C107.36 81.5677 107.187 80.8992 107.052 80.3235C106.702 78.8174 106.173 77.282 105.851 75.7772L96.6287 78.2349C94.5307 78.797 92.3258 79.3517 90.2521 79.953C89.8996 80.0602 89.6487 80.1342 89.2881 80.2055Z" fill="black"/>
</g>
</g>
<defs>
<clipPath id="clip0_230_5369">
<rect width="150" height="150" fill="white"/>
</clipPath>
<clipPath id="clip1_230_5369">
<rect width="112.5" height="112.5" fill="white" transform="translate(36 65.1171) rotate(-15)"/>
</clipPath>
</defs>
</svg>
