<svg width="150" height="150" viewBox="0 0 150 150" fill="none" xmlns="http://www.w3.org/2000/svg">
<g clip-path="url(#clip0_227_5119)">
<rect width="150" height="150" fill="#FFCC00"/>
<g clip-path="url(#clip1_227_5119)">
<path d="M38.44 64.4633L142.181 36.6659C143.869 37.1452 144.151 37.2751 145.351 38.5542L173.097 142.105C172.672 143.8 172.51 144.119 171.222 145.353L67.6498 173.105C65.9559 172.683 65.6709 172.549 64.4577 171.323L36.6638 67.5944C37.1069 65.9868 37.2654 65.6429 38.44 64.4633ZM56.4379 114.212L88.5951 105.618C89.8278 105.287 100.084 102.637 100.491 102.331L100.521 102.275C97.7979 91.2811 94.5074 80.2052 91.6964 69.2151C90.7713 65.5983 89.6801 61.9435 88.8007 58.3222C78.2391 61.0179 67.5495 63.9718 57.009 66.802L48.8353 69.0056C47.7911 69.2887 45.5917 69.97 44.6304 70.0626C48.3138 84.7532 52.6873 99.5189 56.4379 114.212ZM109.224 107.357C110.227 111.504 111.468 115.702 112.542 119.843C115.275 130.388 118.331 140.956 121.025 151.501L150.045 143.747L160.013 141.075C161.541 140.665 163.679 140.16 165.151 139.682L157.081 109.487C155.867 104.954 154.495 100.16 153.388 95.6185L121.973 104L113.58 106.262C112.483 106.559 110.237 107.251 109.224 107.357ZM95.5692 56.4145C99.2375 71.0969 103.625 85.8757 107.376 100.562L139.473 91.9849C140.712 91.6528 151.024 88.9858 151.428 88.682L151.458 88.6266C150.464 84.5927 149.303 80.4559 148.226 76.435L142.568 55.3218C141.635 51.8398 140.586 48.1643 139.738 44.6736C129.17 47.3719 118.477 50.3256 107.931 53.1576L99.7759 55.356C98.7318 55.6391 96.5301 56.3212 95.5692 56.4145ZM58.2852 121.005C59.2923 125.135 60.5129 129.282 61.5806 133.404C64.3191 143.977 67.3825 154.577 70.0867 165.15L99.1419 157.386L109.091 154.719C110.611 154.312 112.749 153.806 114.214 153.33L106.155 123.176C104.936 118.627 103.563 113.824 102.45 109.267L70.982 117.662L62.6382 119.912C61.5417 120.209 59.2981 120.901 58.2852 121.005Z" fill="black"/>
</g>
</g>
<defs>
<clipPath id="clip0_227_5119">
<rect width="150" height="150" fill="white"/>
</clipPath>
<clipPath id="clip1_227_5119">
<rect width="112.5" height="112.5" fill="white" transform="translate(36 65.1171) rotate(-15)"/>
</clipPath>
</defs>
</svg>
