<svg width="150" height="150" viewBox="0 0 150 150" fill="none" xmlns="http://www.w3.org/2000/svg">
<g clip-path="url(#clip0_217_584)">
<path d="M150 0H0V150H150V0Z" fill="#FFCC00"/>
<g clip-path="url(#clip1_217_584)">
<path d="M36.0001 65.1172L91.9117 50.1358L114.978 63.4523L122.29 67.6611C123.514 68.3635 125.413 69.3759 126.506 70.169C128.441 76.5026 129.939 83.3655 131.798 89.7502C138.215 91.1272 143.389 94.3222 146.997 99.9044C150.297 104.998 151.452 111.188 150.212 117.129C149.983 118.196 149.357 120.092 149.26 121.026C149.915 121.608 153.795 123.793 154.72 124.333L165.078 130.372C166.825 131.391 169.15 132.666 170.796 133.756C169.911 135.277 168.244 137.946 167.532 139.44L152.771 130.843C151.312 129.993 147.027 127.351 145.688 126.817C144.645 128.038 143.77 128.898 142.645 130.034C143.014 132.024 143.852 134.639 144.359 136.657C145.596 141.574 147.124 146.574 148.326 151.488L65.1172 173.784L36.0001 65.1172ZM69.7814 165.698L140.266 146.829C139.113 142.618 137.773 137.917 136.776 133.697C133.669 134.817 131.867 135.352 128.443 135.471C127.727 135.496 125.69 135.376 125.322 135.403C118.803 134.507 113.301 131.712 109.273 126.384C105.578 121.47 103.979 115.293 104.828 109.203C105.65 103.197 108.827 97.7651 113.659 94.1039C117.136 91.4907 120.672 90.1626 124.931 89.5374C123.757 85.5242 122.393 80.4785 121.424 76.4196C116.113 77.8004 110.81 79.2096 105.514 80.6472C102.71 81.3954 98.5895 82.3555 95.9023 83.2343C93.8057 74.7734 91.1785 66.223 89.131 57.7764C78.49 60.4243 67.547 63.5224 56.9222 66.3685L48.6167 68.6055C47.536 68.8996 45.0891 69.6387 44.1035 69.7531L62.63 138.95C64.9721 147.69 67.6259 156.948 69.7814 165.698ZM96.7607 60.6923C97.7347 65.2753 99.4258 70.4528 100.557 75.1047L110.037 72.5796C111.51 72.1859 113.681 71.6737 115.05 71.206C114.793 70.8683 97.0747 60.7145 96.7607 60.6923ZM122.563 96.8071C113.914 99.6164 109.187 108.911 112.009 117.555C114.831 126.199 124.132 130.913 132.772 128.078C141.394 125.249 146.096 115.972 143.28 107.346C140.464 98.7194 131.193 94.0037 122.563 96.8071Z" fill="black"/>
<path d="M59.231 100.001C59.9733 99.9073 62.7714 99.0965 63.6477 98.8611L72.7632 96.4133L104.03 88.0471C104.274 88.9362 105.796 94.0534 105.598 94.5215C102.312 95.5884 61.0681 106.523 60.9278 106.505C60.509 105.796 59.0158 100.636 59.231 100.001Z" fill="black"/>
<path d="M69.4671 138.204C70.1136 138.121 72.0103 137.568 72.7221 137.377L79.1502 135.651L101.533 129.662C101.776 130.551 103.297 135.669 103.1 136.137C100.864 136.873 71.6456 144.743 71.1669 144.704C70.7466 143.983 69.2492 138.849 69.4671 138.204Z" fill="black"/>
<path d="M62.6428 112.735C63.2914 112.653 65.2007 112.096 65.9143 111.904L72.3183 110.184L94.7089 104.193C94.9523 105.082 96.4731 110.201 96.2761 110.668C94.0505 111.4 64.7966 119.272 64.3431 119.232C63.921 118.51 62.4245 113.381 62.6428 112.735Z" fill="black"/>
<path d="M66.055 125.47C66.7043 125.387 68.6124 124.83 69.3266 124.638L75.7371 122.916L98.1205 116.928C98.3606 117.804 99.8854 122.934 99.6877 123.402C97.4817 124.127 68.2184 132.007 67.7553 131.967C67.3332 131.244 65.8366 126.116 66.055 125.47Z" fill="black"/>
</g>
</g>
<defs>
<clipPath id="clip0_217_584">
<rect width="150" height="150" fill="white"/>
</clipPath>
<clipPath id="clip1_217_584">
<rect width="112.5" height="112.5" fill="white" transform="translate(36.0001 65.1172) rotate(-15)"/>
</clipPath>
</defs>
</svg>
