<svg width="150" height="150" viewBox="0 0 150 150" fill="none" xmlns="http://www.w3.org/2000/svg">
<g clip-path="url(#clip0_227_684)">
<rect width="150" height="150" fill="#FFCC00"/>
<g clip-path="url(#clip1_227_684)">
<path d="M55.3998 109.815C52.1671 102.741 51.4002 95.8667 54.1487 88.4452C56.5568 81.9035 61.4824 76.5974 67.8272 73.7101C73.3543 71.1702 79.5918 70.6276 85.4744 72.1752C87.1551 72.6145 88.755 73.2545 90.3802 73.8642C92.8823 71.5611 94.9763 69.9993 98.2033 68.7411C103.136 66.8236 108.595 66.7573 113.573 68.5544C115.124 69.1179 116.264 69.8047 117.736 70.4513C118.88 69.7776 119.981 69.1414 121.181 68.5622C133.23 62.75 148.276 67.301 155.065 78.8278C155.793 80.0623 156.431 81.7841 157.196 82.8862L157.251 82.9645L158.651 88.1896L158.643 88.2871C158.575 89.1744 158.727 90.3192 158.767 91.2252C159.335 104.052 150.93 114.612 138.875 118.092C138.213 119.353 137.437 120.927 136.663 122.089C133.921 126.178 129.879 129.223 125.192 130.732C123.161 131.351 121.061 131.717 118.94 131.823C118.157 133.334 117.435 134.851 116.508 136.28C113.242 141.374 108.301 145.169 102.537 147.011C95.836 149.152 88.5591 148.54 82.31 145.31C81.1431 144.702 79.9012 143.785 78.9037 143.28C77.1384 143.438 75.6405 143.703 73.8337 143.705C68.7069 143.665 63.7526 141.849 59.8134 138.568C58.0366 137.082 56.5161 135.39 55.3146 133.408C54.9801 132.856 53.6364 130.195 53.3717 129.949L51.9889 124.789C52.1977 124.172 51.922 122.106 51.9502 121.315C52.1085 116.872 53.2372 113.571 55.3998 109.815ZM63.3277 110.314C60.0308 114.494 58.011 117.833 58.671 123.503C59.1303 127.579 61.2124 131.299 64.4473 133.822C67.5369 136.248 71.6033 137.455 75.5172 136.984C77.2397 136.776 78.6037 136.278 80.2634 135.92C81.5093 136.815 82.736 137.878 84.0168 138.682C88.0708 141.211 92.9084 142.173 97.6212 141.387C102.81 140.549 107.445 137.661 110.484 133.372C111.875 131.437 112.584 129.847 113.341 127.571C113.595 126.81 113.938 125.541 114.22 124.84C119.157 125.286 124.627 125.26 128.452 121.437C130.425 119.734 131.936 117.559 132.845 115.116C133.155 114.29 133.534 112.969 133.855 112.237C136.778 111.647 139.353 111.172 141.996 109.683C149.566 105.417 153.549 96.89 151.808 88.3528C150.739 83.2488 147.696 78.774 143.342 75.904C139.006 73.0357 133.707 72.012 128.615 73.0592C123.846 74.0489 121.418 75.8944 117.808 78.8315C116.665 77.9611 115.563 77.0202 114.359 76.2436C111.42 74.3435 107.905 73.5415 104.433 73.9788C101.275 74.4013 98.0343 75.8028 95.6835 77.9804C94.172 79.3805 93.2051 80.9593 91.9483 82.5248C90.5107 81.6377 88.7847 80.5444 87.2876 79.8302C83.3027 77.924 78.7865 77.4351 74.486 78.4442C73.7718 78.6126 72.558 78.9631 71.8538 79.2187C69.587 80.2192 67.9625 81.0036 66.0653 82.5954C59.3811 88.2032 57.2891 97.5761 60.7171 105.554C61.4291 107.211 62.6888 108.782 63.3277 110.314Z" fill="black"/>
</g>
</g>
<defs>
<clipPath id="clip0_227_684">
<rect width="150" height="150" fill="white"/>
</clipPath>
<clipPath id="clip1_227_684">
<rect width="112.5" height="112.5" fill="white" transform="translate(36 65.1171) rotate(-15)"/>
</clipPath>
</defs>
</svg>
