<svg width="150" height="150" viewBox="0 0 150 150" fill="none" xmlns="http://www.w3.org/2000/svg">
<g clip-path="url(#clip0_227_603)">
<rect width="150" height="150" fill="#FFCC00"/>
<g clip-path="url(#clip1_227_603)">
<path d="M55.6677 59.8472L60.8939 58.4468L60.995 58.4541C61.9035 58.5133 63.0459 58.3656 63.9802 58.3522C65.4452 58.3312 66.9758 58.439 68.4153 58.7003C70.1532 59.0231 71.8494 59.5401 73.4718 60.2416C75.6379 61.1848 78.3667 62.8696 80.4784 64.0904L91.3098 70.3506C92.5966 71.0937 95.2631 72.7244 96.4999 73.2326C98.0812 70.0108 100.969 65.3575 102.843 62.0986C104.672 58.9185 107.438 53.8058 109.431 50.9288C110.318 49.652 111.336 48.4708 112.467 47.4042C113.929 46.0326 115.465 45.0018 117.214 44.0466C117.756 43.7508 119.262 43.0003 119.663 42.6996L124.886 41.3003L124.986 41.3078C126.385 41.4019 128.011 41.1138 129.657 41.2226C135.792 41.6055 141.529 44.3906 145.625 48.9742C146.978 50.4967 147.835 51.7565 148.751 53.5641C148.997 54.0506 149.775 55.6369 150.018 55.97L151.312 60.7991C151.204 63.5295 151.66 64.603 151.198 67.7234C150.896 69.6726 150.349 71.5756 149.568 73.3868C148.714 75.3703 147.145 77.9289 146.026 79.8675L140.273 89.8113C139.784 90.6562 136.581 95.8499 136.753 96.4826C137.586 97.1614 140.873 98.9674 141.974 99.6012L152.576 105.712C154.636 106.901 157.295 108.332 159.16 109.691C160.518 110.681 161.764 111.817 162.874 113.078C164.184 114.573 165.025 115.813 165.91 117.577C166.162 118.083 166.917 119.628 167.166 119.967L168.458 124.79L168.454 124.897C168.398 126.406 168.653 128.001 168.561 129.573C168.214 135.533 165.594 141.133 161.24 145.218C160.035 146.353 158.975 147.213 157.548 148.046C156.903 148.422 154.604 149.556 154.219 149.909L148.875 151.341C148.309 151.273 146.239 151.401 145.558 151.421C143.182 151.482 140.814 151.136 138.555 150.4C135.205 149.343 131.886 147.193 128.821 145.422L118.528 139.468C117.365 138.795 114.625 136.909 113.467 136.784C112.981 136.732 108.216 145.349 107.715 146.218L103.225 154C102.254 155.682 101.132 157.744 99.9903 159.282C98.8737 160.787 97.5837 162.155 96.1469 163.357C95.2067 164.147 94.1897 164.841 93.1112 165.427C92.4615 165.779 90.7247 166.646 90.2291 167.055L84.8738 168.49C83.1907 168.32 81.2439 168.765 78.8866 168.462C72.3061 167.731 66.5264 164.257 62.6217 158.941C61.6287 157.589 60.7463 155.188 59.8518 154.133L58.3843 148.656C58.5388 148.073 58.3738 145.957 58.3545 145.171C58.2019 138.966 61.0555 134.483 64.0234 129.339L70.2587 118.549C70.8335 117.557 72.8348 114.306 73.0647 113.458C72.835 112.824 54.6459 102.691 52.5175 101.351C49.3442 99.3542 46.8697 97.2419 44.7258 93.8152C44.1419 92.8821 43.2537 90.7849 42.7043 90.1379L41.2396 84.6716C41.3789 84.1592 41.1856 81.4617 41.2031 80.6806C41.2402 79.0211 41.3564 78.2471 41.7112 76.5859C42.943 70.6974 46.4491 65.5329 51.4676 62.2151C52.8143 61.3166 54.35 60.7147 55.5847 59.9024L55.6677 59.8472ZM144.175 144.785C148.844 144.976 153.103 143.692 156.586 140.482C159.83 137.512 161.76 133.375 161.951 128.98C162.123 124.606 160.556 120.341 157.592 117.118C156.654 116.115 155.597 115.231 154.444 114.486C152.735 113.364 133.77 102.335 133.12 102.312C133.095 102.311 133.07 102.312 133.045 102.311C131.603 105.001 129.93 107.836 128.355 110.466C124.363 117.133 120.68 124.132 116.632 130.748L131.056 139.079C133.174 140.305 137.079 142.718 139.128 143.573C140.739 144.231 142.441 144.64 144.175 144.785ZM87.1595 160.94C93.3711 158.392 94.7716 155.374 97.9279 149.899L103.125 140.883L120.259 111.206L136.111 83.7495L140.797 75.6454C141.646 74.1767 142.965 72.0347 143.593 70.531C145.235 66.5422 145.23 62.0655 143.58 58.0801C141.92 53.9757 138.667 50.72 134.563 49.0572C130.793 47.5016 126.574 47.4276 122.752 48.8502C116.45 51.3802 115.131 54.0687 111.911 59.6626L107.194 67.8494L90.9465 95.9903L74.1626 125.056L69.1849 133.674C68.3121 135.184 66.8933 137.499 66.2253 139.042C64.5471 142.917 64.5567 147.701 66.1374 151.611C67.7679 155.693 70.9639 158.953 75.0128 160.664C79.062 162.375 83.0342 162.338 87.1595 160.94ZM76.6754 107.609C77.343 106.143 78.6183 104.062 79.4518 102.615L88.4535 87.0333C89.6466 84.9669 91.8599 80.8648 93.1145 79.0961C89.8898 77.0074 85.4477 74.6102 82.0294 72.6355L75.8528 69.0704C73.6957 67.8268 71.3272 66.3342 68.9487 65.6195C65.9992 64.7334 61.6029 64.7388 58.7455 66.0024C54.2492 67.7971 51.1012 70.3872 49.1308 74.9475C47.4228 78.9638 47.361 83.4902 48.9588 87.5516C49.9048 89.9436 51.3992 92.08 53.3218 93.7888C55.0957 95.366 57.4216 96.5753 59.4917 97.7697L66.849 102.009L73.0177 105.572C74.0564 106.171 75.616 107.124 76.6754 107.609Z" fill="black"/>
<path d="M104.503 85.7496C105.188 85.918 109.435 88.4269 110.4 88.9954C114.119 91.1856 118.008 93.3154 121.686 95.5549C120.85 97.3146 118.588 100.984 117.569 102.748L109.563 116.598C108.199 118.957 106.492 121.725 105.276 124.09C104.545 123.858 100.235 121.34 99.2469 120.743C95.6293 118.56 91.5854 116.457 88.0364 114.231C88.5205 113.492 89.0538 112.431 89.5013 111.639L92.1544 107.029L99.6827 93.986C101.258 91.257 102.843 88.4154 104.503 85.7496ZM97.0641 111.807C98.079 112.405 102.012 114.805 102.896 115.027C103.5 113.815 104.238 112.55 104.932 111.381C107.558 106.958 110.019 102.385 112.695 97.9967C111.928 97.5448 107.455 94.862 106.915 94.7417L97.0641 111.807Z" fill="black"/>
<path d="M113.088 70.9224C113.66 70.8836 118.08 73.6212 118.816 74.0596C117.861 75.8807 116.499 77.9004 115.659 79.7248C115.097 79.6414 110.781 77.0315 109.869 76.5221C110.563 74.9822 112.169 72.3298 113.088 70.9224Z" fill="black"/>
<path d="M75.5915 135.773C76.4559 135.875 80.1887 138.243 81.3506 138.826C80.6992 140.317 79.0398 143.02 78.1553 144.497C77.6226 144.522 73.1613 141.797 72.393 141.303C73.4439 139.617 74.5215 137.554 75.5915 135.773Z" fill="black"/>
<path d="M87.0254 142.402C87.7718 142.406 91.8821 144.962 92.8153 145.511C92.0983 147.033 90.5079 149.557 89.6283 151.131C89.1755 151.197 84.7381 148.455 83.8997 148.046C84.2824 146.936 86.3246 143.591 87.0254 142.402Z" fill="black"/>
<path d="M124.518 77.529C125.021 77.471 129.373 80.1277 130.223 80.5948C129.801 81.727 127.768 85.0558 127.062 86.2627C126.566 86.3165 122.063 83.5394 121.302 83.0919C122.308 81.2642 123.401 79.2857 124.518 77.529Z" fill="black"/>
<path d="M119.634 59.4944L119.673 59.4909C120.259 59.4336 124.613 62.1207 125.42 62.5939C124.503 64.4264 123.255 66.358 122.262 68.2049C121.799 68.2686 117.259 65.5059 116.487 65.0681C117.031 63.7569 118.847 60.8128 119.634 59.4944Z" fill="black"/>
<path d="M82.2145 124.346C82.8946 124.338 86.9792 126.874 87.9694 127.425C87.1573 129.089 85.7358 131.407 84.799 133.086C84.2093 133.04 79.7666 130.344 79.0058 129.844C80.0172 128.33 81.0997 126.082 82.2145 124.346Z" fill="black"/>
<path d="M131.074 66.1046C131.875 66.0972 135.988 68.7058 136.892 69.2484C135.836 70.9578 134.695 73.0785 133.683 74.8433C133.322 74.8829 128.604 72.0625 127.931 71.6827C128.873 69.8412 130.034 67.9081 131.074 66.1046Z" fill="black"/>
<path d="M93.7087 130.915C94.2718 130.966 98.5354 133.545 99.3507 134.01C99.0735 135.054 96.8886 138.382 96.2567 139.724C95.4838 139.506 91.3204 137.014 90.4324 136.467C91.3891 135.112 92.6429 132.55 93.7087 130.915Z" fill="black"/>
</g>
</g>
<defs>
<clipPath id="clip0_227_603">
<rect width="150" height="150" fill="white"/>
</clipPath>
<clipPath id="clip1_227_603">
<rect width="112.5" height="112.5" fill="white" transform="translate(36 65.1171) rotate(-15)"/>
</clipPath>
</defs>
</svg>
