<svg width="512" height="512" viewBox="0 0 512 512" fill="none" xmlns="http://www.w3.org/2000/svg">
<path d="M0 30.9637L346.207 30.9902L455.348 30.9895L491.517 30.988C498.215 30.9875 505.33 30.871 512 31.0512V481.075L170.092 481.082H55.6917L18.7917 481.087C13.0451 481.09 5.5775 481.353 0 481.065V30.9637ZM30.0082 450.95L387.58 450.987H457.432C460.325 450.987 480.812 451.195 481.805 450.815L481.935 450.675C482.027 440.237 482.053 429.8 482.01 419.362L482.008 365.57L482.005 203.477V149.677C482.005 140.5 481.792 130.276 482.057 121.163C444.302 120.708 405.84 121.078 368.043 121.079L154.486 121.079L65.83 121.079L41.6253 121.1C38.851 121.105 32.402 121.328 30.057 120.953C29.859 133.459 30.0075 146.33 30.0125 158.863L30.0168 224.781L30.0082 450.95ZM30.0082 90.9495L387.372 90.988L457.445 90.987C460.143 90.987 480.867 91.1765 481.802 90.8142L481.932 90.674C482.135 80.8697 481.81 70.906 482.057 61.1632C444.347 60.7092 405.932 61.0785 368.18 61.0792L154.398 61.0787L65.828 61.0792L41.625 61.1005C38.853 61.1052 32.3987 61.3287 30.057 60.9527C29.8947 70.948 30.1062 80.9667 30.0082 90.9495Z" fill="black"/>
<path d="M211.078 151.007C221.051 150.95 231.024 150.966 240.997 151.054L241.008 300.95L270.957 300.978C271.27 272.948 270.81 244.734 271.002 216.695C271.085 204.991 270.742 192.657 271.077 181.007L322.115 180.987C335.075 180.945 348.037 180.967 360.997 181.054L361.007 240.95C380.962 241.129 401.07 240.751 420.997 241.055L421.007 390.95C430.755 391.025 441.027 391.125 450.752 390.958C449.437 393.16 451.387 418.555 449.842 420.297C441.447 420.835 432.505 420.633 424.035 420.633L384.222 420.638L260.122 420.633L227.119 420.612C224.789 420.61 213.325 420.418 211.589 420.91L211.198 420.88C210.833 420.173 211.005 363.76 211.005 359.55L211.003 222.282L211 176.711C211 168.321 210.847 159.362 211.078 151.007ZM330.932 390.675C331.247 374.598 331.01 357.783 331.01 341.663L331.005 252.018C331.005 238.626 330.777 224.509 331.057 211.163C324.61 211.083 318.16 211.064 311.712 211.107C309.115 211.115 303.33 211.317 301.057 210.953C300.797 227.854 301.005 245.311 301.007 262.26V390.95C303.31 390.96 330.317 391.263 330.932 390.675ZM361.007 390.95C363.312 390.96 390.317 391.263 390.932 390.675C391.147 379.76 391.01 368.458 391.01 357.52L391.007 299.393C391.005 290.105 390.86 280.42 391.057 271.163C384.515 271.083 377.97 271.063 371.427 271.108C368.845 271.115 363.327 271.318 361.057 270.953C360.417 310.7 361.422 351.123 361.007 390.95ZM241.008 390.95C243.313 390.96 270.315 391.263 270.932 390.675C271.32 371.048 270.502 350.633 271.057 331.163C264.477 331.083 257.897 331.063 251.317 331.108C248.757 331.118 243.315 331.315 241.057 330.953C240.749 350.88 241.222 371.015 241.008 390.95Z" fill="black"/>
<path d="M60.0502 271.008L145.029 270.995C156.495 270.998 168.309 271.145 179.755 270.958C179.676 271.095 179.591 271.228 179.519 271.368C178.522 273.29 180.393 298.03 178.855 300.298C168.295 300.985 154.927 300.638 144.147 300.638L85.435 300.633C81.852 300.633 62.7287 300.223 60.5892 300.908L60.2472 300.9C59.677 300.03 60.0125 274.238 60.0502 271.008Z" fill="black"/>
<path d="M60.0774 151.007L143.391 150.995C155.415 150.997 167.775 151.152 179.754 150.958C178.449 153.139 180.376 178.541 178.855 180.298C168.292 180.985 154.929 180.637 144.147 180.638L85.4344 180.633C81.8527 180.632 62.7262 180.222 60.5887 180.909L60.2467 180.901C59.6767 180.03 59.9824 154.247 60.0774 151.007Z" fill="black"/>
<path d="M60.0779 211.007L143.63 210.995C155.59 210.996 167.834 211.151 179.755 210.958C179.676 211.095 179.591 211.228 179.519 211.368C178.597 213.146 180.32 238.272 178.856 240.298C168.293 240.985 154.929 240.637 144.147 240.638L85.4349 240.633C81.8529 240.632 62.7269 240.222 60.5891 240.909L60.2471 240.899C59.6781 240.032 59.9831 214.246 60.0779 211.007Z" fill="black"/>
<path d="M60.0777 331.008L143.784 330.995C155.662 330.995 167.899 331.15 179.755 330.958C179.676 331.095 179.591 331.228 179.519 331.368C178.582 333.175 180.321 358.608 178.856 360.298C168.293 360.985 154.929 360.638 144.147 360.638L85.4349 360.633C81.8532 360.633 62.7267 360.223 60.5892 360.91L60.2472 360.9C59.6729 360.023 59.9837 334.31 60.0777 331.008Z" fill="black"/>
<path d="M60.0774 391.008L143.375 390.995C155.383 390.998 167.788 391.153 179.755 390.958C179.676 391.095 179.591 391.228 179.518 391.368C178.577 393.183 180.319 418.608 178.855 420.298C168.293 420.985 154.929 420.638 144.147 420.638L85.4346 420.633C81.8526 420.633 62.7266 420.223 60.5889 420.91L60.2469 420.9C59.6711 420.02 59.9831 394.315 60.0774 391.008Z" fill="black"/>
<path d="M450.753 390.958C451.783 391.17 451.498 390.898 451.948 391.523C452.39 400.343 452.03 412.01 452.015 421.045L285.218 421.083L234.854 421.085L220.259 421.105C218.035 421.108 213.69 421.208 211.589 420.91C213.325 420.418 224.789 420.61 227.119 420.613L260.123 420.633L384.223 420.638L424.035 420.633C432.505 420.633 441.448 420.835 449.843 420.298C451.388 418.555 449.438 393.16 450.753 390.958Z" fill="black"/>
<path d="M179.755 390.958C180.784 391.17 180.499 390.898 180.947 391.523C181.39 400.34 181.029 412.013 181.016 421.045L97.9009 421.08L73.2429 421.103C70.4536 421.105 63.0796 421.263 60.5889 420.91C62.7266 420.223 81.8526 420.633 85.4346 420.633L144.147 420.638C154.929 420.638 168.293 420.985 178.855 420.298C180.319 418.608 178.577 393.183 179.518 391.368C179.591 391.228 179.676 391.095 179.755 390.958Z" fill="black"/>
<path d="M179.755 330.958C180.784 331.17 180.498 330.898 180.947 331.523C181.389 340.343 181.028 352.01 181.015 361.045L97.9014 361.08L73.2426 361.103C70.4531 361.105 63.0801 361.263 60.5889 360.91C62.7264 360.223 81.8529 360.633 85.4346 360.633L144.147 360.638C154.929 360.638 168.293 360.985 178.855 360.298C180.321 358.608 178.582 333.175 179.518 331.368C179.591 331.228 179.676 331.095 179.755 330.958Z" fill="black"/>
<path d="M179.755 210.958C180.784 211.17 180.498 210.898 180.947 211.522C181.39 220.341 181.029 232.012 181.016 241.044L97.9014 241.08L73.2426 241.102C70.4539 241.104 63.0794 241.262 60.5889 240.909C62.7266 240.222 81.8526 240.632 85.4346 240.633L144.147 240.638C154.929 240.637 168.293 240.985 178.855 240.298C180.32 238.272 178.597 213.146 179.518 211.368C179.591 211.228 179.676 211.095 179.755 210.958Z" fill="black"/>
<path d="M179.755 150.958C180.784 151.17 180.498 150.899 180.947 151.522C181.389 160.344 181.029 172.01 181.016 181.044L97.9009 181.08L73.2429 181.102C70.4531 181.104 63.0801 181.262 60.5889 180.909C62.7264 180.222 81.8529 180.632 85.4346 180.633L144.147 180.638C154.929 180.637 168.293 180.985 178.856 180.298C180.376 178.541 178.449 153.139 179.755 150.958Z" fill="black"/>
<path d="M179.755 270.958C180.784 271.17 180.498 270.898 180.947 271.523C181.39 280.338 181.028 292.015 181.015 301.045L97.9009 301.08L73.2429 301.103C70.4556 301.105 63.0774 301.263 60.5889 300.908C62.7284 300.223 81.8516 300.633 85.4346 300.633L144.147 300.638C154.927 300.638 168.294 300.985 178.855 300.298C180.392 298.03 178.522 273.29 179.518 271.368C179.591 271.228 179.676 271.095 179.755 270.958Z" fill="black"/>
</svg>
