<svg width="512" height="512" viewBox="0 0 512 512" fill="none" xmlns="http://www.w3.org/2000/svg">
<path d="M91.6335 202.592C87.3337 196.885 84.2613 193.617 80.2548 187.254C66.1943 164.896 60.5713 138.255 64.3968 112.121C68.6148 82.9202 84.2197 56.576 107.801 38.845C131.507 21.0534 161.327 13.4448 190.658 17.7036C202.788 19.4311 214.463 23.1568 225.32 28.772C225.862 29.0525 227.984 30.109 228.812 29.9552C231.883 29.3847 235.405 26.884 238.411 25.7127C244.511 23.0605 250.688 21.0573 257.198 19.5308C300.44 9.33037 345.608 25.8005 372.135 61.4412C389.895 85.2017 397.437 115.069 393.085 144.413C390.62 161.12 384.357 177.04 374.775 190.947C372.107 194.823 368.188 199.167 365.98 202.504C368.785 203.694 372.337 205.93 374.962 207.548C386.672 214.765 396.79 223.375 406.203 233.381C409.298 236.672 412.375 241.053 415.4 243.917C416.677 245.125 424.26 246.968 426.635 247.813C430.388 249.167 434.082 250.675 437.712 252.33C467.24 265.935 490.485 290.268 502.723 320.388C506.075 328.6 508.52 337.155 510.013 345.9C510.473 348.655 511.34 356.718 512 358.85V377.22C511.473 379.02 511.182 381.565 510.987 383.46C510.26 390.465 508.805 396.955 506.872 403.735C497.525 435.442 476.293 462.312 447.605 478.735C432.858 487.212 416.55 492.627 399.66 494.65C387.985 495.967 376.252 495.717 364.522 495.717H321.897L178.917 495.707L56.2762 495.705L19.4846 495.715C14.7976 495.725 4.29095 496.05 0 495.56V356.142C1.16977 353.052 1.50762 343.955 2.02135 340.17C3.11162 332.395 4.62797 324.685 6.56355 317.075C16.3784 278.14 38.5685 241.387 70.3828 216.618C76.3435 211.978 84.5842 206.181 91.3447 202.737L91.6335 202.592ZM116.633 223.633C82.5355 238.239 56.2242 269.18 42.604 303.212C35.6723 320.715 31.5518 339.205 30.3955 357.995C29.9283 365.242 30.011 372.37 30.0115 379.625L30.0123 405.908L30.038 465.34C59.951 465.772 90.6528 465.425 120.625 465.422L240.592 465.42H279.983C287.218 465.42 295.428 465.23 302.573 465.552C297.568 460.957 292.645 456.37 288.2 451.217C269.53 429.647 258.673 402.418 257.38 373.92C255.913 340.685 267.26 308.33 289.533 283.39C291.095 281.64 293.157 279.638 294.587 277.845C281.59 257.188 268.427 243.012 246.96 230.574C243.281 228.443 236.465 224.738 232.564 223.529C227.492 226.271 223.002 228.764 217.664 230.991C194.123 240.972 167.836 242.421 143.341 235.087C135.034 232.602 127.492 229.427 119.94 225.159C118.867 224.552 117.814 223.996 116.633 223.633ZM340.562 223.531C329.278 229.708 315.603 236.173 302.695 237.873C307.55 243.847 312.235 249.748 316.44 256.2C317.063 257.155 317.79 258.243 318.483 259.135C321.648 257.363 324.935 255.458 328.177 253.86C339.585 248.413 358.177 241.89 370.86 241.632C364.112 235.718 349.085 226.442 340.562 223.531ZM385.375 465.385C439.065 464.953 482.26 421.12 481.905 367.432C481.552 313.742 437.78 270.483 384.09 270.76C330.292 271.038 286.925 314.917 287.28 368.715C287.635 422.515 331.577 465.818 385.375 465.385ZM278.8 46.8707C269.262 47.1985 264.273 48.8962 255.423 51.256C258.35 54.019 261.952 58.51 264.367 61.759C277.802 79.8182 285.408 101.546 286.168 124.041C287.06 147.147 280.68 169.951 267.927 189.239C264.662 194.194 261.525 197.893 257.897 202.529L258.22 202.66C261.858 204.165 264.822 206.871 268.397 208.092C270.585 208.84 274.063 209.163 276.358 209.329C287.585 210.183 298.865 208.717 309.503 205.022C328.888 198.654 346.357 182.897 355.517 164.757C365.295 145.412 366.945 122.965 360.105 102.397C353.215 81.778 338.4 64.75 318.932 55.076C305.815 48.547 293.392 46.3372 278.8 46.8707ZM178.375 209.469C223.311 207.463 258.118 169.418 256.133 124.481C254.145 79.5447 216.116 44.7207 171.178 46.6877C126.212 48.6557 91.3615 86.7137 93.3495 131.679C95.3375 176.644 133.411 211.477 178.375 209.469Z" fill="black"/>
<path d="M369.645 310.513C378.398 310.088 390.578 310.472 399.605 310.492C399.493 322.052 399.76 333.657 399.64 345.22C399.615 347.835 399.68 350.357 399.498 352.972C413.618 353.332 428.09 352.752 442.205 353.142C441.978 356.222 442.145 361.487 442.155 364.705L442.128 383.092C430.72 383.26 419.278 383.045 407.865 383.175C405.113 383.205 402.315 383.252 399.57 383.092C399.79 388.045 399.64 393.78 399.64 398.815C399.668 407.557 399.64 416.3 399.558 425.045L399.408 425.448C398.503 426.173 373.088 425.723 369.498 425.855C369.735 422.103 369.518 417.017 369.563 413.145C369.673 403.225 369.395 393.15 369.608 383.24C360.67 383.137 351.735 383.107 342.798 383.147C338.018 383.145 331.658 382.917 327.018 383.175C327.278 373.352 326.958 363.008 327.103 353.073L369.59 353.07C369.32 349.34 369.545 342.1 369.545 338.15C369.498 328.937 369.53 319.725 369.645 310.513Z" fill="black"/>
</svg>
