<svg width="512" height="512" viewBox="0 0 512 512" fill="none" xmlns="http://www.w3.org/2000/svg">
<g clip-path="url(#clip0_230_5321)">
<path d="M177.221 0H212.368L212.828 0.153435C217.174 1.56115 224.831 2.0171 229.52 2.93324C237.227 4.43895 244.762 6.27225 252.264 8.5874C301.921 23.9774 343.433 58.4595 367.67 104.451C391.614 150.08 396.515 203.334 381.302 252.567C374.588 274.078 364.227 294.275 350.672 312.276C349.186 314.256 343.026 321.093 344.047 322.204C350.112 328.806 368.896 348.605 375.049 353.108C381.254 346.462 388.751 338.759 395.502 332.711C399.293 335.124 410.871 347.192 414.589 350.907L452.94 389.25L485.463 421.784C491.403 427.728 497.146 433.417 502.79 439.66C508.315 445.775 508.67 453.732 512 459.669V474.369C510.375 478.262 509.465 481.838 507.625 485.923C503.175 495.801 495.638 503.255 485.892 507.925C483.591 509.03 476.598 510.925 475.021 512H459.057C454.974 509.545 447.656 508.72 442.08 504.515C434.22 498.585 428.42 492.244 421.528 485.336L395.004 458.758L354.802 418.578C347.88 411.657 338.722 402.948 332.317 395.746C339.41 388.826 345.971 381.741 353.238 374.781C345.832 366.425 329.84 350.849 321.559 343.135C305.402 357.71 281.963 370.828 261.665 378.335C213.406 396.001 160.108 393.791 113.478 372.19C63.809 349.203 26.0056 306.505 9.204 254.417C6.8874 247.162 5.2303 240.366 3.67635 232.911C2.48823 227.211 2.04733 218.004 0 212.876V176.689C1.12493 174.464 3.81165 156.336 4.81819 151.868C8.14355 136.927 13.281 122.447 20.1163 108.751C43.7883 60.638 86.238 24.4045 137.471 8.5806C144.786 6.35305 152.227 4.56071 159.755 3.21303C163.525 2.5768 174.017 1.13037 176.822 0.144782L177.221 0ZM198.25 359.87C289.218 358.055 361.523 282.897 359.82 191.926C358.117 100.956 283.049 28.5579 192.077 30.149C100.946 31.7429 28.3934 106.971 30.0996 198.1C31.8058 289.229 107.123 361.688 198.25 359.87ZM374.765 395.793C379.254 400.823 385.652 406.89 390.5 411.742L419.215 440.47L442.663 463.914C447.94 469.189 456.738 479.352 463.461 481.448C468.123 482.047 472.514 481.772 476.161 478.562C490.936 465.562 474.406 453.146 465.964 444.697L445.142 423.873C439.752 418.485 398.578 376.485 395.207 375.271L374.765 395.793Z" fill="black"/>
<path d="M180.225 90.0265C190.15 89.9275 200.076 89.956 210 90.112C210.207 139.304 210.67 191 209.945 240.091C200.119 240.326 189.83 240.132 179.955 240.175C180.359 228.246 180.019 214.281 180.021 202.222L180.015 130.176C180.008 118.282 179.501 101.63 180.225 90.0265Z" fill="black"/>
<path d="M180.229 270.028C190.153 269.93 200.078 269.959 210.001 270.116C209.985 277.065 210.628 293.644 209.79 300.057C200.272 300.481 189.578 300.162 179.946 300.172C180.184 290.476 179.573 279.509 180.229 270.028Z" fill="black"/>
</g>
<defs>
<clipPath id="clip0_230_5321">
<rect width="512" height="512" fill="white"/>
</clipPath>
</defs>
</svg>
