<svg width="512" height="512" viewBox="0 0 512 512" fill="none" xmlns="http://www.w3.org/2000/svg">
<path d="M96.1807 90.231L271.89 90.6245C283.575 90.6215 295.88 90.208 307.353 90.2765C326.611 90.3165 345.044 98.0985 358.504 111.872C370.847 124.37 378.129 140.993 378.946 158.54C379.247 164.638 378.708 173.162 378.662 179.615C382.492 177.198 389.894 170.911 393.79 167.777L422.159 144.949C430.676 138.102 437.937 130.941 449.219 129.506C457.819 128.474 466.476 130.912 473.273 136.281C479.625 141.251 484.29 148.952 484.877 156.945C485.696 168.097 485.364 180.436 485.36 191.682L485.32 256.382L485.356 320.575C485.362 331.55 485.637 343.209 484.98 354.128C484.632 359.904 482.19 365.738 478.586 370.31C473.168 377.192 465.24 381.642 456.543 382.683C441.844 384.369 432.434 375.199 421.826 366.646L404.805 353.003C396.184 345.908 387.44 338.965 378.576 332.177C379.623 358.253 379.571 374.62 361.809 396.438C350.844 409.907 330.2 421.124 312.914 421.666C300.776 422.047 285.858 421.609 273.277 421.608L187.946 421.626L124.499 421.64C113.051 421.668 96.1912 422.582 85.4327 420.677C72.5617 418.378 60.5732 412.577 50.7842 403.91C36.2944 391.361 27.4944 373.487 26.3853 354.35C25.8782 346.254 26.6219 329.257 26.6341 320.331L26.6622 243.092L26.6443 182.441C26.6307 171.902 25.5621 159.567 27.3584 149.524C29.7647 136.207 35.8202 123.819 44.8507 113.739C58.4182 98.4735 76.1397 91.46 96.1807 90.231ZM303.99 389.039C348.696 386.276 346.648 356.942 346.646 321.137L346.634 271.282L346.645 202.886C346.65 190.416 346.884 177.343 346.387 164.986C345.922 153.416 342.781 140.714 333.785 132.816C328.213 127.924 320.432 124.873 313.073 123.988C301.098 122.549 287.661 122.932 275.502 122.936L218.313 122.95L143.011 122.945C131.193 122.944 113.679 122.434 102.32 123.204L102.114 123.218C78.3557 124.957 63.2212 131.385 59.5847 157.891C57.9587 169.743 58.5327 181.747 58.5332 193.696L58.5457 246.556L58.5337 310.416C58.5242 327.416 56.7952 352.068 63.2152 367.665C73.2182 391.965 103.193 389.23 124.929 389.201L168.95 389.184C213.25 389.173 259.919 389.979 303.99 389.039ZM378.697 221.65C377.95 241.106 378.926 261.091 378.543 280.6C378.479 283.836 378.435 287.607 378.623 290.828C389.798 300.091 401.655 308.99 412.7 318.266C426.298 328.792 439.578 340.077 453.287 350.396L453.293 204.048C453.296 190.526 453.412 176.993 453.202 163.474C453.198 163.169 452.583 162.522 452.389 162.369C436.469 173.775 419.855 188.595 404.114 200.631C399.942 203.82 381.178 218.627 378.697 221.65Z" fill="black"/>
</svg>
