<svg width="24" height="24" viewBox="0 0 24 24" fill="none" xmlns="http://www.w3.org/2000/svg">
<path d="M18.707 6.24611C16.219 3.46557 12.2733 2.50852 8.78792 3.84016C5.30249 5.1718 3.00014 8.51595 3 12.2471V13.0001" stroke="#C4C4C4" stroke-width="1.5" stroke-linecap="round" stroke-linejoin="round"/>
<path d="M5.29297 18.249C7.78084 21.0294 11.7262 21.9865 15.2116 20.6551C18.6969 19.3237 20.9994 15.98 21 12.249V11.5" stroke="#C4C4C4" stroke-width="1.5" stroke-linecap="round" stroke-linejoin="round"/>
<path d="M18.75 13.7471L21 11.4971L23.25 13.7471" stroke="#C4C4C4" stroke-width="1.5" stroke-linecap="round" stroke-linejoin="round"/>
<path d="M5.25 10.7471L3 12.9971L0.75 10.7471" stroke="#C4C4C4" stroke-width="1.5" stroke-linecap="round" stroke-linejoin="round"/>
<path d="M12 6.99707V12.9971" stroke="#C4C4C4" stroke-width="1.5" stroke-linecap="round" stroke-linejoin="round"/>
<path d="M12 16C11.7929 16 11.625 16.1679 11.625 16.375C11.625 16.5821 11.7929 16.75 12 16.75C12.2071 16.75 12.375 16.5821 12.375 16.375C12.375 16.1679 12.2071 16 12 16" stroke="#C4C4C4" stroke-width="1.5" stroke-linecap="round" stroke-linejoin="round"/>
</svg>
