<svg width="150" height="150" viewBox="0 0 150 150" fill="none" xmlns="http://www.w3.org/2000/svg">
<g clip-path="url(#clip0_230_5138)">
<rect width="150" height="150" fill="#FFCC00"/>
<g clip-path="url(#clip1_230_5138)">
<path d="M51.256 61.0293L57.6578 59.314C58.2735 61.6969 58.9789 64.1417 59.5644 66.5143L108.11 53.5244L123.04 49.5247C125.516 48.8617 128.908 47.8572 131.378 47.3576C130.676 48.3301 129.718 50.2729 129.117 51.4022L125.742 57.6711L119.778 68.716C118.476 71.1174 116.95 73.8273 115.764 76.2671C118.663 77.8516 122.282 80.2269 125.15 81.9964L143.728 93.4883C141.754 93.937 139.509 94.6174 137.525 95.152L125.627 98.3461L88.7486 108.227L77.0657 111.364C76.0101 111.648 72.8013 112.619 71.9599 112.665C75.4117 126.353 79.424 140.098 82.9556 153.785C84.1667 158.479 85.6201 163.309 86.7547 167.986L80.4056 169.687C79.4932 166.619 78.6658 163.271 77.8303 160.152L73.0797 142.418L58.7042 88.7641C56.261 79.6458 53.8463 70.0762 51.256 61.0293ZM70.2243 106.262C73.6081 105.262 77.6242 104.299 81.0835 103.373L104.179 97.1867L119.002 93.214C121.47 92.5521 124.825 91.5365 127.258 91.0724L117.506 85.0424C114.159 83.0089 110.381 80.5029 107.047 78.6376C107.792 76.6233 110.132 72.7304 111.217 70.687C112.763 67.7252 114.346 64.7823 115.964 61.859C116.591 60.7031 117.596 58.6099 118.316 57.6749L77.9039 68.4935L66.7332 71.4962C65.5079 71.8262 62.3493 72.7692 61.2952 72.8835C64.1284 83.9677 67.2559 95.1969 70.2243 106.262Z" fill="black"/>
</g>
</g>
<defs>
<clipPath id="clip0_230_5138">
<rect width="150" height="150" fill="white"/>
</clipPath>
<clipPath id="clip1_230_5138">
<rect width="112.5" height="112.5" fill="white" transform="translate(36 65.1171) rotate(-15)"/>
</clipPath>
</defs>
</svg>
