<svg width="512" height="512" viewBox="0 0 512 512" fill="none" xmlns="http://www.w3.org/2000/svg">
<g clip-path="url(#clip0_230_5303)">
<path d="M11.4965 0H500.29C507.145 4.09504 508.23 4.99747 512 12.0344V499.931C508.135 506.88 507.045 508.09 499.927 512H11.9332C4.98345 508.15 3.88873 507.225 0 500.405V11.6721C3.84134 5.127 4.94328 3.80193 11.4965 0ZM32.0163 239.895L183.503 239.995C189.312 239.994 237.519 240.423 239.672 239.557L239.868 239.348C240.847 187.81 239.428 135.244 240.016 83.6205C240.21 66.631 239.718 49.2793 240.117 32.324C190.513 31.7337 140.042 32.1277 90.3715 32.1534L51.844 32.2127C46.9205 32.2273 36.449 32.6316 32.1144 31.9062C31.0022 100.825 32.8357 170.887 32.0163 239.895ZM272.142 271.938C271.663 291.35 272.176 311.269 272.017 330.738C271.61 380.313 272.598 430.371 272.018 479.897L408.727 479.992L455.692 479.988C462.892 479.987 472.89 480.285 479.922 479.917L480.014 337.674C480.013 316.315 479.632 293.629 480.112 272.358L332.138 272.197L292.579 272.256C287.409 272.27 276.719 272.669 272.142 271.938ZM272.12 31.9102C270.951 100.775 272.832 170.913 272.02 239.893L423.224 239.994C429.063 239.994 477.536 240.417 479.669 239.557L479.863 239.348C480.247 220.444 480.016 200.891 480.018 181.947L480.016 82.4675C480.015 66.061 479.733 48.668 480.117 32.3239C430.483 31.738 379.996 32.1273 330.297 32.1537L291.859 32.2124C286.936 32.227 276.454 32.6318 272.12 31.9102ZM32.1353 271.935C31.6974 291.279 32.1789 310.945 32.0169 330.323C31.6016 380.028 32.5822 430.236 32.0163 479.899L168.889 479.992L215.765 479.988C222.929 479.987 232.924 480.283 239.924 479.917L240.016 337.863C240.015 316.433 239.636 293.702 240.111 272.358L91.8885 272.197L52.5595 272.256C47.3892 272.27 36.7108 272.67 32.1353 271.935Z" fill="black"/>
</g>
<defs>
<clipPath id="clip0_230_5303">
<rect width="512" height="512" fill="white"/>
</clipPath>
</defs>
</svg>
