<svg width="512" height="512" viewBox="0 0 512 512" fill="none" xmlns="http://www.w3.org/2000/svg">
<g clip-path="url(#clip0_230_5292)">
<path d="M235.602 0H275.929L276.418 0.148513C281.605 1.67873 289.908 1.86547 295.451 2.82571C305.884 4.63323 316.42 6.85885 326.59 9.7868C391.71 28.6008 446.779 72.345 479.839 131.52C493.13 155.336 502.47 181.151 507.5 207.958C508.455 213.159 511.135 235.081 512 237.632V274.902L511.865 275.358C511.3 277.32 510.96 279.517 510.74 281.555C509.105 296.798 506.56 311.036 502.375 325.813C483.826 390.857 440.398 445.976 381.498 479.225C358.062 492.51 333.472 501.615 307.084 507.22C301.096 508.49 281.017 510.47 277.277 512H236.125C232.714 510.88 218.82 509.215 214.43 508.55C203.99 506.985 193.671 504.695 183.548 501.7C171.172 497.998 159.088 493.381 147.397 487.886C142.152 485.404 132.352 479.892 127.545 478.263C109.77 482.029 86.227 489.084 68.145 493.927L22.7348 506.115C19.0779 507.085 4.1526 510.275 1.96838 512H0V509.615C1.88586 507.055 3.96866 497.141 4.95769 493.408L13.2772 462.208C19.8779 437.613 28.4281 408.747 33.9562 384.221C31.676 378.73 26.8307 370.465 24.0048 364.427C17.2036 349.912 11.79 334.787 7.8365 319.252C5.90855 311.869 4.39954 304.382 3.31672 296.828C2.67954 292.366 1.32194 279.981 0 276.31V235.165C1.09547 232.649 3.48281 212.915 4.50458 207.713C9.2219 182.586 17.754 158.328 29.805 135.781C62.207 74.6355 118.032 29.2535 184.506 10.02C194.91 6.9829 204.947 4.88377 215.604 3.00297C220.318 2.17083 231.176 1.41304 235.18 0.138963L235.602 0ZM66.45 379.198C59.386 408.337 50.4915 440.486 42.4313 469.486L101.661 453.635C108.512 451.794 126.205 446.631 132.413 445.946C138.903 448.693 147.413 454.444 154.239 457.858C174.438 467.986 196.035 475.044 218.317 478.798C280.142 488.042 339.078 475.28 389.65 437.849C438.34 402.206 470.709 348.531 479.513 288.835C488.252 229.648 473.073 169.418 437.329 121.441C401.613 73.235 348.161 41.2479 288.798 32.556C276.231 30.8116 263.547 30.0332 250.861 30.2273C190.879 31.6058 133.9 56.748 92.4495 100.126C50.6715 143.961 28.2161 202.717 30.1101 263.242C31.4728 304.476 44.0353 344.561 66.45 379.198Z" fill="black"/>
<path d="M250.373 128.708C267.07 127.457 283.704 131.85 297.608 141.18C314.138 152.188 325.616 169.314 329.513 188.788C339.052 237.174 303.669 260.318 276.235 293.281C274.438 295.44 272.772 297.263 271.188 299.612C270.616 305.372 270.947 317.809 270.957 323.784C260.916 323.96 250.861 323.544 240.776 323.939C243.572 281.456 232.327 297.696 262.702 263.176C267.88 257.775 273.034 251.711 278.09 246.126C289.869 233.116 300.242 223.614 300.856 204.93C301.246 193.019 296.868 181.446 288.692 172.776C280.74 164.176 269.62 159.196 257.908 158.992C231.421 158.298 211.459 177.274 210.876 203.806C201.49 203.768 189.901 203.419 180.687 203.953C181.915 185.222 186.312 169.562 198.758 154.962C211.682 139.562 230.316 130.083 250.373 128.708Z" fill="black"/>
<path d="M241.026 353.571C251.021 353.266 261.023 353.304 271.014 353.687C270.867 361.201 271.431 374.679 270.734 382.709C270.384 383.118 270.085 383.467 269.837 383.756C260.444 383.741 250.092 383.522 240.779 383.931C241.344 375.33 240.826 362.707 241.026 353.571Z" fill="black"/>
</g>
<defs>
<clipPath id="clip0_230_5292">
<rect width="512" height="512" fill="white"/>
</clipPath>
</defs>
</svg>
