<svg width="512" height="512" viewBox="0 0 512 512" fill="none" xmlns="http://www.w3.org/2000/svg">
<path d="M295.516 0.130267H295.594C296.241 0.865728 297.153 2.48032 298.329 5.44515C298.884 6.84593 299.428 8.32064 299.996 9.92632C300.533 11.4445 301.133 13.1782 301.767 14.7722C302.72 17.1668 304.661 22.2027 307.132 28.6066C309.58 34.9504 312.526 42.5614 315.466 49.9703C318.4 57.3605 321.369 64.6659 323.853 70.37C325.085 73.1997 326.246 75.7637 327.265 77.7952C327.771 78.8048 328.316 79.8171 328.853 80.7132C329.233 81.3463 330.149 82.8546 331.51 84.1522L333.437 85.7415C334.187 86.2613 335.057 86.7596 336.042 87.1744C337.989 87.9929 339.818 88.2531 341.25 88.3208C347.129 88.5962 354.056 87.1952 357.346 86.7576L357.372 86.7315C367.764 85.3042 378.169 83.9498 388.574 82.6412L388.678 82.6151C394.771 81.7946 399.249 81.0229 404.304 80.7914C404.573 80.7798 404.747 80.8174 404.747 80.8174L404.799 80.8435C404.799 80.8435 405.017 81.0293 405.138 81.3906C405.257 81.7501 405.233 82.06 405.19 82.2243C405.172 82.291 405.138 82.3546 405.138 82.3546C405.138 82.3546 405.077 82.415 404.982 82.4848C375.748 103.812 346.426 125.117 317.081 146.289C316.626 146.573 316.197 146.839 315.883 147.045C315.39 147.368 315.052 147.608 314.737 147.801C314.591 147.889 314.476 147.94 314.398 147.983C313.926 148.044 313.971 147.915 314.216 148.035C314.156 147.996 313.732 147.702 313.044 146.68C312.231 145.471 311.428 143.782 310.544 141.574C310.113 140.497 309.7 139.388 309.268 138.213C308.856 137.095 308.401 135.839 307.939 134.67L296.48 105.516C295.088 101.953 292.841 94.855 289.864 89.5453C288.966 87.9452 286.88 84.4688 283.119 82.1201L281.426 81.1822L279.238 80.3485C274.199 78.8371 269.688 80.2791 266.581 82.068C263.138 84.0526 260.384 86.7549 258.403 88.894C257.375 90.0039 256.412 91.1414 255.59 92.0985C254.725 93.1051 254.054 93.9103 253.402 94.6257C252.167 95.9817 249.718 98.7632 246.917 101.947C244.043 105.212 240.623 109.065 237.228 112.785C233.812 116.528 230.529 120.024 227.878 122.607C227.289 123.182 226.708 123.634 226.238 124.066C225.198 123.748 223.892 123.392 222.383 122.841C217.699 121.131 211.742 118.616 205.376 115.885C199.131 113.206 192.467 110.298 186.806 107.965C181.483 105.771 175.85 103.577 172.013 102.806C170.209 102.445 166.117 101.802 161.907 103.223L160.11 103.953C157.843 105.062 155.747 106.719 154.146 109.059C153.396 110.156 152.843 111.25 152.453 112.264L151.672 114.947C150.847 118.635 150.912 122.376 151.073 125.186C151.157 126.652 151.276 128.101 151.385 129.329C151.5 130.618 151.59 131.651 151.646 132.585C151.777 134.786 152.118 138.947 152.479 143.71C152.847 148.561 153.243 154.237 153.573 159.759C153.905 165.318 154.151 170.579 154.172 174.609C154.174 174.991 154.148 175.358 154.146 175.704C152.049 175.9 149.635 176.034 145.994 176.277L124.403 177.736C118.743 178.134 113.604 178.778 109.61 180.185C105.561 181.612 99.4142 185.15 98.671 192.951C98.3788 196.028 99.1227 198.695 99.843 200.559C100.579 202.463 101.578 204.238 102.526 205.769C104.359 208.73 106.987 212.314 109.453 215.748L124.325 236.408C126.216 239.042 127.384 240.825 128.206 242.088C127.662 242.751 127.017 243.538 126.174 244.537C125.102 245.807 123.834 247.336 122.398 249.122C118.217 254.321 113.759 259.339 109.011 264.91C106.696 267.627 104.353 270.437 102.057 273.325L95.4154 282.236C91.6927 287.632 92.4539 293.568 94.4257 297.581C96.2765 301.345 99.5118 304.334 103.177 305.97C109.313 308.703 115.55 311.127 121.59 313.422C127.229 315.563 132.635 317.597 137.946 319.752C137.313 322.337 136.346 325.387 135.212 329.34L124.377 367.065C122.649 373.043 120.307 380.42 118.777 387.361L118.673 387.752L118.621 388.116C117.765 394.047 119.805 400.391 125.002 404.269C130.458 408.338 137.43 408.26 143.103 405.103L152.167 399.554C155.052 397.664 157.798 395.787 160.371 394.083L197.614 369.384L207.303 362.897C209.744 361.283 212.169 359.729 214.596 358.233C214.763 358.321 214.949 358.41 215.143 358.52C216.288 359.17 217.542 360.013 218.971 361.021C220.171 361.868 221.95 363.176 223.399 364.069C230.439 368.407 237.237 373.303 244.781 378.503C252.135 383.571 260.023 388.789 268.43 392.988C272.311 394.926 276.061 394.36 278.405 393.562C280.655 392.794 282.456 391.567 283.666 390.618C286.121 388.69 288.346 386.156 290.047 384.052C293.347 379.969 296.874 374.577 297.287 373.996L316.586 347.161C317.282 346.194 317.977 345.147 318.566 344.269C319.191 343.336 319.757 342.518 320.311 341.742C320.824 341.022 321.315 340.521 321.665 340.1C322.592 340.035 323.878 339.952 325.546 339.996C329.895 340.112 335.414 340.637 341.459 341.22C347.275 341.782 353.613 342.41 358.909 342.575C361.556 342.658 364.298 342.637 366.774 342.367C368.793 342.146 372.536 341.604 375.708 339.371C377.429 338.153 379.287 336.375 380.63 333.847C381.668 331.893 382.183 329.861 382.323 327.881L382.349 325.927C382.098 320.957 380.205 315.798 378.703 312.093C377.889 310.086 377.034 308.094 376.28 306.387C375.494 304.606 374.839 303.182 374.353 301.958L354.95 253.056L349.975 240.759C348.458 236.929 347.048 233.165 345.808 229.426C345.828 229.371 345.855 229.309 345.886 229.243C346.002 228.998 346.149 228.781 346.277 228.644L346.329 228.592C347.22 228.168 347.767 228.056 348.803 228.045H348.882C356.671 227.908 364.396 227.995 372.478 228.019L463.348 228.071C473.27 228.024 483.85 228.111 494.367 227.941C495.867 227.916 496.755 228.306 497.206 228.592C497.678 228.894 497.885 229.213 497.961 229.4C498.029 229.571 497.987 229.712 497.987 229.712L497.023 230.78C496.043 231.481 493.399 232.836 489.47 234.61L479.313 239.091L440.689 256.86L440.559 256.912C439.164 257.576 437.33 258.396 435.063 259.387C432.865 260.348 430.346 261.444 427.875 262.591C424.578 264.122 420.321 266.192 416.832 268.61L413.654 271.137C411.287 273.38 410.475 276.013 410.165 277.494C409.836 279.064 409.828 280.495 409.878 281.506C409.98 283.537 410.406 285.62 410.842 287.368C411.74 290.973 413.218 295.215 414.696 299.144C417.516 306.64 421.453 315.733 422.015 317.147L445.715 376.809C448.239 383.135 450.587 388.496 452.253 393.718C443.368 393.575 434.134 392.121 423.786 390.904L365.238 384.078L365.212 384.052C362.519 383.745 359.747 383.334 355.966 382.854C352.644 382.431 348.683 381.98 345.339 382.02C341.647 382.07 338.923 383.798 337.734 384.625C336.287 385.633 335.047 386.82 334.088 387.83C332.146 389.877 330.237 392.378 328.645 394.63C325.657 398.855 322.22 404.46 321.691 405.26L300.725 436.758L295.178 445.277C294.32 446.59 293.492 447.87 292.625 449.107L289.917 452.729C289.518 453.233 289.026 453.549 288.666 453.745C288.414 453.617 288.079 453.47 287.677 453.25C286.096 452.385 283.972 451.128 281.426 449.524C276.359 446.332 270.019 442.063 263.507 437.592C257.013 433.132 250.436 428.518 244.938 424.643C239.51 420.818 235 417.635 232.801 416.124C231.793 415.431 230.713 414.642 229.467 413.727C228.263 412.843 226.883 411.839 225.482 410.861C222.743 408.948 219.305 406.717 215.507 405.207L213.502 404.504C211.082 403.802 207.505 403.309 203.448 404.947C200.932 405.962 197.95 407.809 195.427 409.454C192.672 411.251 189.576 413.398 186.572 415.551C180.178 420.131 174.832 424.187 171.648 426.415L89.5814 483.836L89.5554 483.862L64.24 501.657C61.5856 503.526 58.2272 506.13 54.1347 508.848C52.198 510.134 50.5088 511.164 49.2123 511.818C49.0515 511.899 48.8954 511.941 48.7696 512C48.1151 511.935 47.6639 511.875 47.3631 511.792C47.2701 510.935 47.3112 509.487 47.7278 507.336C48.1672 505.071 48.8811 502.587 49.7332 499.963C51.0629 495.869 52.553 489.449 53.4576 485.947L53.4836 485.973L74.6839 405.155C75.7615 401.048 79.0613 389.188 81.8202 378.451C83.2261 372.979 84.5709 367.497 85.5445 362.975C86.0296 360.722 86.4318 358.579 86.7165 356.748C86.95 355.247 87.2771 352.935 87.1072 350.834L86.8989 348.333L85.6227 346.197L84.5548 344.712C83.454 343.366 82.2937 342.454 81.6899 342.002C80.6314 341.211 79.4569 340.496 78.3562 339.866C76.1386 338.597 73.3891 337.235 70.4387 335.88C64.4873 333.145 56.8722 330.005 49.2904 326.943C41.5785 323.829 33.955 320.822 27.5432 318.189C24.1848 316.811 21.4567 315.643 19.3912 314.724L15.2241 312.718C14.6323 312.361 14.2693 312.004 14 311.78C14.0636 311.634 14.1326 311.457 14.2344 311.259C14.9992 309.775 16.3957 307.9 18.4276 305.606C19.4029 304.505 20.4245 303.411 21.5008 302.271C22.5329 301.178 23.6805 299.969 24.7043 298.832L24.7304 298.806L54.1868 265.874C58.4187 261.171 65.5187 253.567 69.8136 247.897C72.5699 244.257 72.5783 240.27 72.3399 238.127C72.0836 235.839 71.3565 233.736 70.6991 232.135C69.3606 228.879 67.3331 225.447 65.4381 222.521C61.858 216.996 56.6266 210.172 55.8276 209.026L25.9545 166.194C23.659 162.901 21.7484 160.418 19.4954 157.049C17.8267 154.554 16.7416 152.533 16.0836 151.057L16.1357 150.927C15.8695 151.25 16.3216 150.464 19.9903 149.937C21.7601 149.683 23.7576 149.547 26.0066 149.468C27.9913 149.398 30.709 149.339 32.8303 149.207L76.5071 146.55C77.6577 146.479 85.1365 146.305 90.9097 145.794C93.9649 145.524 97.4122 145.097 100.364 144.388C101.804 144.041 103.61 143.503 105.338 142.642C106.671 141.977 110.177 140.031 111.85 135.79C113.523 131.525 113.956 126.112 114.142 122.32C114.32 118.669 114.335 113.333 114.402 111.404L116.121 63.2314C116.436 54.3392 116.016 47.7574 116.98 40.9037C117.09 40.1281 117.187 39.7231 117.241 39.549C117.438 39.2658 117.59 39.1315 117.658 39.08C119.228 39.1138 122.1 39.8592 126.409 41.6072C128.414 42.4211 130.469 43.323 132.555 44.2646C134.559 45.1688 136.726 46.1687 138.676 46.9742C140.679 47.8018 145.865 50.004 152.74 52.9143C159.56 55.8015 167.94 59.3422 176.206 62.7625C184.46 66.1779 192.68 69.52 199.125 71.9853C202.332 73.212 205.228 74.2554 207.511 75.0075C208.638 75.3788 209.773 75.7403 210.793 75.9976C211.298 76.1246 211.912 76.2581 212.564 76.3623C213.052 76.4403 214.309 76.6306 215.794 76.4926C221.582 75.9502 225.555 72.036 226.394 71.2819C233.124 65.2437 239.76 57.3325 244.885 51.8982L280.176 14.4857C285.271 9.08081 289.772 3.94307 294.37 0C294.964 0.0399998 295.328 0.0676217 295.516 0.130267Z" fill="black"/>
</svg>
