<svg width="512" height="512" viewBox="0 0 512 512" fill="none" xmlns="http://www.w3.org/2000/svg">
<g clip-path="url(#clip0_232_8753)">
<path d="M413.555 0H429.405L429.785 0.17905C433.268 1.79711 437.192 2.73508 441.1 4.49907C451.377 9.13775 459.892 18.5471 463.845 29.0636C468.033 40.4089 467.597 52.945 462.632 63.972C457.45 75.066 448.08 83.653 436.577 87.85C425.639 91.823 412.822 90.713 402.216 86.187C384.27 102.786 363.723 124.322 346.284 141.827C322.377 165.824 296.94 190.361 273.636 214.66C278.824 222.602 282.652 231.178 284.465 240.529C295.169 241.075 306.562 241.028 317.299 240.88C352.786 240.39 388.626 241.552 424.075 240.814C429.389 228.528 437.073 219.126 449.835 214.062C461.055 209.561 473.61 209.752 484.688 214.589C495.276 219.221 504.28 227.899 508.44 238.756C509.765 242.217 510.75 245.978 512 249.236V262.845C509.36 270.891 507.55 277.22 502.175 283.943C480.882 310.59 440.972 305.805 425.798 275.039C425.25 273.932 424.715 272.818 424.195 271.697C392.02 270.699 355.426 271.493 322.969 271.518L299.388 271.57C295.309 271.617 288.656 271.98 284.863 271.572C281.326 281.694 279.719 288.307 273.557 297.475L309.117 333.017C313.102 337.002 323.212 347.582 326.952 350.395C340.463 345.654 352.483 344.443 365.863 350.83C376.698 356.003 385.011 365.298 388.946 376.642C392.833 388.075 392.069 400.578 386.822 411.453C381.49 422.205 372.138 430.424 360.79 434.331C349.509 438.193 337.153 437.388 326.467 432.096C316.435 427.128 306.975 417.236 303.629 406.461C299.451 393.012 301.284 384.692 305.191 371.918C299.864 366.09 256.119 321.847 252.251 319.971C249.26 320.625 245.89 322.594 243.034 323.906C237.727 326.344 231.889 328.857 226.142 329.996C225.13 359.671 225.969 393.944 225.983 423.969C239.01 430.214 248.475 437.78 253.452 451.923C257.384 463.167 256.698 475.511 251.542 486.249C245.466 498.75 235.289 506.635 222.242 510.57C221.092 510.915 219.806 511.335 218.827 512H203.12C201.876 511.33 198.09 510.015 196.697 509.575C163.286 499.038 155.102 455.66 181.08 432.707C186.016 428.345 189.678 426.624 195.725 423.9C196.294 414.52 195.87 400.659 195.874 390.85L195.825 330.253C184.08 326.742 179.792 324.855 169.103 319.104L119.407 368.698C108.457 379.647 96.5435 391.163 86.0125 402.355C90.7755 412.723 91.5305 424.487 88.132 435.379C84.3835 446.924 76.1985 456.505 65.381 462.01C41.1658 474.47 11.1767 462.053 2.7619 436.901C1.97398 434.546 1.16387 431.618 0 429.474V413.562C0.490122 412.87 1.25179 411.125 1.44978 410.36C6.91655 389.245 26.0665 375.105 47.9096 376.685C54.1105 377.133 58.976 378.615 65.2665 380.608C68.744 375.818 83.281 362.315 88.288 357.096C107.388 337.191 129.035 317.504 147.799 297.424C142.148 288.198 139.7 282.247 137.205 271.758C123.868 270.225 101.469 272.735 88.02 271.571C82.0555 282.965 76.869 290.177 65.122 296.478C43.3123 308.175 15.2535 297.991 4.70366 276.008C2.89175 272.232 1.87135 267.368 0 263.914V247.955C0.7595 246.799 2.46278 241.835 3.02337 240.227C7.0024 228.816 15.6774 219.438 26.9153 214.579C38.0111 209.745 50.582 209.561 61.8145 214.068C74.529 219.19 82.4295 228.151 87.7295 240.523C102.134 241.482 121.799 240.905 136.701 240.901C140.158 229.203 141.808 225.012 147.826 214.499C145.15 211.4 139.765 206.316 136.742 203.29L115.318 181.867C99.119 165.673 81.3 147.07 64.7145 131.501C40.6325 140.01 18.0203 134.67 4.78141 110.663C2.7501 106.979 2.05591 102.314 0.165372 98.6555L0 98.342V82.166C0.875785 80.893 3.34934 73.7455 4.19682 71.7335C8.61595 61.1635 17.1053 52.818 27.7495 48.5805C38.9667 43.9717 51.5635 44.0524 62.7205 48.8048C73.725 53.453 82.4495 62.258 86.997 73.305C91.8965 85.453 91.017 97.9235 86.0005 109.829C103.908 129.164 124.686 147.71 143.008 166.881C150.819 175.054 160.911 185.497 169.381 192.852C179.577 186.969 184.57 184.946 195.868 182.012C195.883 171.042 196.07 159.519 195.717 148.594C184.944 143.07 177.634 138.296 171.331 127.547C165.476 117.561 164.385 104.031 167.46 92.96C170.595 81.529 178.174 71.8275 188.508 66.02C199.139 60.1675 211.652 58.7575 223.319 62.0965C234.894 65.407 244.667 73.204 250.465 83.7545C256.195 94.3945 257.479 106.87 254.036 118.454C249.434 133.866 239.51 141.268 226.15 148.442C225.548 157.463 225.956 172.508 225.958 181.969C229.981 182.975 233.928 184.265 237.769 185.828C242.148 187.59 247.635 190.699 252.19 191.934C253.025 192.161 254.969 190.385 255.673 189.689C266.401 179.064 277.138 168.271 287.809 157.598L352.171 93.2195C360.938 84.452 371.729 73.0865 380.716 64.9405L380.486 64.397C371.051 41.8005 379.113 15.9804 401.263 4.67953C404.835 2.85682 409.68 1.60664 413.555 0ZM216.751 300.654C241.335 297.365 258.629 274.814 255.43 250.218C252.23 225.622 229.742 208.247 205.135 211.356C180.401 214.482 162.914 237.112 166.13 261.835C169.346 286.557 192.04 303.96 216.751 300.654ZM214.258 481.311C222.188 479.421 227.131 471.514 225.356 463.557C223.582 455.6 215.748 450.542 207.766 452.199C202.498 453.294 198.227 457.141 196.59 462.267C194.953 467.392 196.204 473.002 199.864 476.947C203.523 480.891 209.024 482.559 214.258 481.311ZM424.875 59.727C430.111 58.5545 434.314 54.6595 435.88 49.5275C437.447 44.3957 436.135 38.818 432.446 34.9216C428.758 31.0252 423.259 29.4108 418.05 30.6942C410.112 32.6493 405.228 40.6297 407.099 48.5872C408.97 56.5445 416.898 61.513 424.875 59.727ZM342.103 377.27C334.264 379.575 329.747 387.767 331.981 395.626C334.215 403.486 342.365 408.078 350.245 405.917C358.228 403.727 362.892 395.447 360.629 387.484C358.366 379.522 350.044 374.934 342.103 377.27ZM44.521 75.4745C36.2942 75.805 29.8961 82.7475 30.2374 90.974C30.5787 99.2005 37.53 105.59 45.7559 105.237C53.9665 104.885 60.3405 97.95 60 89.7395C59.659 81.5285 52.7325 75.145 44.521 75.4745ZM47.7828 436.337C53.0865 435.376 57.458 431.626 59.213 426.53C60.9685 421.434 59.8345 415.786 56.2475 411.763C52.6605 407.74 47.1799 405.967 41.9164 407.129C33.989 408.879 28.9212 416.652 30.5198 424.612C32.1184 432.571 39.7948 437.785 47.7828 436.337ZM41.238 241.645C33.4395 243.751 28.7402 251.689 30.6438 259.539C32.5474 267.389 40.3605 272.293 48.2575 270.592C53.551 269.453 57.809 265.531 59.38 260.35C60.9505 255.168 59.5865 249.542 55.8165 245.656C52.047 241.769 46.4653 240.234 41.238 241.645ZM462.773 241.682C454.862 243.9 450.238 252.104 452.439 260.021C454.64 267.938 462.835 272.578 470.756 270.394C478.701 268.204 483.358 259.979 481.151 252.038C478.944 244.098 470.709 239.458 462.773 241.682ZM209.732 90.566C204.373 90.952 199.636 94.191 197.333 99.0445C195.03 103.898 195.517 109.616 198.607 114.011C201.697 118.406 206.913 120.798 212.259 120.273C220.378 119.476 226.348 112.301 225.656 104.173C224.965 96.0435 217.868 89.9805 209.732 90.566Z" fill="black"/>
</g>
<defs>
<clipPath id="clip0_232_8753">
<rect width="512" height="512" fill="white"/>
</clipPath>
</defs>
</svg>
