<svg width="512" height="512" viewBox="0 0 512 512" fill="none" xmlns="http://www.w3.org/2000/svg">
<g clip-path="url(#clip0_232_8747)">
<path d="M0 0H263.436L349.151 85.71L376.336 112.825C380.891 117.354 388.044 124.041 391.918 128.816C392.964 158.938 391.462 190.871 392.116 221.129C418.702 234.741 437.685 254.881 446.97 283.671C455.476 309.949 453.264 338.523 440.815 363.18C438.552 367.599 433.565 375.197 432.039 379.188C434.232 382.519 448.715 396.693 452.147 400.159L490.565 438.906C497.047 445.444 505.765 453.784 511.715 460.516C506.035 466.162 495.562 475.931 490.671 481.659L435.909 426.48C430.497 421.022 414.772 404.362 409.515 400.438C403.491 404.576 398.633 407.325 392.346 410.996C391.626 420.177 392.23 432.661 392.083 442.129C391.726 465.201 392.557 488.979 392.053 512H0V0ZM30.0278 481.949L362.107 482.022C361.997 462.155 361.647 439.908 362.232 420.185C347.256 421.449 338.701 421.678 323.513 418.168C320.333 417.433 311.522 414.509 309.871 414.19C282.27 402.575 261.374 383.808 249.943 355.642C239.486 329.687 239.736 300.646 250.639 274.875C261.33 249.443 281.695 229.306 307.246 218.902C325.611 211.51 342.72 209.837 362.177 212.105C361.746 193.08 361.693 169.292 362.214 150.308C337.241 150.122 312.267 150.07 287.293 150.152C274.087 150.138 254.84 149.505 241.992 150.203C242.742 110.539 241.264 69.8565 242.212 30.3132C192.315 29.4193 140.56 30.1485 90.5005 30.1451L51.354 30.1959C46.257 30.2158 34.6297 30.5827 30.1624 29.9245L30.0975 355.938C30.0982 397.119 30.8589 440.946 30.0278 481.949ZM272.318 52.1185C271.202 73.413 272.537 98.1655 272.031 119.948L316.678 120.014C323.618 120.019 333.767 120.325 340.335 119.881C339.601 118.093 273.672 52.586 272.318 52.1185ZM343.206 241.273C301.877 243.436 270.146 278.724 272.37 320.05C274.594 361.375 309.93 393.055 351.252 390.768C392.487 388.487 424.085 353.242 421.865 312.004C419.645 270.766 384.448 239.115 343.206 241.273Z" fill="black"/>
<path d="M61.034 180.713C64.4075 181.177 77.663 180.908 81.7925 180.905L124.748 180.882L272.055 180.934C272.079 185.13 272.74 209.417 271.32 211.243C255.619 212.062 61.427 211.55 60.832 211.304C59.826 207.694 59.34 183.252 61.034 180.713Z" fill="black"/>
<path d="M61.032 360.715C63.9715 361.112 72.961 360.915 76.3155 360.912L106.607 360.895L212.055 360.932C212.079 365.126 212.738 389.418 211.32 391.244C200.621 391.845 62.906 392.027 60.8485 391.29C59.85 387.625 59.315 363.291 61.032 360.715Z" fill="black"/>
<path d="M61.032 240.714C63.981 241.113 73.03 240.915 76.3935 240.912L106.572 240.894L212.058 240.932C212.081 245.126 212.737 269.421 211.32 271.244C200.675 271.838 62.801 271.985 60.854 271.277C59.8495 267.603 59.3115 243.296 61.032 240.714Z" fill="black"/>
<path d="M61.032 300.715C63.9845 301.114 73.028 300.915 76.394 300.912L106.603 300.894L212.055 300.933C212.079 305.067 212.739 329.416 211.319 331.241C200.767 331.831 62.8425 332 60.854 331.277C59.8495 327.604 59.3115 303.296 61.032 300.715Z" fill="black"/>
</g>
<defs>
<clipPath id="clip0_232_8747">
<rect width="512" height="512" fill="white"/>
</clipPath>
</defs>
</svg>
