<svg width="512" height="512" viewBox="0 0 512 512" fill="none" xmlns="http://www.w3.org/2000/svg">
<g clip-path="url(#clip0_232_8755)">
<path d="M92.6675 0H117.291L117.728 0.150938C121.652 1.48135 126.848 2.17777 130.971 3.2194C137.436 4.85287 144.037 7.1296 150.057 9.97365C157.317 13.4398 164.165 17.7105 170.471 22.7055C178.882 29.4032 188.893 40.0241 196.738 47.8782L236.98 88.1565C241.761 92.939 251.562 103.248 256.401 106.939C267.147 94.639 285.322 77.5845 297.401 65.466C309.187 53.6405 327.369 34.4233 339.519 24.1233C344.923 19.5553 350.785 15.5609 357.014 12.2044C365.056 7.89675 373.023 5.1749 381.841 3.03705C384.572 2.37497 392.074 0.849105 394.193 0H418.798L419.232 0.151445C425.271 2.21295 432.758 2.86158 439.864 5.27845C466.383 14.1882 488.323 33.1893 500.93 58.164C505.085 66.4505 507.37 72.9985 509.265 82.023C509.775 84.452 511.325 92.3415 512 94.092V116.845C508.31 128.721 509.05 133.977 503.345 147.15C499.723 155.364 495.073 163.085 489.506 170.126C483.417 177.84 473.505 187.24 466.303 194.444L429.302 231.382C426.156 234.52 405.955 253.578 405.968 256.562C408.828 260.527 421.154 272.339 425.247 276.422L464.656 315.774C472.309 323.425 482.314 332.85 488.911 341.019C493.715 346.972 497.853 353.432 501.25 360.286C505.245 368.397 507.485 374.842 509.295 383.638C509.81 386.159 511.305 393.842 512 395.623V418.349L511.855 418.814C509.835 425.382 509.075 432.694 506.82 439.497C498.274 465.289 480.158 486.819 456.207 499.647C449.574 503.22 443.902 505.75 436.646 507.73C433.367 508.625 421.924 510.9 419.815 512H394.638C392.23 511.035 382.977 509.16 379.96 508.445C369.446 505.915 359.442 501.605 350.378 495.709C336.897 487.115 324.841 473.753 313.451 462.357L275.216 424.06C270.897 419.733 261.073 408.211 256.13 406.301C254.054 405.499 222.956 437.765 219.73 440.996L190.828 469.919C184.578 476.168 177.218 483.91 170.385 489.329C163.704 494.628 156.422 499.121 148.689 502.715C143.626 505.08 138.339 506.93 132.906 508.24C129.636 509.02 120.979 510.785 118.319 512H93.0865C85.888 509.27 76.805 508.935 66.7995 504.825C38.7323 493.862 17.4176 471.778 6.5138 443.81C3.74098 436.698 2.6902 425.103 0 419.414V393.608C1.36609 391.227 3.13399 381.729 3.97467 378.251C10.6123 350.795 28.4374 334.449 47.5438 315.332L87.664 275.242C91.36 271.556 103.987 259.625 105.997 256.165C105.733 253.111 37.7093 187.139 29.9306 178.743C18.3334 166.225 9.94355 154.025 4.55496 136.436C3.0874 131.646 1.65333 121.381 0 117.889V92.134C1.21606 90.0455 3.54352 77.9595 4.54048 74.5465C6.6585 67.295 8.08115 64.029 11.5974 57.1445C23.9487 32.7092 45.445 14.1361 71.4145 5.462C78.393 3.09844 85.853 2.26134 92.2375 0.145081L92.6675 0ZM381.7 477.642C402.001 483.984 422.236 483.354 441.326 473.348C459.086 464.113 472.445 448.197 478.461 429.105C484.368 410.076 482.503 389.482 473.272 371.824C470.33 366.31 466.723 361.178 462.53 356.543C456.339 349.599 385.96 278.775 383.132 277.908C383.022 277.874 382.91 277.848 382.801 277.818C373.296 287.943 362.601 298.436 352.579 308.143C327.176 332.747 302.742 359.176 277.155 383.495L330.75 437.107C338.616 444.991 352.938 460.197 360.94 466.371C367.247 471.161 374.247 474.962 381.7 477.642ZM112.028 481.501C142.335 477.618 152.047 466.001 172.372 445.651L205.836 412.138L316.116 301.857L418.145 199.831L448.292 169.725C453.753 164.269 462.073 156.405 466.605 150.535C478.521 134.934 483.773 115.249 481.215 95.785C478.753 75.7865 468.285 57.642 452.206 45.4992C437.464 34.2196 419.004 28.9251 400.525 30.6761C369.841 34.3749 360.875 44.6399 340.133 65.4385L309.751 95.871L205.181 200.442L97.1615 308.445L65.1275 340.47C59.5125 346.078 50.548 354.585 45.7943 360.579C33.8526 375.638 28.2596 396.679 30.6024 415.731C32.9618 435.596 43.1718 453.691 58.9555 465.981C74.741 478.271 92.246 482.79 112.028 481.501ZM128.759 234.706C133.421 229.048 141.478 221.404 146.846 216.023L204.772 158.13C212.451 150.452 227.012 135.025 234.611 128.728C222.896 115.747 206.192 99.977 193.491 87.2695L170.538 64.322C162.52 56.314 153.866 46.9625 144.252 41.0193C132.329 33.6495 112.997 28.4948 98.947 30.684C77.0675 33.2773 60.1775 40.9554 46.1441 58.6815C33.905 74.3255 28.3016 94.151 30.5413 113.887C31.8824 125.517 35.9356 136.669 42.3745 146.445C48.3148 155.468 57.115 163.524 64.8085 171.213L92.158 198.514L115.079 221.444C118.939 225.302 124.673 231.327 128.759 234.706Z" fill="black"/>
<path d="M276.84 171.392C279.652 172.939 295.364 188.97 298.939 192.607C312.707 206.615 327.295 220.559 340.824 234.736C335.077 241.487 320.812 254.956 314.254 261.508L262.746 312.961C253.972 321.726 243.205 331.884 235.077 340.851C232.133 338.968 216.154 322.819 212.513 319.035C199.181 305.177 183.881 291.169 170.903 277.2C173.901 274.522 177.495 270.486 180.395 267.531L197.489 250.391L245.947 201.922C256.088 191.781 266.401 181.156 276.84 171.392ZM213.444 277.179C217.201 281.003 231.661 296.187 235.289 298.205C239.371 293.589 244.105 288.896 248.532 284.575C265.285 268.224 281.494 251.019 298.424 234.88C295.587 231.99 279.081 214.927 276.85 213.763L213.444 277.179Z" fill="black"/>
<path d="M332.044 116.323C334.602 116.826 350.811 134.068 353.53 136.862C347.185 143.742 338.817 151.016 332.978 158.047C330.606 157.019 314.707 140.462 311.298 137.148C316.16 131.195 326.347 121.428 332.044 116.323Z" fill="black"/>
<path d="M90.8196 357.24C94.4991 358.706 108.119 373.516 112.541 377.444C107.921 383.231 97.4416 393.162 91.8131 398.613C89.4426 398.094 73.0401 380.861 70.2451 377.782C76.8506 371.609 84.0176 363.81 90.8196 357.24Z" fill="black"/>
<path d="M133.274 399.85C136.551 400.747 151.609 416.827 155.065 420.337C150.121 426.182 140.156 435.406 134.434 441.292C132.367 441.045 116.089 423.768 112.886 420.979C115.875 416.552 128.793 404.252 133.274 399.85Z" fill="black"/>
<path d="M374.508 158.83C376.788 159.167 392.791 175.973 395.977 179.027C392.789 183.508 379.93 195.746 375.403 200.22C373.162 199.873 356.634 182.359 353.819 179.497C360.394 172.647 367.529 165.237 374.508 158.83Z" fill="black"/>
<path d="M374.281 73.7959L374.455 73.8259C377.099 74.2644 393.076 91.2064 396.064 94.2364C389.876 101.212 382.114 108.233 375.573 115.183C373.463 114.917 356.758 97.4249 353.88 94.5909C357.816 89.4674 369.267 78.6644 374.281 73.7959Z" fill="black"/>
<path d="M133.395 314.807C136.394 315.573 151.362 331.535 155.067 335.121C149.536 341.482 140.557 349.998 134.461 356.274C131.923 355.378 115.568 338.293 112.812 335.199C119.042 329.735 126.449 321.127 133.395 314.807Z" fill="black"/>
<path d="M416.785 116.33C420.316 117.241 435.324 133.553 438.658 137.003C432.005 143.275 424.489 151.253 417.961 157.819C416.326 157.567 398.908 139.611 396.4 137.15C402.71 130.164 410.091 123.034 416.785 116.33Z" fill="black"/>
<path d="M176.185 357.225C178.6 358.115 194.306 374.471 197.342 377.475C194.893 381.741 181.368 393.799 177.01 398.952C173.868 397.085 158.502 381.222 155.243 377.771C161.045 372.942 169.573 363.159 176.185 357.225Z" fill="black"/>
</g>
<defs>
<clipPath id="clip0_232_8755">
<rect width="512" height="512" fill="white"/>
</clipPath>
</defs>
</svg>
