<svg width="512" height="512" viewBox="0 0 512 512" fill="none" xmlns="http://www.w3.org/2000/svg">
<path d="M305.089 240.901C307.799 227.902 310.026 219.244 316.388 207.221C329.169 182.957 351.089 164.784 377.301 156.721C403.736 148.571 432.33 151.284 456.76 164.263C484.969 179.32 504.95 206.406 510.325 237.955C510.655 239.892 511.27 242.285 511.855 244.152L512 244.611V267.816C511.15 269.788 509.08 279.824 508.415 282.554C505.325 294.672 499.969 306.095 492.625 316.217C476.432 338.894 451.891 354.207 424.405 358.784C397.08 363.04 369.184 356.255 346.866 339.925C324.056 323.425 309.882 299.296 305.456 271.641C296.404 271.085 286.272 272.326 277.625 271.576C276.093 275.662 274.483 280.044 272.557 283.955C264.923 299.313 251.513 311.02 235.264 316.511C219.514 321.722 202.339 320.46 187.52 313.003C169.125 303.765 160.064 290.397 153.813 271.469C145.433 271.439 133.189 272.214 125.555 271.597C118.026 290.487 111.048 303.112 91.735 312.904C76.8215 320.492 59.4825 321.762 43.6227 316.427C26.943 310.895 12.726 298.212 5.53325 282.107C3.42761 277.393 2.22108 270.04 0 265.911V245.99C0.96683 244.427 4.75603 231.331 7.37245 226.235C15.0574 211.566 28.2122 200.516 43.9871 195.479C60.112 190.335 77.6215 191.823 92.647 199.615C110.082 208.699 119.467 222.117 125.234 240.456C132.881 241.265 145.68 240.951 153.68 240.964C154.976 236.863 156.203 233.154 158.032 229.246C165.068 213.866 178.007 201.971 193.923 196.249C209.866 190.499 227.445 191.347 242.76 198.606C262.159 207.817 270.657 221.335 277.567 240.639C286.738 240.904 295.914 240.991 305.089 240.901ZM414.254 329.539C454.913 326.106 485.068 290.328 481.565 249.675C478.064 209.022 442.234 178.928 401.588 182.498C361.038 186.06 331.031 221.785 334.525 262.341C338.018 302.897 373.692 332.964 414.254 329.539ZM220.26 289.097C238.587 286.51 251.318 269.516 248.65 251.201C245.983 232.885 228.934 220.229 210.63 222.976C192.44 225.707 179.878 242.628 182.529 260.83C185.18 279.033 202.046 291.668 220.26 289.097ZM68.2585 289.08C86.5605 286.437 99.2335 269.43 96.5325 251.136C93.832 232.843 76.7845 220.223 58.4995 222.982C40.296 225.728 27.7447 242.683 30.4336 260.895C33.1226 279.107 50.038 291.712 68.2585 289.08Z" fill="black"/>
<path d="M430.666 220.804C433.636 221.624 449.622 237.645 452.774 240.705C447.823 246.844 437.986 256.804 432.341 262.857C421.395 274.597 410.127 287.06 398.956 298.481L382.2 282.927C374.278 275.738 366.393 268.51 358.544 261.242C365.328 253.452 371.47 246.476 378.801 239.222C384.434 244.253 391.988 251.56 397.722 255.912C408.621 244.28 419.308 231.999 430.666 220.804Z" fill="black"/>
</svg>
