<svg width="512" height="512" viewBox="0 0 512 512" fill="none" xmlns="http://www.w3.org/2000/svg">
<path d="M61.0075 0H451.076L450.967 30.1856C443.509 30.0989 427.101 30.7443 420.59 30.1405C417.191 95.7545 397.249 148.391 347.602 192.605C317.534 219.382 278.761 250.225 316.482 289.606C340.294 314.466 366.727 333.969 385.81 363.381C408.007 397.594 420.093 441.069 420.456 481.742C430.705 482.046 441.033 481.79 451.086 482.099C450.817 492.082 451.174 502.06 450.961 512H61.032C60.6885 502.45 60.9485 491.877 60.9135 482.235C70.262 481.696 81.6865 481.981 91.188 481.98C95.8705 421.711 108.063 376.487 151.655 331.806C159.711 323.579 167.989 315.572 176.478 307.793C182.918 301.825 189.335 296.272 195.173 289.779C233.304 249.658 194.602 219.913 163.925 192.323C114.236 147.633 95.18 96.7055 91.449 30.4479C82.151 29.9498 70.157 30.0852 60.8325 30.1026C61.369 22.5935 60.876 8.1364 61.0075 0ZM134.551 99.5965C143.487 100.404 156.687 100.017 166.004 100.015L219.895 99.9985C271.888 99.981 324.926 100.519 376.823 99.975C378.243 96.2225 379.577 92.4385 380.824 88.625C384.5 76.5665 387.112 64.2085 388.629 51.6935C389.449 44.8498 389.824 36.6282 390.833 30.1097C373.797 30.7103 353.486 30.1497 336.126 30.1481L227.602 30.1471L156.995 30.1607C147.832 30.1665 129.685 30.7335 121.336 30.013C122.996 50.658 124.943 70.3615 131.676 90.122C132.694 93.1085 133.79 96.5475 134.551 99.5965ZM125.481 447.863C122.142 460.361 123.268 471.049 121.067 481.85C166.412 482.641 213.757 482.006 259.25 481.993L390.882 482.047C389.903 478.074 389.969 474.065 389.605 469.983C388.965 462.805 388.381 454.491 386.491 447.569C380.906 444.647 370.817 440.82 364.632 438.264L324.601 421.723L290.934 407.729C275.995 401.505 268.649 396.999 252.234 397.779C241.166 398.19 224.884 406.125 214.263 410.517L170.925 428.454L142.551 440.215C137.774 442.196 129.61 445.32 125.481 447.863ZM270.754 260.03C270.49 263.471 269.826 270.029 270.924 273.294C271.564 282.355 271.058 299.53 271.021 309.087C270.946 328.428 271.398 348.828 270.894 368.05C285.749 372.476 304.178 380.605 318.73 386.725C337.699 394.701 357.541 402.41 376.329 410.607C367.345 389.158 360.203 377.719 345.343 360.06C320.075 330.032 279.213 308.413 271.821 267.555C272.29 265.475 271.284 262.238 270.754 260.03ZM315.55 181.165C331.878 166.53 347.314 151.31 359.838 133.24C360.559 132.198 361.332 131.152 362.142 130.178L222.525 130.161C198.749 130.16 173.937 130.531 150.272 130.104C172.571 166.514 208.984 185.719 231.695 220.964C232.688 222.506 233.494 224.301 234.492 225.799C246.965 226.261 264.901 226.31 277.539 225.975C286.312 209.025 301.132 193.61 315.55 181.165ZM240.873 368.392L240.929 294.667C240.935 290.462 241.323 269.465 240.76 266.861C236.312 280.15 233.9 290.266 224.75 301.264C196.964 334.667 158.359 357.97 140.504 399.374C139.608 401.453 135.866 408.32 136.703 410.19C164.088 398.197 192.164 387.374 219.686 375.665C226.643 372.705 233.522 370.211 240.873 368.392Z" fill="black"/>
<path d="M270.753 260.03C271.284 262.238 272.289 265.475 271.82 267.555L271.202 267.539C270.91 269.756 270.908 271.046 270.923 273.294C269.825 270.029 270.489 263.472 270.753 260.03Z" fill="black" fill-opacity="0.843137"/>
</svg>
