<svg width="150" height="150" viewBox="0 0 150 150" fill="none" xmlns="http://www.w3.org/2000/svg">
<g clip-path="url(#clip0_230_5170)">
<rect width="150" height="150" fill="#004455"/>
<g clip-path="url(#clip1_230_5170)">
<path d="M43.1733 63.1951L47.7875 61.9587C48.3929 62.1486 49.0117 62.1715 49.6366 62.2544C50.7895 62.4074 51.9212 62.7278 52.9523 63.2701C53.847 63.7406 56.1362 66.2313 56.7383 66.2584C58.8506 66.3534 67.2952 63.1227 68.3715 63.5347C70.3196 64.2805 75.8175 71.4977 77.2657 71.7731C78.4861 70.8543 79.6169 69.9068 80.8951 69.0516C81.679 68.5269 83.5557 67.6377 83.985 66.8971C84.2047 65.2499 81.2443 55.5535 80.8093 53.1105L87.0385 51.4414C87.532 52.9536 90.2422 63.8112 90.7832 64.2278C90.9447 64.1744 91.0783 64.1555 91.1761 64.0236C93.1218 63.4408 94.8463 62.9618 96.8449 62.5994C96.5655 61.7345 96.2793 60.0225 96.0023 58.9735L94.524 53.4433C94.2373 52.3719 93.764 50.7388 93.6403 49.6725L99.8103 48.0192C100.201 49.0436 100.556 50.5432 100.844 51.6315L102.397 57.4794C102.578 58.1595 103.101 60.2918 103.433 60.8001C103.581 61.0998 103.735 61.3961 103.895 61.689C105.449 61.9779 108.045 61.6763 109.715 61.9341C110.472 62.0509 111.414 62.3111 112.078 62.3552C113.169 61.8977 114.409 52.5369 116.103 50.6428L116.14 50.6013C119.367 49.5306 122.844 48.9176 126.07 47.8079C127.187 47.4237 127.52 47.4128 127.829 46.2199C127.969 45.6789 128.223 44.915 128.435 44.4051C128.715 43.7387 129.055 43.0989 129.449 42.4932C130.311 41.198 132.235 39.9951 132.622 39.2273L137.34 37.9633C138.719 38.4633 140.612 38.2262 142.048 39.1433C142.909 39.6929 143.824 40.1517 144.572 40.9024C145.184 41.4842 145.722 42.7171 146.569 43.0991L147.927 48.1675C147.521 48.9494 147.373 50.4646 147.077 51.374C146.115 54.3194 143.775 56.4988 140.896 57.5138C138.451 58.3816 135.759 58.2325 133.425 57.0996C131.423 56.129 130.737 55.3778 129.287 53.7903C127.819 54.1928 122.197 55.5367 121.341 56.2827C120.953 57.0355 119.405 62.9847 119.432 63.8338C120.03 65.1068 122.571 65.2051 123.585 65.8292C125.354 66.9172 127.113 67.9855 128.894 69.0611C130.632 70.1573 132.161 71.5235 133.7 72.848C133.82 72.9518 134.328 72.9577 134.504 72.92C140.353 71.6663 146.105 69.8871 151.897 68.3872C152.336 68.2734 152.815 68.1448 153.241 68.0006L154.943 74.3502C152.596 75.1017 140.546 77.9652 139.361 78.8155C139.314 79.1076 140.585 80.7743 140.797 81.135C142.133 83.4105 145.022 88.024 145.488 90.5048C149.632 89.3576 154.282 88.2801 158.337 87.0177L160.101 93.6033C157.375 94.03 153.523 95.4284 150.719 96.0609C149.653 96.3011 148.417 96.7884 147.334 96.8787C148.42 101.234 148.111 105.98 147.681 110.411C148.999 110.255 151.585 109.532 152.969 109.172L163.517 106.349L165.219 112.703C160.948 114.044 156.422 115.057 152.113 116.295C150.384 116.792 147.599 117.468 145.98 118.12C145.33 119.601 144.806 121.205 144.217 122.539C143.564 124.02 142.124 126.531 141.314 127.981C140.561 129.33 138.493 131.42 137.757 132.917C138.24 133.687 142.824 138.493 143.469 138.94C144.406 139.026 150.216 137.239 151.523 136.916C152.355 133.592 153.201 131.07 156.344 129.265C160.257 127.018 165.292 126.964 168.504 130.447C169.091 131.085 169.845 132.37 170.569 132.669L171.944 137.801C171.664 138.378 171.54 139.023 171.395 139.636C171.044 141.112 170.514 142.575 169.547 143.764C168.728 144.817 167.42 145.607 166.663 146.575L161.607 147.929C161.22 147.748 160.032 147.486 159.497 147.347C157.163 146.74 154.745 145.287 153.306 143.306C151.048 144.122 148.405 144.602 146.091 145.332C144.816 145.734 143.244 146.144 141.943 146.4C141.546 146.148 140.831 145.853 140.505 145.554C137.781 143.056 135.288 140.257 132.566 137.755C131.011 139.669 127.713 141.232 125.793 142.639C125.767 145.367 126.54 147.568 127.243 150.186L129 156.666L122.741 158.344C122.306 157.366 122.087 156.211 121.788 155.176C121.038 152.59 120.499 149.925 119.547 147.404C119.381 146.965 119.042 146.251 119.099 145.803C118.703 145.586 113.929 147.043 112.999 147.222C112.72 147.943 115.885 158.476 116.207 160.094L109.904 161.783C109.471 160.836 109.046 158.805 108.751 157.737C107.861 154.518 106.963 151.32 105.818 148.178C105.701 147.857 103.452 147.901 103.008 147.88C101.063 147.786 99.3168 147.638 97.4162 147.19C96.2102 150.799 95.5757 155.514 93.953 158.908C93.5701 159.71 86.4608 161.131 85.2529 161.642C84.8697 161.804 82.8245 162.34 82.2735 162.438C81.4148 165.102 81.0594 166.901 78.9024 168.88C78.3763 169.363 77.4477 170.036 77.0907 170.575L72.1354 171.903C71.7282 171.722 70.9237 171.55 70.4566 171.434C68.4422 170.932 66.4725 170.128 64.9889 168.63C64.4188 168.054 63.9836 167.129 63.2337 166.755L61.9054 161.798C62.199 161.145 62.3396 160.07 62.4911 159.342C62.9501 157.139 64.3633 154.881 66.2498 153.623C68.5411 152.094 71.8271 151.258 74.5646 151.804C76.5686 152.204 79.3291 154.369 80.4531 156.03C82.7462 155.256 85.5949 154.717 87.8433 153.974C88.8027 153.656 90.3346 146.544 90.4474 145.533C88.8415 144.768 87.1931 144.181 85.618 143.364C83.0294 142.02 80.6753 140.734 78.4452 138.835C77.6087 138.123 76.6701 137.582 75.9184 136.727C75.1682 136.959 74.2268 137.202 73.4607 137.375C67.886 138.635 62.1277 140.724 56.5543 141.827L54.8639 135.518C57.0981 134.777 69.5161 131.785 70.388 130.888C69.9026 129.887 69.0282 128.84 68.4416 127.875C67.0077 125.515 64.9513 121.821 64.2487 119.204C60.0078 120.43 55.6665 121.449 51.4208 122.668L49.6695 116.133C53.553 115.304 58.6593 113.763 62.5809 112.706C61.3561 107.948 61.8959 104.009 62.0599 99.3294C58.6691 100.204 55.2831 101.097 51.9022 102.009C50.1178 102.483 48.0478 103.107 46.2624 103.417L44.6107 97.2529C45.3865 96.8841 47.701 96.316 48.623 96.0692L57.8407 93.6046C58.9536 93.3066 63.5282 92.2964 63.916 91.3017C64.9579 88.6282 65.6892 86.4487 67.2068 83.9756C68.5635 81.7649 69.7317 79.6737 71.4813 77.6959C71.5371 77.3621 71.6403 76.9483 71.7146 76.6106C70.9288 75.4928 70.0409 74.4503 69.0625 73.4964C68.1727 72.6283 67.0792 71.7347 66.355 70.7492C63.633 71.3471 60.9408 72.0727 58.2871 72.9235C57.8699 73.797 57.6641 75.2779 57.0892 76.5204C56.0154 78.7894 54.084 80.5388 51.7201 81.3836C48.0727 82.7174 43.9573 81.995 41.2147 79.1824C40.7029 78.6576 39.7672 77.4219 39.2378 77.2007L37.9127 72.2556C38.1105 71.8507 38.3161 70.6032 38.3804 70.1263C38.5979 68.5142 39.3596 67.3388 40.2423 66.0111C41.0023 64.868 42.2784 64.2489 43.1328 63.2583C43.1463 63.2372 43.1598 63.2161 43.1733 63.1951ZM116.109 139.326C135.181 133.127 145.594 112.618 139.345 93.5625C133.096 74.5065 112.56 64.1471 93.5205 70.4461C74.551 76.7217 64.2382 97.1653 70.4643 116.151C76.6905 135.137 97.107 145.503 116.109 139.326ZM138.746 51.1077C139.916 50.6703 140.722 49.5886 140.806 48.3424C140.879 47.2503 140.386 46.1972 139.5 45.5545C138.614 44.9118 137.46 44.7698 136.444 45.1785C134.829 45.8288 134.037 47.6568 134.667 49.2798C135.297 50.9029 137.116 51.7177 138.746 51.1077ZM71.3475 158.626C70.3936 158.942 69.7084 159.383 69.2409 160.342C68.8886 161.061 68.8471 161.894 69.1263 162.645C69.7798 164.43 71.3074 164.926 73.0377 164.812C74.997 163.835 74.9633 163.019 75.2791 160.992C74.5203 159.718 73.7712 158.29 72.0548 158.484C71.8496 158.507 71.5163 158.512 71.3475 158.626ZM49.2175 75.2904C50.9983 73.9811 50.7617 73.391 51.4195 71.8003C50.4339 69.9777 49.6815 68.4728 47.2883 68.9362C44.9814 70.2881 44.5906 71.4755 45.4306 73.9686C46.6735 75.2102 47.4912 75.2135 49.2175 75.2904ZM162.71 140.703C165.288 139.245 165.054 137.444 163.796 135.16C162.892 134.632 161.567 134.267 160.558 134.695C159.288 135.379 159.346 135.513 158.546 136.685C158.521 136.986 158.496 137.295 158.483 137.593C158.414 139.229 159.909 141.012 161.621 140.912C162.054 140.887 162.31 140.829 162.71 140.703Z" fill="white"/>
<path d="M83.2267 96.9869C84.7348 96.4592 86.9813 96.3126 88.5284 96.6962C92.5617 97.6962 94.8807 100.652 95.8397 104.528C97.0298 109.338 98.3899 113.908 99.6375 118.682C99.7295 119.034 99.7861 119.466 99.7139 119.819C99.2147 120.299 94.4415 121.61 93.8451 121.396C93.2357 120.661 91.7995 116.492 91.7484 115.339C90.8635 115.593 89.8687 115.808 88.9491 116.062C87.854 116.45 86.7619 116.722 85.644 117.035C85.7812 118.604 87.088 122.08 86.9484 123.267C86.5055 123.75 81.6335 125.056 80.9135 124.794C80.1867 124.058 78.5885 117.437 78.2507 116.104C77.546 113.323 76.3752 109.956 76.161 107.135C75.7998 102.379 78.7881 98.474 83.2267 96.9869ZM83.7912 110.558C84.9637 110.213 86.1403 109.883 87.321 109.567L90.0787 108.832C88.8487 106.29 89.1903 102.213 84.8431 103.465C81.7648 105.677 83.0705 107.527 83.7912 110.558Z" fill="#FEFEFE"/>
<path d="M99.7651 92.5633C101.308 92.0965 102.9 91.7051 104.449 91.2519C107.133 90.4667 111.084 89.2988 113.845 90.5108C122.444 94.2851 122.907 104.97 114.183 109.198C112.778 109.661 111.456 110.255 109.987 110.369C110.285 111.511 111.73 115.97 111.378 116.753C110.627 117.221 106.05 118.45 105.183 118.4C104.289 117.353 99.0174 96.2547 98.158 93.1535C98.7341 92.9043 99.1736 92.7565 99.7651 92.5633ZM108.168 103.999C109.881 103.506 111.979 103.132 113.136 101.757C113.356 100.994 113.607 100.25 113.645 99.4572C111.151 94.9243 110.061 97.3813 106.577 97.5962C107.058 99.4181 107.911 102.233 108.168 103.999Z" fill="#FEFEFE"/>
<path d="M121.84 86.7044C122.74 86.3774 126.899 85.0287 127.729 85.2848C128.236 85.7558 128.669 87.554 128.887 88.3025C130.497 95.5402 132.961 103.11 134.746 110.336C134.24 111.115 130.431 111.856 129.399 112.074C129.144 112.126 128.888 112.174 128.631 112.217C127.096 108.071 125.87 102.679 124.672 98.3524C123.726 94.934 122.201 90.0679 121.84 86.7044Z" fill="#FEFEFE"/>
<path d="M128.887 88.3025C128.891 87.8948 128.887 87.4871 128.874 87.0796C129.103 87.7636 129.225 88.0413 129.557 88.683C129.845 89.4499 130.063 90.6355 130.286 91.4748L131.871 97.2606L133.707 104.312C134.205 106.149 134.944 107.596 134.711 109.469C134.677 109.736 134.958 109.936 134.746 110.336C132.961 103.11 130.497 95.5402 128.887 88.3025Z" fill="#FEFEFE" fill-opacity="0.0313725"/>
<path d="M87.0386 51.4414L87.7082 51.262C87.6328 51.962 87.9167 52.3072 88.0719 52.9391C88.7221 55.5879 89.6584 58.2037 90.2547 60.8582C90.3731 61.3851 91.0399 63.6616 90.9949 64.0027L91.1761 64.0236C91.0784 64.1555 90.9448 64.1744 90.7833 64.2278C90.2423 63.8112 87.532 52.9536 87.0386 51.4414Z" fill="#FEFEFE" fill-opacity="0.0235294"/>
<path d="M116.207 160.094C115.885 158.476 112.72 147.943 112.998 147.222C113.283 147.835 113.733 148.416 113.954 149.244C114.868 152.666 115.727 156.238 116.631 159.671C116.769 159.757 116.886 159.829 116.979 159.887L116.207 160.094Z" fill="#FEFEFE" fill-opacity="0.0235294"/>
<path d="M125.793 142.639C126.273 144.042 126.583 145.567 126.957 147.014C127.642 149.67 128.454 152.311 128.994 155.001C129.138 155.72 129.144 155.891 129.529 156.525L129 156.666L127.243 150.186C126.54 147.568 125.767 145.367 125.793 142.639Z" fill="#FEFEFE" fill-opacity="0.152941"/>
<path d="M103.433 60.8001C103.344 60.1191 102.881 58.6349 102.679 57.9235C102.279 56.513 101.894 55.0983 101.525 53.6795C101.355 53.0267 101.173 51.9082 100.984 51.3535C101.17 52.007 101.429 52.7342 101.628 53.4154C101.309 52.215 100.845 50.6084 100.804 49.3928L102.746 56.5566C103.018 57.5709 103.866 60.751 103.895 61.689C103.735 61.3961 103.581 61.0998 103.433 60.8001Z" fill="#FEFEFE" fill-opacity="0.141176"/>
<path d="M99.8101 48.0192L100.323 47.8818C100.556 48.464 100.65 48.7978 100.804 49.3928C100.845 50.6084 101.309 52.215 101.628 53.4154C101.429 52.7342 101.17 52.0069 100.984 51.3535C101.173 51.9082 101.355 53.0267 101.525 53.6795C101.894 55.0983 102.279 56.513 102.679 57.9235C102.881 58.6349 103.344 60.1191 103.433 60.8001C103.1 60.2918 102.578 58.1595 102.396 57.4794L100.844 51.6315C100.555 50.5432 100.201 49.0436 99.8101 48.0192Z" fill="#FEFEFE" fill-opacity="0.160784"/>
</g>
</g>
<defs>
<clipPath id="clip0_230_5170">
<rect width="150" height="150" fill="white"/>
</clipPath>
<clipPath id="clip1_230_5170">
<rect width="112.5" height="112.5" fill="white" transform="translate(36 65.1171) rotate(-15)"/>
</clipPath>
</defs>
</svg>
