<svg width="150" height="150" viewBox="0 0 150 150" fill="none" xmlns="http://www.w3.org/2000/svg">
<g clip-path="url(#clip0_230_5364)">
<rect width="150" height="150" fill="#FFCC00"/>
<g clip-path="url(#clip1_230_5364)">
<path d="M37.761 71.6889L111.241 52.0059L134.405 45.799L142.082 43.7417C143.503 43.3607 145.007 42.9314 146.433 42.5903L172.025 138.103L99.4591 157.549L75.179 164.055L67.3476 166.154C66.1281 166.482 64.5581 166.962 63.358 167.218L37.761 71.6889ZM68.0143 159.12L143.907 138.793L158.733 134.821C159.347 134.656 163.707 133.535 163.896 133.398L163.915 133.361C163.341 131.14 162.753 128.924 162.151 126.711L159.091 115.294L149.872 80.8917L146.813 69.4732C146.291 67.5256 145.664 65.3677 145.202 63.4184C137.163 65.469 129.021 67.7349 120.999 69.8845L75.6738 82.0293L56.8576 87.0712L51.7216 88.4523C51.133 88.611 49.777 89.0252 49.2579 89.0789C49.9271 91.7445 50.6906 94.4677 51.4044 97.1275L55.154 111.118L68.0143 159.12ZM47.5413 82.7137L123.39 62.3987L138.262 58.4136C138.835 58.2601 143.244 57.1217 143.422 56.9917L143.442 56.9545C142.927 54.8622 142.292 52.7659 141.79 50.6841C133.761 52.7323 125.629 54.9953 117.616 57.1424L72.2431 69.2999L53.445 74.337L48.3093 75.7179C47.7213 75.8765 46.3641 76.291 45.8457 76.3444C46.3797 78.475 46.9944 80.5894 47.5413 82.7137Z" fill="black"/>
<path d="M89.3866 85.1628C91.5 84.5837 93.6177 84.0198 95.7393 83.4714L104.266 115.285L110.624 113.587C109.096 107.62 107.394 101.659 105.841 95.6966C105.193 93.2078 104.418 90.6095 103.827 88.1179L114.658 85.2113C117.406 84.4652 120.159 83.7328 122.914 83.0142L126.323 95.726C130.568 94.6292 134.814 93.4054 139.061 92.3366L147.587 124.15C149.661 123.611 151.846 123.048 153.901 122.46C153.747 123.002 155.605 128.281 155.376 128.739C153.625 129.33 151.716 129.796 149.918 130.277L141.469 132.543L115.129 139.599L108.124 141.472C107.629 141.604 105.185 142.215 104.844 142.418L104.76 142.434C104.642 142.304 101.47 130.322 101.231 129.428L93.4241 100.295L90.8319 90.6228C90.3547 88.8421 89.8128 86.9494 89.3866 85.1628ZM128.454 129.214C127.607 125.784 126.6 122.228 125.683 118.807L120.584 99.7812C119.823 96.939 118.972 93.9557 118.272 91.1073C116.899 91.4568 115.529 91.8196 114.163 92.1955C113.612 92.345 112.396 92.7167 111.893 92.7688C112.799 96.3706 113.836 100.064 114.8 103.661L122.119 130.974C122.608 130.845 128.357 129.374 128.454 129.214ZM134.853 127.562C135.343 127.433 141.092 125.961 141.189 125.802C140.614 123.473 139.942 121.082 139.32 118.761L136.013 106.424C135.485 104.453 134.903 102.405 134.419 100.429C133.025 100.784 131.635 101.152 130.249 101.534C129.702 101.682 128.542 102.039 128.039 102.091C130.164 110.563 132.676 119.085 134.853 127.562ZM109.384 134.386C109.874 134.257 115.622 132.786 115.72 132.626C114.686 128.438 113.351 124.152 112.362 119.988C110.961 120.345 109.563 120.715 108.169 121.099C107.626 121.247 106.483 121.598 105.983 121.65C107.051 125.896 108.296 130.143 109.384 134.386Z" fill="black"/>
<path d="M64.1569 119.221L82.192 114.385C84.6258 113.734 87.1416 113.093 89.5601 112.403C89.5512 112.436 89.5407 112.469 89.5333 112.503C89.4312 112.968 91.2351 118.112 91.0378 118.681C88.8355 119.427 85.9786 120.114 83.6907 120.727L71.2293 124.065C70.4688 124.268 66.3868 125.269 65.9717 125.536L65.8987 125.554C65.7282 125.402 64.3326 119.908 64.1569 119.221Z" fill="black"/>
<path d="M57.3385 93.7501L75.0203 89.0096C77.5724 88.3262 80.2046 87.6563 82.736 86.9339C82.583 87.471 84.4365 92.7528 84.2137 93.2121C82.0109 93.9585 79.1548 94.6447 76.8665 95.2581L64.4052 98.5961C63.6449 98.7995 59.5622 99.8002 59.1476 100.067L59.0745 100.085C58.904 99.9328 57.5027 94.4433 57.3385 93.7501Z" fill="black"/>
<path d="M60.7506 106.484L78.483 101.73C81.0213 101.051 83.6289 100.387 86.148 99.6682C86.1391 99.7017 86.1286 99.7349 86.1212 99.7687C86.0267 100.198 87.8213 105.433 87.6257 105.946C85.423 106.693 82.5667 107.379 80.2786 107.992L67.8172 111.33C67.0569 111.534 62.9742 112.535 62.5596 112.802L62.4865 112.819C62.3164 112.668 60.9146 107.177 60.7506 106.484Z" fill="black"/>
<path d="M67.575 131.953L85.3402 127.19C87.8611 126.515 90.4671 125.852 92.9724 125.137C92.9635 125.171 92.953 125.203 92.9456 125.237C92.8495 125.674 94.665 130.973 94.4501 131.415C92.2474 132.162 89.3912 132.848 87.103 133.461L74.6416 136.799C73.8814 137.003 69.7986 138.003 69.3841 138.271L69.3109 138.288C69.1391 138.135 67.7428 132.66 67.575 131.953Z" fill="black"/>
<path d="M70.9872 144.688L88.6655 139.948C91.2144 139.266 93.856 138.593 96.3846 137.871C96.3757 137.905 96.3652 137.938 96.3578 137.972C96.2613 138.41 98.0769 143.708 97.8623 144.15C95.6597 144.896 92.8035 145.582 90.5152 146.196L78.0538 149.533C77.2936 149.737 73.211 150.738 72.7963 151.005L72.7232 151.023C72.5509 150.869 71.1553 145.395 70.9872 144.688Z" fill="black"/>
<path d="M153.901 122.46C154.132 122.446 154.056 122.405 154.187 122.512C154.782 124.359 155.37 126.855 155.88 128.774L120.481 138.267L109.792 141.132L106.696 141.966C106.224 142.093 105.307 142.362 104.844 142.418C105.185 142.215 107.629 141.604 108.124 141.472L115.129 139.599L141.469 132.543L149.918 130.277C151.716 129.796 153.625 129.33 155.377 128.739C155.605 128.281 153.747 123.002 153.901 122.46Z" fill="black"/>
<path d="M96.3845 137.871C96.6151 137.858 96.539 137.816 96.6696 137.923C97.2652 139.77 97.8523 142.267 98.3633 144.185L80.7249 148.919L75.4928 150.326C74.9009 150.486 73.3448 150.938 72.7962 151.005C73.2108 150.738 77.2934 149.737 78.0536 149.533L90.515 146.196C92.8033 145.582 95.6595 144.896 97.8622 144.15C98.0768 143.708 96.2611 138.41 96.3576 137.972C96.3651 137.938 96.3756 137.905 96.3845 137.871Z" fill="black"/>
<path d="M92.9724 125.137C93.2029 125.123 93.1268 125.082 93.2575 125.189C93.853 127.036 94.4398 129.533 94.9508 131.451L77.3129 136.185L72.0806 137.592C71.4887 137.751 69.9328 138.204 69.384 138.271C69.7986 138.003 73.8813 137.003 74.6415 136.799L87.1029 133.461C89.3912 132.848 92.2474 132.162 94.45 131.415C94.6649 130.973 92.8495 125.674 92.9455 125.237C92.953 125.203 92.9635 125.171 92.9724 125.137Z" fill="black"/>
<path d="M86.1481 99.6682C86.3787 99.6547 86.3026 99.6133 86.4332 99.7201C87.0288 101.567 87.6159 104.064 88.1268 105.982L70.4886 110.716L65.2563 112.123C64.6646 112.282 63.1084 112.735 62.5597 112.802C62.9744 112.535 67.057 111.534 67.8173 111.33L80.2787 107.992C82.5669 107.379 85.4231 106.693 87.6258 105.946C87.8215 105.433 86.0269 100.198 86.1213 99.7687C86.1287 99.7349 86.1392 99.7017 86.1481 99.6682Z" fill="black"/>
<path d="M82.736 86.9339C82.9665 86.9204 82.8904 86.879 83.0211 86.9858C83.6167 88.8329 84.2037 91.3294 84.7147 93.2475L67.0764 97.9819L61.8443 99.3888C61.2523 99.548 59.6964 100.001 59.1476 100.067C59.5622 99.8002 63.645 98.7995 64.4052 98.5961L76.8666 95.2581C79.1549 94.6447 82.0109 93.9585 84.2138 93.2121C84.4366 92.7528 82.583 87.471 82.736 86.9339Z" fill="black"/>
<path d="M89.5602 112.403C89.7909 112.389 89.7147 112.347 89.8454 112.455C90.4408 114.3 91.0281 116.799 91.5388 118.717L73.9007 123.451L68.6686 124.858C68.0771 125.017 66.5201 125.47 65.9718 125.536C66.3869 125.269 70.469 124.268 71.2294 124.065L83.6908 120.727C85.9788 120.114 88.8356 119.427 91.0379 118.681C91.2352 118.112 89.4313 112.968 89.5334 112.503C89.5408 112.469 89.5513 112.436 89.5602 112.403Z" fill="black"/>
</g>
</g>
<defs>
<clipPath id="clip0_230_5364">
<rect width="150" height="150" fill="white"/>
</clipPath>
<clipPath id="clip1_230_5364">
<rect width="112.5" height="112.5" fill="white" transform="translate(36 65.1171) rotate(-15)"/>
</clipPath>
</defs>
</svg>
