<svg width="150" height="150" viewBox="0 0 150 150" fill="none" xmlns="http://www.w3.org/2000/svg">
<g clip-path="url(#clip0_227_672)">
<rect width="150" height="150" fill="#FFCC00"/>
<g clip-path="url(#clip1_227_672)">
<path d="M86.0041 51.7186L94.563 49.4252L94.6752 49.429C95.8631 49.4587 97.6361 49.0261 98.8671 48.9147C101.184 48.705 103.547 48.5782 105.872 48.6213C120.763 48.911 134.939 55.0635 145.32 65.7428C149.496 70.0416 152.946 74.9893 155.538 80.3927C156.036 81.4423 157.852 85.9426 158.181 86.4348L160.3 94.3451L160.297 94.4494C160.289 94.8981 160.342 95.3837 160.411 95.8287C160.931 99.1569 161.201 102.324 161.153 105.698C160.915 120.558 154.832 134.726 144.222 145.132C140.004 149.284 135.303 152.615 130.021 155.306C128.822 155.916 124.673 157.478 123.966 158.015L115.232 160.356C114.444 160.312 111.401 160.749 110.431 160.857C108.127 161.119 105.806 161.219 103.487 161.159C100.65 161.078 97.8231 160.785 95.0293 160.283C93.775 160.055 91.3815 159.442 90.2686 159.37C86.7101 161.18 82.1147 164.016 78.5524 166.073L69.6077 171.242C68.8867 171.656 65.9004 173.182 65.5349 173.672L65.1171 173.784L64.9815 173.278C65.2362 172.627 65.1144 170.404 65.112 169.556L65.1035 162.461C65.1057 156.866 65.2788 150.253 65.0573 144.733C64.261 143.697 62.7627 142.219 61.8196 141.098C59.5506 138.404 57.5414 135.502 55.8189 132.429C54.9898 130.972 54.2438 129.469 53.5843 127.927C53.1954 127.016 52.2029 124.465 51.7136 123.761L49.3737 115.028C49.4631 114.432 48.8476 110.108 48.7686 108.946C48.3408 103.345 48.7722 97.7111 50.0476 92.2404C53.4473 77.4201 62.7147 64.6135 75.7293 56.751C77.7647 55.5148 79.7756 54.4985 81.9304 53.4932C82.8837 53.0485 85.1452 52.2702 85.9224 51.7721L86.0041 51.7186ZM71.6681 141.819C71.826 148.405 71.7665 155.734 71.705 162.348L83.3746 155.615C84.7239 154.835 88.1854 152.733 89.464 152.234C90.9977 152.448 93.1309 153.185 94.7737 153.521C99.6367 154.522 104.622 154.792 109.564 154.321C123.212 152.767 134.995 146.707 143.599 135.887C151.906 125.553 155.724 112.32 154.197 99.1498C152.686 86.0911 146.039 74.1708 135.725 66.0211C125.403 57.821 112.239 54.0719 99.1458 55.603C96.3793 55.9475 93.6432 56.5036 90.9616 57.2663C78.3095 60.97 67.646 69.5465 61.3155 81.1102C54.9414 92.7896 53.517 106.537 57.361 119.275C59.9952 127.949 64.9411 135.742 71.6681 141.819Z" fill="black"/>
<path d="M96.4585 78.1955C99.9313 76.9806 103.711 76.9667 107.193 78.1562C111.327 79.5525 114.737 82.5347 116.672 86.4462C121.448 96.1732 115.255 103.097 111.307 111.654C111.048 112.214 110.798 112.696 110.596 113.284C110.802 114.539 111.579 117.16 111.921 118.428C109.8 119.036 107.642 119.52 105.524 120.177C103.702 111.002 102.239 115.088 106.722 106.034C107.514 104.593 108.263 103.013 109.019 101.54C110.779 98.1088 112.44 95.5022 111.508 91.5018C110.913 88.9518 109.326 86.7445 107.098 85.3693C104.921 83.9962 102.277 83.5718 99.7801 84.1946C94.119 85.5535 90.9615 90.7162 92.3465 96.3803C90.3522 96.9061 87.8727 97.4912 85.9476 98.1284C85.143 94.0831 85.1856 90.5095 86.997 86.7031C88.864 82.6995 92.2798 79.6281 96.4585 78.1955Z" fill="black"/>
<path d="M107.263 126.452C109.367 125.819 111.492 125.258 113.634 124.771C114.03 126.374 114.916 129.203 115.225 130.947C115.174 131.053 115.13 131.144 115.094 131.22C113.1 131.751 110.89 132.293 108.937 132.91C108.568 131.052 107.74 128.402 107.263 126.452Z" fill="black"/>
</g>
</g>
<defs>
<clipPath id="clip0_227_672">
<rect width="150" height="150" fill="white"/>
</clipPath>
<clipPath id="clip1_227_672">
<rect width="112.5" height="112.5" fill="white" transform="translate(36 65.1171) rotate(-15)"/>
</clipPath>
</defs>
</svg>
