<svg width="150" height="150" viewBox="0 0 150 150" fill="none" xmlns="http://www.w3.org/2000/svg">
<g clip-path="url(#clip0_230_5144)">
<rect width="150" height="150" fill="#004455"/>
<g clip-path="url(#clip1_230_5144)">
<path d="M80.4289 53.2124L100.286 47.8918C100.807 49.3238 105.283 57.7367 106.259 58.7298C106.842 58.9026 110.625 59.5167 111.05 59.1619C113.436 57.1687 115.436 54.6763 117.653 52.4964C118.222 51.9966 119.368 50.2847 120.277 50.7635C125.335 53.4281 130.259 56.4204 135.205 59.297C136.232 59.8938 136.975 60.7095 136.747 61.9882C136.317 64.4006 135.395 66.7673 134.711 69.1226C134.413 70.1362 133.83 71.3432 133.955 72.3611C134.084 73.4113 136.038 75.8074 136.802 76.4718C139.162 76.5122 141.928 76.2544 144.323 76.2923C145.193 76.3061 148.043 76.0856 148.73 76.2678C149.064 76.7103 149.473 77.6152 149.623 78.163C151.07 83.45 152.51 88.7513 153.866 94.0623C153.991 94.5514 154.076 95.3016 154.021 95.7932C152.985 97.2346 145.148 100.126 143.664 101.992C143.153 102.635 142.949 105.947 143.032 106.79C145.357 109.397 148.799 111.97 150.979 114.623C152.572 116.562 146.011 124.49 145.786 126.709C145.634 128.21 148.651 132.977 149.082 134.603C150.437 139.725 152.185 145.015 153.26 150.166L86.3385 168.098C86.0423 167.228 85.7739 166.236 85.5378 165.347C84.2147 160.363 82.7132 155.42 81.6564 150.371C81.1915 148.151 81.6184 146.008 81.0283 143.866C79.2538 142.727 70.3891 138.506 69.9153 137.137C69.4556 135.809 71.9242 128.071 72.6379 126.352C72.4413 125.164 71.0752 122.057 69.9279 121.662C67.2924 120.755 60.2691 122.314 57.972 121.55C57.5389 121.203 57.2635 120.496 57.0715 119.982C56.3153 117.958 55.8431 115.763 55.2839 113.674C54.5419 110.903 53.7304 108.129 53.0887 105.333C52.9169 104.586 52.4426 102.93 52.719 102.211C53.0933 101.238 61.0811 97.6256 62.5365 96.4615C62.808 96.2442 62.9973 95.9513 63.18 95.6593C63.2572 94.2466 63.7508 92.8391 63.3889 91.4292C62.773 89.0292 56.7554 85.6533 55.5509 82.9811C55.3657 82.5702 55.3635 82.0598 55.3358 81.6151C55.7614 81.0387 56.0723 80.2669 56.4504 79.631C59.1383 75.1108 61.7893 69.8494 64.7627 65.6062C65.4597 64.6114 75.4363 68.1388 76.8699 68.5031C77.6592 68.0935 80.0467 66.3487 80.5229 65.6412C80.8566 65.1453 80.6712 54.3234 80.4289 53.2124ZM78.7171 76.135C76.6536 75.9223 73.5999 74.8153 71.5792 74.1887C70.5647 73.874 69.4745 73.6414 68.4813 73.3064C68.2661 73.5249 67.7001 74.1162 67.5688 74.3426C66.9438 75.4201 63.7691 80.3525 63.725 81.2997C64.2451 82.9422 70.9287 87.4883 71.1946 89.3158C71.4633 91.163 70.4712 98.6925 69.6429 100.313C69.554 100.49 69.4485 100.657 69.3277 100.813C68.0616 101.461 60.7795 105.113 60.5131 105.71C60.6076 106.568 60.8852 107.235 61.0715 108.041C61.5277 110.015 62.4874 112.672 62.6505 114.628C64.9889 114.77 67.8232 114.581 70.1808 114.447C71.1258 114.393 72.1696 114.436 73.1368 114.409C73.3308 114.527 73.9746 114.929 74.0974 115.078C75.8355 117.195 79.303 121.264 80.4645 123.593C80.4724 125.224 78.3767 132.075 77.6534 133.706C78.0354 134.218 81.4381 136.699 82.5262 136.34C82.7106 136.28 83.0218 135.615 83.0903 135.419C84.65 130.954 87.4083 126.755 90.8519 123.515C92.142 122.3 93.4872 121.46 94.5588 119.998C93.7338 119.696 92.8764 119.187 92.1214 118.723C88.0207 116.203 85.446 113.036 83.4438 108.73C81.0419 103.437 80.8379 97.408 82.8769 91.9652C83.64 89.881 85.381 87.1751 86.8195 85.4796C91.0786 80.4597 96.4327 78.28 102.809 77.6935C109.071 77.2928 113.832 79.1003 118.523 83.2336C122.985 87.2026 125.702 92.7712 126.083 98.7308C126.295 102.127 125.528 106.062 124.023 109.119C123.657 109.863 121.976 112.304 121.952 112.753C122.4 113.072 125.391 113.302 126.224 113.539C127.264 113.834 128.676 114.154 129.72 114.539C132.719 115.646 138.762 118.867 140.495 121.596C141.412 119.815 142.21 118.695 143.039 116.792C142.379 116.038 141.94 115.455 141.229 114.7C139.464 112.828 135.869 110.384 135.179 107.931C135.907 105.128 135.659 100.571 137.016 97.5705C139.946 95.7284 143.701 94.0167 146.315 92.2474C145.566 89.4581 144.395 85.8835 143.837 83.1562C140.526 83.2335 136.44 83.5063 133.22 83.3362C132.963 83.1343 132.078 82.4257 131.917 82.217C130.372 80.2115 126.908 76.1323 126.03 73.9254C126.666 70.8722 127.822 67.3965 128.818 64.4151L128.428 63.4334C127.161 62.6217 122.201 59.6621 120.794 59.147C119.345 60.951 117.252 62.9966 115.631 64.6902C115.056 65.2909 113.946 66.4478 113.333 66.9226C110.685 66.9107 103.891 66.0783 101.562 65.0687C101.128 64.143 100.517 63.2934 100.084 62.3692C99.0508 60.1622 97.6335 57.9924 96.6321 55.7926C95.388 56.2101 93.6118 56.6074 92.3045 56.9546C91.0971 57.2754 88.8885 58.0214 87.7419 58.1435C87.2917 61.2994 88.4682 66.1548 87.6633 69.1135C87.3867 70.1299 79.902 75.5601 78.7171 76.135ZM109.019 114.209C116.921 111.325 121.01 102.602 118.171 94.684C115.333 86.7663 106.632 82.6282 98.6983 85.4228C90.702 88.2394 86.5239 97.0244 89.3852 105.005C92.2465 112.985 101.055 117.114 109.019 114.209ZM105.778 122.558C98.7852 125.047 94.1596 128.522 90.8159 135.301C87.8055 141.405 87.8099 147.452 89.7261 153.84C90.1093 155.118 91.0197 158.467 91.1156 159.76L122.003 151.558L136.483 147.68C138.589 147.114 142.653 146.105 144.58 145.392C143.52 137.946 140.282 129.841 134.307 125.059C125.493 118.006 115.754 119.237 105.778 122.558Z" fill="white"/>
</g>
</g>
<defs>
<clipPath id="clip0_230_5144">
<rect width="150" height="150" fill="white"/>
</clipPath>
<clipPath id="clip1_230_5144">
<rect width="112.5" height="112.5" fill="white" transform="translate(36 65.1171) rotate(-15)"/>
</clipPath>
</defs>
</svg>
