<svg width="150" height="150" viewBox="0 0 150 150" fill="none" xmlns="http://www.w3.org/2000/svg">
<g clip-path="url(#clip0_271_148)">
<rect width="150" height="150" fill="#004455"/>
<mask id="path-1-outside-1_271_148" maskUnits="userSpaceOnUse" x="36.5164" y="36.3392" width="136.654" height="135.24" fill="black">
<rect fill="white" x="36.5164" y="36.3392" width="136.654" height="135.24"/>
<path d="M52.022 63.2907C53.7326 62.7449 55.8985 62.227 57.6764 61.7515L68.0567 58.9717L99.9586 50.4237L120.689 44.8681L126.916 43.1978C128.901 42.6644 130.774 41.9331 132.826 42.4163C133.874 42.6631 134.732 43.0345 135.599 43.671C136.569 44.3941 137.402 45.285 138.058 46.3016C138.99 47.718 140.18 50.0797 141.013 51.6248L146.009 60.8647L151.445 70.9263C152.369 72.6329 153.342 74.3804 154.224 76.1087C154.581 76.8087 154.81 77.9841 154.932 78.782C155.471 82.4386 154.682 86.1672 152.707 89.2917C152.039 90.3322 151.434 90.9288 150.733 91.8847C150.891 92.8212 151.538 94.9817 151.811 95.9999L154.029 104.275L161.156 130.869L162.961 137.601C163.275 138.768 163.636 140.017 163.889 141.192C163.987 141.648 164.042 142.261 163.78 142.632C163.61 142.93 163.215 143.342 162.885 143.47C161.318 144.077 159.484 144.482 157.866 144.909L101.954 159.89L83.8563 164.74L78.1156 166.283C77.0313 166.575 75.9406 166.884 74.8525 167.13C74.0436 167.313 72.9623 167.207 72.5997 166.353C72.5102 166.142 72.3785 165.921 72.3122 165.698C71.8823 164.26 71.5111 162.796 71.1223 161.345L68.7913 152.642L62.3944 128.759L60.2859 120.891C59.8965 119.438 59.5013 117.844 59.0642 116.413C58.4613 116.204 57.7931 115.978 57.2117 115.739C53.5132 114.218 50.4472 111.087 48.9638 107.379C48.6464 106.508 48.1955 105.444 48.1463 104.51C48.0515 102.712 48.0308 100.869 47.9793 99.0692L47.6657 88.0038L47.355 76.9564C47.2134 71.9117 46.2609 65.6531 52.022 63.2907ZM63.1591 116.965L70.9858 146.176C72.4771 151.742 74.0812 157.447 75.4949 163.022L158.548 140.779L159.794 140.457L151.56 109.714C150.215 104.695 148.703 99.4044 147.471 94.3772C141.703 97.266 135.722 97.0226 130.527 92.9287C130.029 92.5366 129.494 91.9407 128.999 91.5923C128.587 92.8915 128.309 93.8019 127.693 95.0229C126.338 97.7123 123.942 100.14 121.27 101.525C117.751 103.333 113.662 103.682 109.89 102.494C108.069 101.929 106.374 101.02 104.895 99.8182C104.481 99.4831 103.716 98.7275 103.345 98.4661C102.933 99.7655 102.654 100.676 102.039 101.897C100.684 104.587 98.2879 107.014 95.6156 108.399C92.0976 110.207 88.0085 110.555 84.2355 109.368C82.927 108.959 81.6802 108.374 80.5292 107.63C79.5739 107 78.7493 106.338 77.9451 105.532C77.8747 105.461 77.7658 105.42 77.6694 105.403C77.2969 106.576 76.9696 107.622 76.4122 108.724C73.8936 113.704 68.7669 116.928 63.1591 116.965ZM102.779 88.9354L117.6 84.9767C119.832 84.3786 122.405 83.6214 124.631 83.1012C124.039 81.8185 123.32 79.7043 122.794 78.3133L119.435 69.45L114.892 57.4579C114.117 55.4163 113.18 53.1027 112.48 51.0493C108.073 52.1082 103.43 53.4353 99.0334 54.6166L96.0035 55.4397C95.4727 55.5889 94.4995 55.9033 94.0116 55.9492L93.956 55.9548L100.231 79.4083C101.077 82.5649 101.976 85.7771 102.779 88.9354ZM73.9519 100.596C73.086 100.929 70.9295 101.429 69.9326 101.696L61.6553 103.913L55.682 105.517C55.1237 105.668 53.4314 106.174 52.9677 106.228C54.2627 109.045 56.3169 111.368 59.2769 112.469C62.0675 113.475 65.1437 113.329 67.8268 112.064C69.8113 111.142 71.4622 109.63 72.5534 107.733C73.9976 105.087 74.04 103.513 73.9519 100.596ZM94.4897 91.1685C96.0078 90.7625 97.6006 90.3097 99.1211 89.9386L90.2998 56.9828C86.8515 57.8762 83.4083 58.7903 79.9708 59.7251C77.6801 60.3299 75.3926 60.9477 73.1088 61.5785C72.7014 61.6999 72.2167 61.8582 71.8061 61.9363L77.3012 95.7578C83.0084 94.3047 88.7935 92.6962 94.4897 91.1685ZM149.515 87.1113C150.969 84.4504 150.994 82.8978 150.916 79.9718C149.978 80.3265 147.853 80.8182 146.788 81.1028L138.541 83.3114L132.645 84.8948C132.089 85.0448 130.4 85.5514 129.932 85.6077C131.2 88.4045 133.288 90.744 136.213 91.8374C139.01 92.853 142.096 92.7104 144.788 91.4417C146.722 90.5511 148.47 88.9729 149.515 87.1113ZM116.15 49.9859C116.469 51 116.929 52.1365 117.311 53.1426L119.233 58.1912L125.234 74.0135L127.236 79.2965C127.566 80.1667 127.983 81.1881 128.277 82.0609C130.532 81.6182 133.859 80.6216 136.152 80.0065L150.024 76.2906L139.827 57.4182L136.721 51.6706C135.689 49.7556 133.89 45.6245 131.127 46.0838C129.798 46.3047 128.137 46.8147 126.804 47.1726L118.942 49.2813C118.392 49.4283 116.618 49.9854 116.15 49.9859ZM98.2071 100.859C99.6516 98.2145 99.6935 96.6377 99.6058 93.7221C98.7378 94.0556 96.5748 94.5577 95.5759 94.8248L87.3522 97.0273L81.3113 98.6497C80.7655 98.797 79.0812 99.301 78.6222 99.3548C81.345 105.285 87.4234 107.979 93.4807 105.19C95.4653 104.269 97.1163 102.756 98.2071 100.859ZM53.8692 66.731C53.331 66.9079 52.8168 67.0525 52.3833 67.4302C51.4179 68.2712 51.0977 69.7353 51.0433 70.9646C50.9893 72.1828 51.0577 73.4685 51.0932 74.6929L51.2594 80.4968L51.6729 95.0956C51.7426 97.5567 51.8561 100.138 51.8818 102.589L66.2017 98.748L73.6059 96.7636L69.9973 74.5983L68.7426 66.8627C68.5571 65.7176 68.2302 64.0438 68.1146 62.9224C64.8983 63.7592 61.6865 64.6128 58.4793 65.4833C56.9737 65.8871 55.3579 66.2902 53.8692 66.731ZM123.861 93.9853C125.305 91.3407 125.348 89.7636 125.26 86.8482C124.395 87.1799 122.266 87.6738 121.275 87.9387L113.001 90.1547L106.965 91.7758C106.419 91.9231 104.736 92.4269 104.277 92.4809C104.98 94.0222 105.722 95.1202 106.906 96.3381C111.726 101.296 120.504 99.9659 123.861 93.9853Z"/>
</mask>
<path d="M52.022 63.2907C53.7326 62.7449 55.8985 62.227 57.6764 61.7515L68.0567 58.9717L99.9586 50.4237L120.689 44.8681L126.916 43.1978C128.901 42.6644 130.774 41.9331 132.826 42.4163C133.874 42.6631 134.732 43.0345 135.599 43.671C136.569 44.3941 137.402 45.285 138.058 46.3016C138.99 47.718 140.18 50.0797 141.013 51.6248L146.009 60.8647L151.445 70.9263C152.369 72.6329 153.342 74.3804 154.224 76.1087C154.581 76.8087 154.81 77.9841 154.932 78.782C155.471 82.4386 154.682 86.1672 152.707 89.2917C152.039 90.3322 151.434 90.9288 150.733 91.8847C150.891 92.8212 151.538 94.9817 151.811 95.9999L154.029 104.275L161.156 130.869L162.961 137.601C163.275 138.768 163.636 140.017 163.889 141.192C163.987 141.648 164.042 142.261 163.78 142.632C163.61 142.93 163.215 143.342 162.885 143.47C161.318 144.077 159.484 144.482 157.866 144.909L101.954 159.89L83.8563 164.74L78.1156 166.283C77.0313 166.575 75.9406 166.884 74.8525 167.13C74.0436 167.313 72.9623 167.207 72.5997 166.353C72.5102 166.142 72.3785 165.921 72.3122 165.698C71.8823 164.26 71.5111 162.796 71.1223 161.345L68.7913 152.642L62.3944 128.759L60.2859 120.891C59.8965 119.438 59.5013 117.844 59.0642 116.413C58.4613 116.204 57.7931 115.978 57.2117 115.739C53.5132 114.218 50.4472 111.087 48.9638 107.379C48.6464 106.508 48.1955 105.444 48.1463 104.51C48.0515 102.712 48.0308 100.869 47.9793 99.0692L47.6657 88.0038L47.355 76.9564C47.2134 71.9117 46.2609 65.6531 52.022 63.2907ZM63.1591 116.965L70.9858 146.176C72.4771 151.742 74.0812 157.447 75.4949 163.022L158.548 140.779L159.794 140.457L151.56 109.714C150.215 104.695 148.703 99.4044 147.471 94.3772C141.703 97.266 135.722 97.0226 130.527 92.9287C130.029 92.5366 129.494 91.9407 128.999 91.5923C128.587 92.8915 128.309 93.8019 127.693 95.0229C126.338 97.7123 123.942 100.14 121.27 101.525C117.751 103.333 113.662 103.682 109.89 102.494C108.069 101.929 106.374 101.02 104.895 99.8182C104.481 99.4831 103.716 98.7275 103.345 98.4661C102.933 99.7655 102.654 100.676 102.039 101.897C100.684 104.587 98.2879 107.014 95.6156 108.399C92.0976 110.207 88.0085 110.555 84.2355 109.368C82.927 108.959 81.6802 108.374 80.5292 107.63C79.5739 107 78.7493 106.338 77.9451 105.532C77.8747 105.461 77.7658 105.42 77.6694 105.403C77.2969 106.576 76.9696 107.622 76.4122 108.724C73.8936 113.704 68.7669 116.928 63.1591 116.965ZM102.779 88.9354L117.6 84.9767C119.832 84.3786 122.405 83.6214 124.631 83.1012C124.039 81.8185 123.32 79.7043 122.794 78.3133L119.435 69.45L114.892 57.4579C114.117 55.4163 113.18 53.1027 112.48 51.0493C108.073 52.1082 103.43 53.4353 99.0334 54.6166L96.0035 55.4397C95.4727 55.5889 94.4995 55.9033 94.0116 55.9492L93.956 55.9548L100.231 79.4083C101.077 82.5649 101.976 85.7771 102.779 88.9354ZM73.9519 100.596C73.086 100.929 70.9295 101.429 69.9326 101.696L61.6553 103.913L55.682 105.517C55.1237 105.668 53.4314 106.174 52.9677 106.228C54.2627 109.045 56.3169 111.368 59.2769 112.469C62.0675 113.475 65.1437 113.329 67.8268 112.064C69.8113 111.142 71.4622 109.63 72.5534 107.733C73.9976 105.087 74.04 103.513 73.9519 100.596ZM94.4897 91.1685C96.0078 90.7625 97.6006 90.3097 99.1211 89.9386L90.2998 56.9828C86.8515 57.8762 83.4083 58.7903 79.9708 59.7251C77.6801 60.3299 75.3926 60.9477 73.1088 61.5785C72.7014 61.6999 72.2167 61.8582 71.8061 61.9363L77.3012 95.7578C83.0084 94.3047 88.7935 92.6962 94.4897 91.1685ZM149.515 87.1113C150.969 84.4504 150.994 82.8978 150.916 79.9718C149.978 80.3265 147.853 80.8182 146.788 81.1028L138.541 83.3114L132.645 84.8948C132.089 85.0448 130.4 85.5514 129.932 85.6077C131.2 88.4045 133.288 90.744 136.213 91.8374C139.01 92.853 142.096 92.7104 144.788 91.4417C146.722 90.5511 148.47 88.9729 149.515 87.1113ZM116.15 49.9859C116.469 51 116.929 52.1365 117.311 53.1426L119.233 58.1912L125.234 74.0135L127.236 79.2965C127.566 80.1667 127.983 81.1881 128.277 82.0609C130.532 81.6182 133.859 80.6216 136.152 80.0065L150.024 76.2906L139.827 57.4182L136.721 51.6706C135.689 49.7556 133.89 45.6245 131.127 46.0838C129.798 46.3047 128.137 46.8147 126.804 47.1726L118.942 49.2813C118.392 49.4283 116.618 49.9854 116.15 49.9859ZM98.2071 100.859C99.6516 98.2145 99.6935 96.6377 99.6058 93.7221C98.7378 94.0556 96.5748 94.5577 95.5759 94.8248L87.3522 97.0273L81.3113 98.6497C80.7655 98.797 79.0812 99.301 78.6222 99.3548C81.345 105.285 87.4234 107.979 93.4807 105.19C95.4653 104.269 97.1163 102.756 98.2071 100.859ZM53.8692 66.731C53.331 66.9079 52.8168 67.0525 52.3833 67.4302C51.4179 68.2712 51.0977 69.7353 51.0433 70.9646C50.9893 72.1828 51.0577 73.4685 51.0932 74.6929L51.2594 80.4968L51.6729 95.0956C51.7426 97.5567 51.8561 100.138 51.8818 102.589L66.2017 98.748L73.6059 96.7636L69.9973 74.5983L68.7426 66.8627C68.5571 65.7176 68.2302 64.0438 68.1146 62.9224C64.8983 63.7592 61.6865 64.6128 58.4793 65.4833C56.9737 65.8871 55.3579 66.2902 53.8692 66.731ZM123.861 93.9853C125.305 91.3407 125.348 89.7636 125.26 86.8482C124.395 87.1799 122.266 87.6738 121.275 87.9387L113.001 90.1547L106.965 91.7758C106.419 91.9231 104.736 92.4269 104.277 92.4809C104.98 94.0222 105.722 95.1202 106.906 96.3381C111.726 101.296 120.504 99.9659 123.861 93.9853Z" fill="white"/>
<path d="M52.022 63.2907C53.7326 62.7449 55.8985 62.227 57.6764 61.7515L68.0567 58.9717L99.9586 50.4237L120.689 44.8681L126.916 43.1978C128.901 42.6644 130.774 41.9331 132.826 42.4163C133.874 42.6631 134.732 43.0345 135.599 43.671C136.569 44.3941 137.402 45.285 138.058 46.3016C138.99 47.718 140.18 50.0797 141.013 51.6248L146.009 60.8647L151.445 70.9263C152.369 72.6329 153.342 74.3804 154.224 76.1087C154.581 76.8087 154.81 77.9841 154.932 78.782C155.471 82.4386 154.682 86.1672 152.707 89.2917C152.039 90.3322 151.434 90.9288 150.733 91.8847C150.891 92.8212 151.538 94.9817 151.811 95.9999L154.029 104.275L161.156 130.869L162.961 137.601C163.275 138.768 163.636 140.017 163.889 141.192C163.987 141.648 164.042 142.261 163.78 142.632C163.61 142.93 163.215 143.342 162.885 143.47C161.318 144.077 159.484 144.482 157.866 144.909L101.954 159.89L83.8563 164.74L78.1156 166.283C77.0313 166.575 75.9406 166.884 74.8525 167.13C74.0436 167.313 72.9623 167.207 72.5997 166.353C72.5102 166.142 72.3785 165.921 72.3122 165.698C71.8823 164.26 71.5111 162.796 71.1223 161.345L68.7913 152.642L62.3944 128.759L60.2859 120.891C59.8965 119.438 59.5013 117.844 59.0642 116.413C58.4613 116.204 57.7931 115.978 57.2117 115.739C53.5132 114.218 50.4472 111.087 48.9638 107.379C48.6464 106.508 48.1955 105.444 48.1463 104.51C48.0515 102.712 48.0308 100.869 47.9793 99.0692L47.6657 88.0038L47.355 76.9564C47.2134 71.9117 46.2609 65.6531 52.022 63.2907ZM63.1591 116.965L70.9858 146.176C72.4771 151.742 74.0812 157.447 75.4949 163.022L158.548 140.779L159.794 140.457L151.56 109.714C150.215 104.695 148.703 99.4044 147.471 94.3772C141.703 97.266 135.722 97.0226 130.527 92.9287C130.029 92.5366 129.494 91.9407 128.999 91.5923C128.587 92.8915 128.309 93.8019 127.693 95.0229C126.338 97.7123 123.942 100.14 121.27 101.525C117.751 103.333 113.662 103.682 109.89 102.494C108.069 101.929 106.374 101.02 104.895 99.8182C104.481 99.4831 103.716 98.7275 103.345 98.4661C102.933 99.7655 102.654 100.676 102.039 101.897C100.684 104.587 98.2879 107.014 95.6156 108.399C92.0976 110.207 88.0085 110.555 84.2355 109.368C82.927 108.959 81.6802 108.374 80.5292 107.63C79.5739 107 78.7493 106.338 77.9451 105.532C77.8747 105.461 77.7658 105.42 77.6694 105.403C77.2969 106.576 76.9696 107.622 76.4122 108.724C73.8936 113.704 68.7669 116.928 63.1591 116.965ZM102.779 88.9354L117.6 84.9767C119.832 84.3786 122.405 83.6214 124.631 83.1012C124.039 81.8185 123.32 79.7043 122.794 78.3133L119.435 69.45L114.892 57.4579C114.117 55.4163 113.18 53.1027 112.48 51.0493C108.073 52.1082 103.43 53.4353 99.0334 54.6166L96.0035 55.4397C95.4727 55.5889 94.4995 55.9033 94.0116 55.9492L93.956 55.9548L100.231 79.4083C101.077 82.5649 101.976 85.7771 102.779 88.9354ZM73.9519 100.596C73.086 100.929 70.9295 101.429 69.9326 101.696L61.6553 103.913L55.682 105.517C55.1237 105.668 53.4314 106.174 52.9677 106.228C54.2627 109.045 56.3169 111.368 59.2769 112.469C62.0675 113.475 65.1437 113.329 67.8268 112.064C69.8113 111.142 71.4622 109.63 72.5534 107.733C73.9976 105.087 74.04 103.513 73.9519 100.596ZM94.4897 91.1685C96.0078 90.7625 97.6006 90.3097 99.1211 89.9386L90.2998 56.9828C86.8515 57.8762 83.4083 58.7903 79.9708 59.7251C77.6801 60.3299 75.3926 60.9477 73.1088 61.5785C72.7014 61.6999 72.2167 61.8582 71.8061 61.9363L77.3012 95.7578C83.0084 94.3047 88.7935 92.6962 94.4897 91.1685ZM149.515 87.1113C150.969 84.4504 150.994 82.8978 150.916 79.9718C149.978 80.3265 147.853 80.8182 146.788 81.1028L138.541 83.3114L132.645 84.8948C132.089 85.0448 130.4 85.5514 129.932 85.6077C131.2 88.4045 133.288 90.744 136.213 91.8374C139.01 92.853 142.096 92.7104 144.788 91.4417C146.722 90.5511 148.47 88.9729 149.515 87.1113ZM116.15 49.9859C116.469 51 116.929 52.1365 117.311 53.1426L119.233 58.1912L125.234 74.0135L127.236 79.2965C127.566 80.1667 127.983 81.1881 128.277 82.0609C130.532 81.6182 133.859 80.6216 136.152 80.0065L150.024 76.2906L139.827 57.4182L136.721 51.6706C135.689 49.7556 133.89 45.6245 131.127 46.0838C129.798 46.3047 128.137 46.8147 126.804 47.1726L118.942 49.2813C118.392 49.4283 116.618 49.9854 116.15 49.9859ZM98.2071 100.859C99.6516 98.2145 99.6935 96.6377 99.6058 93.7221C98.7378 94.0556 96.5748 94.5577 95.5759 94.8248L87.3522 97.0273L81.3113 98.6497C80.7655 98.797 79.0812 99.301 78.6222 99.3548C81.345 105.285 87.4234 107.979 93.4807 105.19C95.4653 104.269 97.1163 102.756 98.2071 100.859ZM53.8692 66.731C53.331 66.9079 52.8168 67.0525 52.3833 67.4302C51.4179 68.2712 51.0977 69.7353 51.0433 70.9646C50.9893 72.1828 51.0577 73.4685 51.0932 74.6929L51.2594 80.4968L51.6729 95.0956C51.7426 97.5567 51.8561 100.138 51.8818 102.589L66.2017 98.748L73.6059 96.7636L69.9973 74.5983L68.7426 66.8627C68.5571 65.7176 68.2302 64.0438 68.1146 62.9224C64.8983 63.7592 61.6865 64.6128 58.4793 65.4833C56.9737 65.8871 55.3579 66.2902 53.8692 66.731ZM123.861 93.9853C125.305 91.3407 125.348 89.7636 125.26 86.8482C124.395 87.1799 122.266 87.6738 121.275 87.9387L113.001 90.1547L106.965 91.7758C106.419 91.9231 104.736 92.4269 104.277 92.4809C104.98 94.0222 105.722 95.1202 106.906 96.3381C111.726 101.296 120.504 99.9659 123.861 93.9853Z" stroke="white" stroke-width="2" mask="url(#path-1-outside-1_271_148)"/>
<path d="M132.824 115.77C133.793 115.408 135.911 115.055 137.756 115.195C138.677 115.264 139.599 115.461 140.283 115.895C140.632 116.115 140.932 116.405 141.129 116.781C141.327 117.16 141.405 117.595 141.357 118.077L141.356 118.081C141.285 118.739 140.958 119.343 140.446 119.762L140.444 119.763C139.88 120.22 139.274 120.277 138.727 120.226C138.463 120.201 138.198 120.149 137.961 120.103C137.715 120.055 137.494 120.013 137.278 119.992C135.515 119.821 133.423 120.46 132.057 121.576L132.057 121.577C130.609 122.749 129.693 124.455 129.513 126.309L129.514 126.31C129.326 128.209 129.91 130.104 131.135 131.567C132.359 133.021 134.114 133.925 136.009 134.076L136.008 134.077C137.626 134.201 139.749 133.613 140.921 132.554L141.242 132.249C141.953 131.539 142.396 130.834 142.687 130.077C142.952 129.389 143.094 128.642 143.188 127.775C142.53 127.958 141.683 128.16 141.232 128.282L140.192 128.561C139.318 128.805 138.41 129.071 137.503 129.262L136.96 129.366C135.751 129.575 134.623 128.954 134.261 127.734L134.26 127.733C134.06 127.075 134.147 126.363 134.5 125.774C134.844 125.198 135.436 124.89 135.98 124.697C136.517 124.507 137.141 124.388 137.561 124.282L137.56 124.282L142.608 122.93C142.779 122.884 142.972 122.827 143.188 122.762C143.401 122.697 143.634 122.626 143.875 122.558C144.353 122.424 144.886 122.297 145.405 122.258C145.919 122.218 146.469 122.261 146.949 122.512C147.449 122.774 147.812 123.232 147.993 123.893C150.697 133.763 140.295 142.334 131.108 137.574L131.107 137.574C128.46 136.196 126.434 133.878 125.417 131.088L125.228 130.524C124.28 127.453 124.611 124.13 126.146 121.306C127.502 118.767 130.071 116.622 132.824 115.77Z" fill="white" stroke="white"/>
</g>
<defs>
<clipPath id="clip0_271_148">
<rect width="150" height="150" fill="white"/>
</clipPath>
</defs>
</svg>
