<svg width="150" height="150" viewBox="0 0 150 150" fill="none" xmlns="http://www.w3.org/2000/svg">
<g clip-path="url(#clip0_227_601)">
<rect width="150" height="150" fill="#FFCC00"/>
<g clip-path="url(#clip1_227_601)">
<path d="M86.9687 51.4601L93.5935 49.685L93.7002 49.6918C94.6487 49.7444 96.0481 49.4666 97.0384 49.4071C98.3853 49.3261 99.7067 49.329 101.054 49.3916C110.435 49.8321 119.261 53.966 125.604 60.8907C131.079 66.8589 133.107 72.8628 134.984 80.5303C135.614 83.1068 136.485 85.8374 137.079 88.4196C140.233 88.3666 143.388 88.4737 146.532 88.7406C147.347 90.8747 147.852 93.024 148.429 95.2282L150.423 102.734L157.753 130.067L159.817 137.818C159.987 138.465 160.34 140.25 160.519 140.705C152.906 145.949 144.739 150.049 136.225 153.618C134.036 154.534 131.738 155.253 129.518 156.09C128.777 156.369 126.874 157.009 126.298 157.39L112.811 161.004C111.939 160.974 108.253 161.709 107.117 161.912C104.079 162.456 101.391 162.823 98.3228 163.163C92.6346 163.795 86.9135 164.083 81.1907 164.028C78.6299 163.992 76.2656 163.77 73.7934 163.705L64.6259 129.473L61.692 118.532C61.154 116.528 60.4508 114.138 60.0252 112.137C60.918 111.634 62.1347 110.753 63.029 110.172C64.8805 108.958 66.7874 107.83 68.7436 106.792C66.0794 96.1642 62.4765 88.0868 64.9741 77.0141C66.9647 68.0563 72.3598 60.2231 80.0193 55.1696C81.8457 53.9876 83.7092 53.0183 85.6941 52.1338C86.1028 51.9517 86.5101 51.7577 86.8862 51.5144L86.9687 51.4601ZM67.6592 115.087C67.9695 116.709 68.5697 118.735 69.0052 120.356L71.2953 128.896L78.91 157.331C93.66 157.762 108.381 155.774 122.488 151.447C133.41 148.051 143.864 143.305 153.609 137.318L145.981 108.813L143.566 99.7954C143.225 98.524 142.692 96.253 142.269 95.1043C131.301 94.8233 120.338 95.8414 109.61 98.1373C106.133 98.9012 102.003 100.068 98.5748 101.067C87.8997 104.305 77.2039 109.38 67.6592 115.087ZM94.7437 72.2768C91.106 73.7559 88.7645 75.8856 87.1426 79.5475C84.5189 85.4714 87.7113 91.2801 88.9497 97.2884C93.75 95.5182 98.6368 93.9922 103.591 92.716C106.619 91.9407 111.724 90.8213 114.879 90.4047C112.865 83.6896 112.6 76.6013 105.888 72.9813C102.766 71.2857 99.0955 70.9082 95.6939 71.933C95.3713 72.0308 95.0541 72.1455 94.7437 72.2768ZM82.8181 99.8552L81.0787 93.3189C80.6751 91.8147 80.225 90.305 79.9222 88.7789C77.7924 78.0451 84.1396 68.1124 94.6152 65.3439C94.8891 65.2708 95.1641 65.2027 95.4404 65.1395C101.257 64.1899 106.253 65.0471 111.134 68.4959C116.499 72.2868 118.374 77.2353 119.816 83.3433C120.278 85.2966 120.98 87.4494 121.427 89.433C124.391 89.1042 127.362 88.8411 130.339 88.6438C127.699 79.894 127.258 72.5424 120.801 65.4312C118.557 62.9586 115.9 60.8952 112.948 59.3336C106.3 55.7943 98.5242 55.0179 91.307 57.1726L91.2527 57.1891C83.5214 59.7069 77.5716 64.3931 73.8331 71.7138C72.4881 74.3514 71.5625 77.1826 71.0898 80.1053C69.6739 88.8689 72.7824 95.1789 74.6963 103.483C77.3507 102.418 80.131 100.792 82.8181 99.8552Z" fill="black"/>
<path d="M105.651 111.104C106.778 110.706 107.964 110.505 109.159 110.509C111.79 110.545 114.299 111.624 116.135 113.509C117.948 115.382 118.948 117.896 118.914 120.503C118.864 124.253 117.205 126.203 114.72 128.639C115.244 131.267 116.346 134.932 117.071 137.608L114.964 138.171L110.665 139.309C110.269 137.298 108.828 132.275 108.226 130.296C107.23 130.143 106.216 129.905 105.282 129.524C102.839 128.539 100.9 126.605 99.9099 124.164C98.9142 121.731 98.9165 119.003 99.9164 116.572C101.075 113.782 102.924 112.229 105.651 111.104ZM110.657 123.223C111.678 122.639 112.307 121.552 112.303 120.377C112.299 119.201 111.663 118.118 110.638 117.542C109.613 116.965 108.358 116.984 107.351 117.591C105.819 118.515 105.315 120.498 106.221 122.041C107.127 123.583 109.104 124.11 110.657 123.223Z" fill="black"/>
<path d="M146.532 88.7406C146.92 88.7775 147.116 88.7295 147.394 88.9302C147.831 90.0674 148.247 91.7785 148.57 92.9851L150.305 99.4599L155.933 120.473L159.619 134.232C159.886 135.226 161.086 139.512 161.104 140.193C160.905 140.379 160.737 140.539 160.519 140.705C160.34 140.25 159.987 138.465 159.818 137.818L157.753 130.067L150.423 102.734L148.429 95.2282C147.852 93.024 147.347 90.8747 146.532 88.7406Z" fill="black" fill-opacity="0.980392"/>
</g>
</g>
<defs>
<clipPath id="clip0_227_601">
<rect width="150" height="150" fill="white"/>
</clipPath>
<clipPath id="clip1_227_601">
<rect width="112.5" height="112.5" fill="white" transform="translate(36 65.1171) rotate(-15)"/>
</clipPath>
</defs>
</svg>
