<svg width="150" height="150" viewBox="0 0 150 150" fill="none" xmlns="http://www.w3.org/2000/svg">
<g clip-path="url(#clip0_227_663)">
<rect width="150" height="150" fill="#FFCC00"/>
<g clip-path="url(#clip1_227_663)">
<path d="M48.9482 61.6477L131.736 39.4647L133.43 45.8775C131.842 46.2832 128.396 47.3533 126.98 47.5954C129.99 61.7146 128.751 74.0203 120.728 86.2276C115.869 93.6208 109.394 102.372 119.64 108.585C126.107 112.507 132.827 115.143 138.549 120.3C145.206 126.299 150.244 134.839 152.634 143.451C154.826 142.932 157.004 142.291 159.155 141.785C159.665 143.919 160.309 146.016 160.829 148.138L78.0705 170.313C77.4545 168.306 76.9084 166.047 76.3526 164.002C78.3061 163.356 80.747 162.767 82.7636 162.227C80.3299 149.169 80.3457 138.877 87.0567 126.915C88.2987 124.711 89.6002 122.541 90.9595 120.407C91.9869 118.774 93.0332 117.231 93.9029 115.52C99.7141 104.837 89.8084 100.725 81.7286 96.6134C68.6412 89.9542 61.7005 80.229 57.1406 66.3787C55.1389 66.8018 52.601 67.5126 50.6229 68.0466C50.3098 66.4224 49.383 63.382 48.9482 61.6477ZM70.2209 78.6036C72.1635 78.2669 74.9429 77.4339 76.9204 76.9037L88.3572 73.8355C99.3911 70.875 110.679 67.9728 121.662 64.9061C121.75 64.0289 121.818 63.1499 121.866 62.2696C121.96 59.5013 121.812 56.7299 121.422 53.9875C121.207 52.4883 120.819 50.722 120.662 49.2812C117.081 50.3775 112.738 51.4135 109.054 52.4005L86.0204 58.572L71.0356 62.5902C69.0912 63.1126 65.2719 64.2649 63.4591 64.5868C64.9855 68.8741 66.5192 72.9452 69.072 76.7563C69.4578 77.3322 69.8861 77.9998 70.2209 78.6036ZM88.1017 153.035C88.1038 155.878 88.9506 158.082 89.0977 160.5C98.7667 158.089 108.779 155.262 118.434 152.672L146.374 145.197C145.94 144.41 145.727 143.555 145.417 142.709C144.873 141.222 144.276 139.491 143.481 138.129C142.13 137.827 139.771 137.588 138.313 137.398L128.876 136.164L120.935 135.108C117.41 134.637 115.595 134.098 112.155 135.197C109.83 135.914 106.825 138.524 104.821 140.06L96.6428 146.332L91.2896 150.441C90.3885 151.134 88.8333 152.261 88.1017 153.035ZM108.252 104.908C108.392 105.654 108.624 107.083 109.043 107.714C109.694 109.6 110.563 113.274 111.099 115.305C112.183 119.414 113.439 123.718 114.425 127.826C117.83 127.921 122.203 128.598 125.64 129.069C130.119 129.684 134.769 130.191 139.223 130.863C136.096 126.821 133.93 124.799 129.772 121.897C122.701 116.961 112.799 114.696 108.907 106.445C108.888 105.976 108.49 105.347 108.252 104.908ZM113.275 85.6223C115.908 81.5877 118.319 77.4795 119.949 72.9321C120.043 72.67 120.147 72.404 120.264 72.1514L90.6307 80.0876C85.5845 81.4396 80.3394 82.9294 75.2925 84.1844C82.0958 90.6441 90.9163 92.6492 97.7408 98.8381C98.0393 99.1089 98.3125 99.444 98.6094 99.7052C101.283 99.0941 105.092 98.0843 107.756 97.2945C108.654 93.1981 110.923 89.0836 113.275 85.6223ZM108.073 129.606L103.892 113.956C103.654 113.063 102.543 108.584 102.275 108.064C102.087 111.137 102.15 113.421 100.834 116.276C96.8358 124.945 89.9675 132.087 88.5326 141.89C88.4606 142.382 88.057 144.052 88.341 144.402C93.4711 140.299 98.8145 136.405 103.99 132.355C105.298 131.331 106.616 130.41 108.073 129.606Z" fill="black"/>
<path d="M108.252 104.908C108.49 105.347 108.888 105.976 108.907 106.445L108.775 106.476C108.839 106.964 108.912 107.237 109.043 107.714C108.624 107.083 108.392 105.654 108.252 104.908Z" fill="black" fill-opacity="0.843137"/>
</g>
</g>
<defs>
<clipPath id="clip0_227_663">
<rect width="150" height="150" fill="white"/>
</clipPath>
<clipPath id="clip1_227_663">
<rect width="112.5" height="112.5" fill="white" transform="translate(36 65.1171) rotate(-15)"/>
</clipPath>
</defs>
</svg>
