<svg width="150" height="150" viewBox="0 0 150 150" fill="none" xmlns="http://www.w3.org/2000/svg">
<g clip-path="url(#clip0_230_5141)">
<rect width="150" height="150" fill="#FFCC00"/>
<g clip-path="url(#clip1_230_5141)">
<path d="M73.6134 55.0387L81.073 53.0399L81.1792 53.0463C82.1817 53.0979 83.8327 52.7592 84.88 52.687C86.6014 52.5683 88.3049 52.5289 90.0287 52.5936C101.443 53.036 112.215 57.9938 119.974 66.3765C127.651 74.6992 131.72 85.7231 131.291 97.0374C131.089 101.985 130.039 106.861 128.185 111.452C127.983 111.957 127.064 113.758 127.344 113.936C129.007 114.992 134.119 118.126 135.681 118.732C136.62 116.968 137.773 114.907 138.862 113.24C139.804 113.536 142.948 115.439 143.948 116.016L154.268 121.973L163.021 127.028C164.62 127.952 166.162 128.833 167.715 129.837C169.236 130.821 169.763 132.489 170.808 133.56L171.644 136.68C171.52 137.599 171.53 138.409 171.372 139.381C170.99 141.731 169.814 143.741 168.011 145.286C167.585 145.652 166.209 146.452 165.935 146.77L162.547 147.677C161.541 147.389 159.941 147.63 158.518 147.054C156.513 146.243 154.921 145.227 153.066 144.152L145.925 140.02L135.107 133.779C133.245 132.703 130.806 131.376 129.037 130.212C130.149 128.339 131.138 126.462 132.285 124.572C130.238 123.22 125.958 120.823 123.761 119.657C121.161 123.669 116.932 127.786 113.051 130.534C103.814 137.028 92.376 139.59 81.2508 137.657C69.4017 135.603 58.9502 128.691 52.422 118.591C51.5177 117.183 50.7796 115.835 50.0258 114.341C49.4494 113.199 48.8323 111.27 48.1062 110.298L46.0482 102.617C46.1604 102.081 45.6997 98.0811 45.6593 97.0756C45.5153 93.7154 45.7822 90.35 46.4541 87.0543C48.7421 75.4967 55.691 65.3924 65.6647 59.1204C67.0906 58.2316 68.568 57.428 70.0889 56.7139C70.853 56.3645 72.9977 55.4608 73.537 55.0921L73.6134 55.0387ZM98.5421 130.221C117.746 124.663 128.818 104.599 123.283 85.3888C117.748 66.1781 97.6983 55.0814 78.4808 60.5927C59.2298 66.1135 48.1096 86.2058 53.6542 105.45C59.1987 124.694 79.3047 135.79 98.5421 130.221ZM138.048 127.807C139.287 128.62 140.99 129.543 142.295 130.298L150.023 134.762L156.333 138.404C157.753 139.224 160.198 140.88 161.744 140.943C162.768 140.805 163.684 140.497 164.276 139.608C166.672 136.009 162.458 134.313 160.186 133L154.582 129.765C153.132 128.928 142.004 122.355 141.22 122.289L138.048 127.807Z" fill="black"/>
<path d="M79.3705 73.9751C81.4714 73.3896 83.5797 72.8312 85.6948 72.2999C88.5363 82.7286 91.5744 93.6741 94.2125 104.135C92.1404 104.743 89.9456 105.287 87.8522 105.858C87.2594 103.303 86.3932 100.358 85.7077 97.799L81.6092 82.5083C80.9314 79.9844 79.8768 76.4791 79.3705 73.9751Z" fill="black"/>
<path d="M89.608 112.178C91.7086 111.593 93.8168 111.035 95.9317 110.504C96.3236 111.98 97.4028 115.462 97.5898 116.871C95.5938 117.502 93.306 118.042 91.2622 118.592C90.7612 116.521 90.0079 114.228 89.608 112.178Z" fill="black"/>
</g>
</g>
<defs>
<clipPath id="clip0_230_5141">
<rect width="150" height="150" fill="white"/>
</clipPath>
<clipPath id="clip1_230_5141">
<rect width="112.5" height="112.5" fill="white" transform="translate(36 65.1171) rotate(-15)"/>
</clipPath>
</defs>
</svg>
