<svg width="150" height="150" viewBox="0 0 150 150" fill="none" xmlns="http://www.w3.org/2000/svg">
<g clip-path="url(#clip0_230_5359)">
<rect width="150" height="150" fill="#FFCC00"/>
<g clip-path="url(#clip1_230_5359)">
<path d="M66.9696 102.904C65.7325 101.937 64.8946 101.418 63.6824 100.296C59.4267 96.3501 56.7182 91.0156 56.0439 85.2515C55.2785 78.814 57.0923 72.3353 61.089 67.231C65.1084 62.1068 71.0046 58.7961 77.4722 58.0319C80.1449 57.7087 82.8345 57.8356 85.4581 58.4099C85.5891 58.4386 86.0997 58.5421 86.2666 58.4624C86.8859 58.1667 87.4912 57.4356 88.0627 57.0161C89.2065 56.1063 90.4034 55.3299 91.6983 54.6357C100.296 50.0116 110.819 50.9385 118.476 56.9943C123.597 61.0272 126.896 66.9372 127.641 73.4127C128.068 77.0989 127.644 80.8338 126.401 84.3304C126.056 85.3047 125.471 86.4496 125.192 87.2834C125.855 87.3765 126.736 87.6491 127.385 87.8431C130.281 88.7089 132.918 89.9608 135.485 91.5493C136.329 92.0718 137.231 92.8267 138.036 93.2624C138.376 93.4462 140.09 93.406 140.642 93.4504C141.515 93.5244 142.385 93.6343 143.25 93.7791C150.29 94.9874 156.608 98.8298 160.918 104.527C162.097 106.079 163.102 107.756 163.916 109.527C164.17 110.085 164.813 111.747 165.074 112.162L166.119 116.061C166.109 116.473 166.193 117.03 166.259 117.443C166.503 118.971 166.563 120.431 166.539 121.98C166.358 129.241 163.38 136.152 158.225 141.269C155.577 143.907 152.424 145.983 148.954 147.373C146.551 148.317 144.047 148.931 141.557 149.598L132.511 152.022L102.164 160.151L76.1346 167.125L68.3266 169.219C67.3324 169.488 65.1209 170.155 64.1823 170.295L56.2537 140.705C56.3263 139.982 55.8806 138.032 55.7744 137.2C55.5636 135.488 55.447 133.765 55.425 132.04C55.2939 123.218 57.9134 114.156 63.2571 107.09C64.2583 105.766 65.6776 104.067 66.9166 102.951L66.9696 102.904ZM73.4721 105.948C67.066 110.987 63.2412 119.05 62.2859 127.048C61.8101 131.157 61.987 135.316 62.8102 139.369C63.1232 140.934 63.5461 142.442 63.9588 143.982L65.4536 149.56L68.839 162.172C75.2123 160.563 81.7087 158.743 88.0698 157.038L113.531 150.215L121.892 147.975C123.427 147.564 125.159 147.057 126.694 146.719C125.37 146.028 124.064 145.334 122.828 144.494C117.639 140.977 113.786 135.816 111.891 129.841C109.689 122.87 110.258 115.358 113.567 108.798C113.799 108.338 114.123 107.796 114.324 107.334C110.391 103.689 106.791 101.429 101.527 100.01C100.626 99.7666 98.9681 99.3678 98.0712 99.333C97.1509 100.203 96.3397 100.988 95.3334 101.764C90.9046 105.221 85.4079 107.024 79.792 106.86C77.8876 106.805 76.1063 106.56 74.2608 106.084C73.9986 106.016 73.7434 105.958 73.4721 105.948ZM120.993 93.1916C118.949 95.1444 116.414 97.2943 113.772 98.3891C115.142 99.381 116.472 100.367 117.731 101.497C117.918 101.664 118.134 101.854 118.332 102.004C118.903 101.448 119.492 100.856 120.089 100.333C122.201 98.5282 125.776 96.0865 128.453 95.3105C126.684 94.439 122.967 93.3248 120.993 93.1916ZM144.258 141.974C155.629 138.829 162.304 127.07 159.175 115.695C156.047 104.32 144.297 97.6279 132.917 100.74C121.515 103.858 114.806 115.638 117.941 127.036C121.076 138.434 132.865 145.125 144.258 141.974ZM97.838 59.2098C95.8324 59.8217 94.8699 60.4658 93.1258 61.47C93.9042 61.8899 94.9242 62.6382 95.6216 63.1904C99.5 66.2593 102.35 70.4383 103.79 75.1695C105.294 80.0227 105.237 85.2254 103.627 90.0443C103.216 91.2816 102.76 92.2451 102.254 93.4352L102.33 93.4448C103.187 93.5573 103.971 93.963 104.799 94.0189C105.306 94.0532 106.062 93.9241 106.559 93.8288C108.99 93.3716 111.301 92.419 113.348 91.0297C117.1 88.5757 119.912 84.2379 120.825 79.8669C121.8 75.2052 120.873 70.3472 118.252 66.371C115.617 62.3865 111.504 59.615 106.822 58.6689C103.667 58.0292 100.905 58.2667 97.838 59.2098ZM85.7708 99.4308C95.1939 96.4494 100.418 86.3955 97.4408 76.9709C94.4634 67.5466 84.4117 62.3183 74.986 65.2913C65.5543 68.2662 60.322 78.3256 63.3011 87.7558C66.2802 97.1862 76.3418 102.414 85.7708 99.4308Z" fill="black"/>
<path d="M132.112 109.999C133.945 109.411 136.552 108.8 138.47 108.291C139.103 110.751 139.82 113.198 140.452 115.659C140.595 116.216 140.753 116.747 140.863 117.313C143.88 116.586 146.919 115.64 149.936 114.92C150.063 115.587 150.398 116.695 150.583 117.377L151.623 121.281C149.212 121.965 146.771 122.57 144.356 123.247C143.774 123.41 143.183 123.579 142.591 123.701C142.919 124.74 143.214 125.966 143.5 127.034C144.003 128.888 144.494 130.745 144.974 132.606L144.965 132.7C144.814 132.905 139.395 134.255 138.64 134.487C138.477 133.677 138.142 132.611 137.931 131.786C137.39 129.674 136.759 127.552 136.24 125.436C134.337 125.923 132.439 126.425 130.545 126.942C129.53 127.213 128.167 127.526 127.197 127.845C126.694 125.745 126.037 123.568 125.503 121.451L134.521 119.034C134.251 118.258 133.887 116.708 133.663 115.87C133.129 113.918 132.612 111.96 132.112 109.999Z" fill="black"/>
</g>
</g>
<defs>
<clipPath id="clip0_230_5359">
<rect width="150" height="150" fill="white"/>
</clipPath>
<clipPath id="clip1_230_5359">
<rect width="112.5" height="112.5" fill="white" transform="translate(36 65.1171) rotate(-15)"/>
</clipPath>
</defs>
</svg>
