<svg width="150" height="150" viewBox="0 0 150 150" fill="none" xmlns="http://www.w3.org/2000/svg">
<g clip-path="url(#clip0_227_5122)">
<rect width="150" height="150" fill="#FFCC00"/>
<g clip-path="url(#clip1_227_5122)">
<path d="M61.8768 79.298L99.1916 69.3891C101.671 68.7239 104.259 67.9364 106.699 67.2984C110.788 66.2117 115.143 66.8151 118.783 68.9731C122.113 70.9236 124.604 74.0376 125.775 77.7152C126.186 78.9925 126.557 80.8321 126.914 82.2044C127.589 81.4735 128.803 79.7182 129.451 78.8315L134.174 72.3732C135.592 70.4356 136.726 68.5029 139.039 67.5567C140.806 66.8486 142.782 66.8737 144.529 67.6267C146.16 68.3203 147.588 69.6895 148.168 71.3525C148.976 73.6728 149.607 76.3106 150.245 78.6977L153.916 92.4317L157.575 106.054C158.2 108.383 158.921 110.842 159.403 113.197C159.658 114.442 159.471 115.819 158.966 116.995C158.208 118.764 156.778 120.159 154.992 120.874C151.968 122.068 149.449 120.657 146.711 119.445L142.323 117.518C140.09 116.502 137.839 115.526 135.572 114.589C137.277 120.064 138.196 123.54 135.667 129.181C134.106 132.664 130.363 136.218 126.725 137.316C124.17 138.087 120.979 138.843 118.309 139.558L100.199 144.415L86.7341 148.026C84.306 148.683 80.7796 149.836 78.3879 150.043C75.5254 150.287 72.6511 149.738 70.0806 148.455C66.2916 146.616 63.4074 143.322 62.0837 139.324C61.5157 137.634 60.7069 133.985 60.2019 132.089L55.8153 115.695L52.3623 102.823C51.7601 100.587 50.8318 98.03 50.6419 95.7964C50.3953 92.833 50.976 89.8594 52.3194 87.2066C54.3308 83.195 57.6932 80.6986 61.8768 79.298ZM122.975 130.899C132.306 127.77 130.204 121.661 128.167 114.062L125.329 103.481L121.442 88.9641C120.734 86.3172 120.04 83.5293 119.232 80.935C118.475 78.5059 117.086 75.9885 114.728 74.8239C113.267 74.1025 111.442 73.8974 109.83 74.1282C107.206 74.5037 104.376 75.3492 101.796 76.0415L89.6587 79.2968L73.6765 83.578C71.1682 84.2499 67.4219 85.1377 65.0549 85.9471L65.0121 85.9619C60.0685 87.6821 57.2219 89.907 57.9574 95.7394C58.2864 98.3474 59.0908 100.862 59.7705 103.398L62.7792 114.617L66.4084 128.171C67.3731 131.78 68.4081 137.11 70.6577 140.055C74.1626 144.644 80.369 142.359 84.9805 141.117L94.3226 138.609C103.724 136.088 113.675 133.605 122.975 130.899ZM129.312 91.1238C130.259 95.2958 131.603 99.4818 132.631 103.644C132.802 104.335 133.007 105.137 133.23 105.81C136.129 107.141 139.151 108.355 142.023 109.696C145.507 111.157 148.968 112.796 152.464 114.207L144.143 83.1458C143.374 80.2757 142.63 77.3968 141.816 74.5395C141.798 74.4751 141.631 74.3727 141.581 74.3513C138.85 77.6774 136.167 81.7677 133.511 85.2173C132.807 86.1315 129.666 90.3411 129.312 91.1238Z" fill="black"/>
</g>
</g>
<defs>
<clipPath id="clip0_227_5122">
<rect width="150" height="150" fill="white"/>
</clipPath>
<clipPath id="clip1_227_5122">
<rect width="112.5" height="112.5" fill="white" transform="translate(36.332 65.6172) rotate(-15)"/>
</clipPath>
</defs>
</svg>
