<svg width="512" height="512" viewBox="0 0 512 512" fill="none" xmlns="http://www.w3.org/2000/svg">
<path d="M32.632 219.344C26.7532 184.44 31.4793 153.316 52.304 123.929C70.5955 98.0075 98.4985 80.4835 129.792 75.2645C157.081 70.6095 185.14 75.5715 209.178 89.304C216.049 93.215 222.327 97.913 228.754 102.508C242.466 95.3305 253.511 90.931 269.179 89.201C293.12 86.5815 317.2 92.721 336.963 106.484C343.12 110.789 347.323 115.151 353.033 119.728C358.853 118.113 364.442 116.613 370.4 115.48C430.214 104.123 490.995 141.852 507.265 200.521C509.01 206.806 509.785 215.126 511.85 220.872L512 221.281V245.9L511.85 246.319C510.505 250.139 509.825 255.351 508.935 259.381C496.321 316.439 446.936 352.959 389.843 354.056C385.448 358.822 380.184 364.825 375.411 369.023C358.538 383.769 337.185 392.395 314.803 393.508C305.144 393.834 295.481 392.97 286.032 390.937C280.811 396.658 275.852 402.477 270.094 407.667C249.733 426.211 223.542 437.074 196.033 438.384C164.055 439.902 132.786 428.64 109.119 407.081C104.706 403.034 100.327 397.537 96.5365 394.145C88.5905 392.758 81.694 392.158 73.748 390.041C51.2585 383.824 31.6174 370.007 18.166 350.942C12.1048 342.318 7.4136 333.09 4.46671 322.96C3.64635 320.14 0.87408 306.858 0 305.466V281.151C1.64392 278.688 2.86567 269.279 3.92179 265.834C9.8511 246.489 18.7008 233.308 32.632 219.344ZM66.8955 230.877C47.4785 245.369 34.6664 257.668 30.8895 283.369C28.1065 301.831 32.8782 320.635 44.1271 335.536C54.851 349.843 71.3055 359.937 89.066 362.476C96.8825 363.594 103.466 363.011 111.184 363.391C115.606 368.795 119.747 374.91 124.43 379.956C139.273 395.846 159.406 405.772 181.049 407.869C204.847 410.297 228.622 403.061 247.033 387.788C255.431 380.92 260.42 374.763 266.43 365.653C268.441 362.605 271.441 357.431 273.508 354.68C294.687 362.456 318.764 368.787 340.08 356.485C350.761 351.321 359.965 343.542 366.837 333.872C369.174 330.605 372.397 325.246 374.672 322.407C388.218 323.255 400.093 324.202 413.47 320.766C451.771 310.93 479.322 278.137 481.724 238.556C483.039 214.86 474.933 191.605 459.173 173.859C443.492 156.143 421.402 145.401 397.784 144.006C375.654 142.74 362.804 147.992 343.478 156.652C339.477 151.479 335.743 146.045 331.362 141.212C320.68 129.398 306.173 121.732 290.395 119.564C276.015 117.702 260.118 120.046 247.219 126.85C238.925 131.224 232.815 137.026 225.446 142.427C220.171 136.834 213.872 129.995 208.132 125.092C192.859 112.018 173.582 104.549 153.488 103.92C150.15 103.819 144.401 103.93 141.004 104.224C129.86 105.952 121.796 107.487 111.58 112.25C75.5905 129.028 55.3535 167.768 61.0265 206.876C62.2045 214.998 65.8915 223.388 66.8955 230.877Z" fill="black"/>
</svg>
