<svg width="512" height="512" viewBox="0 0 512 512" fill="none" xmlns="http://www.w3.org/2000/svg">
<g clip-path="url(#clip0_230_5300)">
<path d="M235.075 0H276.394L276.85 0.149862C280.848 1.4204 290.296 2.13192 294.929 2.87519C302.835 4.14366 310.326 5.51795 318.123 7.47905C357.562 17.382 394.074 36.54 424.634 63.3655C432.23 69.989 440.129 78.028 447.236 85.2105C443.679 90.277 425.402 107.804 420.134 113.055L362.792 170.396C355.359 163.331 348.637 156.091 340.605 149.641C315.801 129.789 284.756 119.385 252.998 120.283C216.464 120.98 181.762 136.416 156.78 163.083C132.023 189.456 118.826 224.624 120.121 260.772C121.382 296.609 136.761 330.495 162.904 355.04C189.118 379.731 224.085 392.967 260.078 391.823C310.655 390.085 353.874 362.238 377.207 317.591L284.599 317.638L256.408 317.654C252.011 317.654 244.86 317.425 240.749 317.858C241.097 309.409 241.04 300.434 240.937 291.954C240.555 260.461 241.404 228.754 240.932 197.281C300.598 196.563 361.397 197.175 421.145 197.185L477.124 197.161C483.4 197.157 500.01 196.785 505.655 197.528C507.155 205.371 508.435 213.254 509.505 221.167C510.065 225.246 510.93 233.999 512 237.593V275.696L511.855 276.145C510.3 281.086 509.23 294.544 508.215 300.292C506.475 310.13 504.55 318.432 501.735 328.046C482.192 394.222 436.898 449.781 376.017 482.259C354.24 493.972 331.07 502.145 306.865 507.26C301.178 508.465 281.096 510.49 277.693 512H235.285C233.156 511.12 211.323 508.21 206.888 507.39C191.223 504.385 175.882 499.884 161.074 493.954C89.991 465.48 35.309 406.79 11.9247 333.875C8.74185 323.834 6.6373 314.469 4.38424 304.247C3.00019 297.968 2.303 282.2 0 277.32V234.699C1.61059 231.356 2.25302 220.777 2.92435 216.611C3.63765 212.184 4.44998 207.92 5.35885 203.49C9.88745 181.261 17.4412 159.758 27.8092 139.58C59.568 77.1715 115.549 30.5323 182.665 10.5645C193.383 7.40985 204.28 4.90111 215.298 3.05179C220.626 2.20142 230.281 1.67964 235.075 0ZM271.027 227.771C271.018 246.948 271.46 268.027 270.96 286.984C320.266 287.826 370.877 287.222 420.374 287.382C416.692 297.042 414.273 307.282 410.433 316.945C400.662 341.535 381.272 369.987 359.668 385.527C367.028 393.944 377.294 403.138 385.112 411.352C387.863 414.243 399.481 425.909 402.267 427.887C404.056 426.298 405.857 424.724 407.671 423.164C453.482 380.804 479.244 326.406 481.822 263.859C482.366 250.651 481.458 240.918 480.281 227.837C423.896 226.5 366.878 228.406 310.432 227.624C300.633 227.488 290.525 227.496 280.738 227.752C277.271 227.883 274.489 228.01 271.027 227.771ZM83.723 109.808C92.3265 118.556 100.98 127.256 109.683 135.906C114.955 141.169 121.065 147.549 126.584 152.372C147.675 123.056 184.417 102.44 219.074 94.107C264.343 84.878 306.513 91.3385 346.113 116.58C350.337 119.273 359.213 126.292 362.885 128.236C366.471 123.43 376.379 113.867 381.133 109.244C388.623 101.961 397.007 92.966 404.656 86.079C362.37 48.7323 307.51 28.7816 251.112 30.2391C190.986 31.4816 133.843 56.671 92.366 100.216C89.423 103.357 86.5415 106.555 83.723 109.808ZM65.145 134.65C58.8655 146.472 53.9275 153.73 48.381 166.697C27.2629 215.897 24.2674 270.99 39.9266 322.19C43.8869 335.143 57.0855 367.771 65.902 377.341C70.7785 372.533 75.623 367.691 80.4335 362.818L99.098 344.201C101.817 341.486 107.011 336.582 109.201 333.788C88.043 290.702 83.9785 249.813 98.534 203.224C101.588 193.446 106.086 186.316 109.19 178.013C100.802 169.069 91.2825 160.089 82.6865 151.281C79.773 148.295 67.977 136.23 65.145 134.65ZM339.861 465.718C345.694 463.427 374.129 450.355 376.491 446.272C375.305 443.387 336.987 404.946 333.617 403.42C331.479 403.745 321.266 408.765 318.348 409.958C311.538 412.757 304.549 415.1 297.428 416.97C249.176 429.291 197.942 419.321 157.83 389.806C148.307 382.804 141.125 376.213 133.174 367.486C131.448 365.591 127.659 360.72 125.669 360.297C112.256 373.329 96.516 388.679 83.743 402.263C128.374 451.54 179.746 478.291 246.984 481.717C276.842 483.239 312.247 477.315 339.861 465.718Z" fill="black"/>
</g>
<defs>
<clipPath id="clip0_230_5300">
<rect width="512" height="512" fill="white"/>
</clipPath>
</defs>
</svg>
