<svg width="150" height="150" viewBox="0 0 150 150" fill="none" xmlns="http://www.w3.org/2000/svg">
<g clip-path="url(#clip0_289_57)">
<rect width="150" height="150" fill="#FFCC00"/>
<g clip-path="url(#clip1_289_57)">
<path d="M100.058 54.7208L100.072 54.7168C100.232 54.8227 100.487 55.0809 100.86 55.5806C101.036 55.8166 101.213 56.0672 101.402 56.3413C101.581 56.6004 101.782 56.897 101.983 57.1655C102.285 57.5689 102.907 58.4203 103.699 59.5029C104.484 60.5754 105.427 61.8616 106.36 63.11C107.289 64.3552 108.222 65.5825 108.981 66.5325C109.357 67.0037 109.707 67.4285 110.003 67.76C110.15 67.9247 110.305 68.088 110.452 68.2298C110.556 68.3299 110.806 68.5679 111.129 68.7436L111.575 68.9455C111.743 69.0055 111.933 69.0553 112.141 69.0835C112.552 69.139 112.912 69.0952 113.187 69.0352C114.315 68.7885 115.558 68.1723 116.159 67.9226L116.163 67.9164C118.061 67.1192 119.965 66.3351 121.872 65.5596L121.89 65.5494C123.004 65.0851 123.814 64.712 124.761 64.4115C124.811 64.3957 124.846 64.3939 124.846 64.3939L124.857 64.3962C124.857 64.3962 124.908 64.4202 124.949 64.4822C124.99 64.544 125.001 64.6037 125.001 64.6368C125.001 64.6504 124.998 64.6641 124.998 64.6641C124.998 64.6641 124.989 64.6785 124.975 64.6966C120.51 70.2052 116.028 75.7141 111.535 81.1992C111.463 81.2759 111.395 81.3479 111.346 81.4026C111.269 81.4886 111.217 81.5511 111.167 81.6034C111.143 81.6276 111.124 81.643 111.112 81.655C111.025 81.6905 111.027 81.6638 111.08 81.6741C111.066 81.6697 110.971 81.6358 110.789 81.478C110.574 81.2912 110.336 81.0134 110.057 80.6417C109.921 80.4604 109.786 80.2723 109.645 80.0725C109.511 79.8824 109.361 79.6687 109.214 79.4715L105.568 74.5536C105.124 73.952 104.339 72.7272 103.506 71.8767C103.255 71.6204 102.684 71.0706 101.852 70.8185L101.483 70.7276L101.027 70.6815C99.9948 70.6523 99.2123 71.1536 98.7137 71.6489C98.1612 72.1982 97.7758 72.8479 97.5082 73.3521C97.3694 73.6137 97.2445 73.8772 97.1369 74.0996C97.0238 74.3334 96.9374 74.5194 96.8499 74.6875C96.6843 75.006 96.3607 75.6552 95.9905 76.3981C95.6107 77.1601 95.157 78.0608 94.7015 78.935C94.243 79.8147 93.7973 80.641 93.4253 81.263C93.3425 81.4014 93.2552 81.5161 93.1879 81.6216C92.9747 81.6145 92.7093 81.6137 92.3952 81.5864C91.4207 81.5017 90.1643 81.3299 88.8192 81.138C87.4997 80.9499 86.0894 80.7398 84.8981 80.5872C83.778 80.4437 82.5991 80.316 81.8326 80.3655C81.4724 80.3889 80.664 80.4755 79.9378 80.9575L79.6339 81.1864C79.2601 81.5109 78.9466 81.93 78.7613 82.4528C78.6746 82.6978 78.6249 82.9323 78.6023 83.1434L78.5899 83.6893C78.6199 84.4269 78.8214 85.1293 78.9939 85.6514C79.0839 85.9237 79.1797 86.1909 79.2625 86.417C79.3495 86.6543 79.4187 86.8448 79.4765 87.0182C79.6126 87.4268 79.8876 88.1943 80.1969 89.0746C80.5119 89.971 80.8739 91.0219 81.2156 92.0468C81.5596 93.0786 81.872 94.0587 82.0798 94.818C82.0995 94.8898 82.1131 94.9605 82.1302 95.0258C81.7427 95.1693 81.2916 95.3173 80.6136 95.548L76.5939 96.9201C75.541 97.2828 74.5992 97.6653 73.913 98.1337C73.2175 98.6085 72.231 99.5884 72.4844 101.098C72.5845 101.693 72.8604 102.159 73.0912 102.473C73.3271 102.795 73.6061 103.08 73.8632 103.32C74.3604 103.786 75.04 104.328 75.6811 104.851L79.545 107.993C80.0367 108.394 80.3483 108.671 80.5678 108.867C80.4984 109.02 80.4158 109.202 80.3065 109.433C80.1674 109.727 80.0044 110.08 79.8223 110.49C79.2926 111.683 78.701 112.856 78.0823 114.148C77.7807 114.778 77.4787 115.427 77.1893 116.089L76.3806 118.107C75.9475 119.315 76.392 120.396 76.9687 121.053C77.5098 121.669 78.2743 122.068 79.0519 122.191C80.3535 122.395 81.6585 122.535 82.9196 122.661C84.097 122.779 85.2247 122.888 86.3406 123.025C86.3512 123.544 86.322 124.169 86.3068 124.972L86.1597 132.64C86.1343 133.855 86.0631 135.366 86.124 136.753L86.124 136.832L86.1326 136.904C86.27 138.066 86.9774 139.159 88.1589 139.627C89.399 140.117 90.7169 139.748 91.6329 138.865L93.0707 137.357C93.5223 136.854 93.9481 136.361 94.3496 135.908L100.162 129.357L101.671 127.641C102.052 127.212 102.434 126.796 102.818 126.39C102.854 126.398 102.894 126.406 102.936 126.417C103.186 126.481 103.467 126.577 103.788 126.694C104.059 126.793 104.462 126.949 104.782 127.044C106.336 127.505 107.872 128.083 109.566 128.681C111.216 129.263 112.975 129.847 114.781 130.212C115.615 130.381 116.298 130.084 116.702 129.814C117.089 129.555 117.369 129.232 117.55 128.991C117.918 128.503 118.212 127.912 118.428 127.428C118.848 126.49 119.244 125.294 119.293 125.163L121.595 119.12C121.678 118.903 121.757 118.67 121.824 118.474C121.896 118.266 121.961 118.083 122.027 117.909C122.088 117.747 122.156 117.627 122.201 117.53C122.373 117.471 122.613 117.39 122.931 117.313C123.762 117.114 124.835 116.933 126.01 116.736C127.141 116.546 128.375 116.343 129.387 116.105C129.893 115.986 130.412 115.843 130.868 115.666C131.239 115.522 131.922 115.23 132.41 114.647C132.675 114.33 132.937 113.9 133.064 113.355C133.162 112.934 133.157 112.524 133.084 112.143L132.99 111.774C132.691 110.849 132.071 109.971 131.599 109.349C131.343 109.012 131.081 108.679 130.851 108.395C130.612 108.099 130.416 107.864 130.262 107.658L124.111 99.4178L122.547 97.3505C122.065 96.7051 121.608 96.0665 121.184 95.4241C121.185 95.4127 121.187 95.3997 121.189 95.3857C121.199 95.3336 121.216 95.2853 121.233 95.2528L121.24 95.2404C121.388 95.1152 121.486 95.0662 121.682 95.0115L121.697 95.0075C123.166 94.586 124.636 94.2099 126.169 93.8038L143.4 89.1974C145.279 88.6844 147.289 88.1634 149.274 87.597C149.558 87.5162 149.746 87.5445 149.845 87.5757C149.95 87.6086 150.006 87.6583 150.029 87.6897C150.051 87.7184 150.05 87.7473 150.05 87.7473L149.921 87.9978C149.771 88.1798 149.338 88.5698 148.683 89.104L146.984 90.4654L140.559 95.7797L140.537 95.7962C140.306 95.9923 140 96.2402 139.62 96.5423C139.252 96.8352 138.83 97.1701 138.419 97.512C137.872 97.9683 137.169 98.5749 136.63 99.2084L136.155 99.8466C135.82 100.39 135.799 100.928 135.815 101.223C135.832 101.536 135.903 101.806 135.964 101.995C136.086 102.373 136.272 102.744 136.443 103.052C136.795 103.686 137.29 104.411 137.769 105.077C138.682 106.348 139.888 107.864 140.066 108.102L147.576 118.154C148.374 119.219 149.09 120.111 149.67 121.012C147.978 121.436 146.154 121.631 144.131 121.927L132.685 123.613L132.679 123.61C132.153 123.689 131.606 123.752 130.865 123.853C130.214 123.943 129.441 124.059 128.809 124.236C128.111 124.433 127.682 124.897 127.498 125.114C127.275 125.377 127.1 125.664 126.969 125.904C126.704 126.389 126.469 126.957 126.281 127.463C125.928 128.412 125.56 129.644 125.5 129.822L123.117 136.829L122.496 138.718C122.4 139.009 122.307 139.293 122.206 139.57L121.875 140.391C121.825 140.507 121.748 140.591 121.689 140.646C121.635 140.635 121.564 140.624 121.477 140.603C121.133 140.521 120.667 140.391 120.103 140.218C118.981 139.873 117.564 139.39 116.103 138.877C114.646 138.366 113.166 137.829 111.928 137.378C110.705 136.932 109.689 136.56 109.196 136.387C108.97 136.308 108.725 136.214 108.443 136.104C108.17 135.999 107.857 135.879 107.542 135.766C106.926 135.544 106.162 135.298 105.365 135.206L104.95 135.175C104.455 135.166 103.752 135.254 103.066 135.77C102.64 136.089 102.168 136.589 101.773 137.027C101.342 137.506 100.863 138.069 100.402 138.627C99.4217 139.816 98.6132 140.853 98.1221 141.435L85.4655 156.437L85.4619 156.443L81.5618 161.087C81.153 161.574 80.648 162.236 80.0094 162.957C79.7072 163.298 79.4391 163.578 79.2263 163.767C79.1999 163.79 79.1725 163.806 79.1516 163.824C79.0242 163.845 78.9356 163.856 78.8744 163.856C78.8135 163.699 78.7481 163.424 78.7183 162.997C78.6871 162.547 78.6969 162.042 78.7258 161.504C78.7709 160.664 78.7289 159.377 78.7234 158.67L78.7296 158.674L78.6637 142.35C78.6603 141.521 78.6865 139.116 78.6667 136.95C78.6567 135.846 78.6345 134.743 78.5905 133.841C78.5686 133.391 78.5366 132.967 78.498 132.607C78.4663 132.311 78.4115 131.859 78.2731 131.471L78.1072 131.01L77.7572 130.672L77.4797 130.446C77.203 130.248 76.9368 130.135 76.7995 130.08C76.5589 129.985 76.3 129.909 76.0595 129.846C75.5749 129.72 74.9848 129.602 74.3569 129.497C73.0903 129.283 71.4878 129.077 69.8956 128.885C68.2761 128.689 66.6787 128.509 65.33 128.338C64.6235 128.249 64.0473 128.167 63.6092 128.099L62.7178 127.932C62.5875 127.895 62.5007 127.846 62.4383 127.817C62.443 127.786 62.4471 127.75 62.4564 127.707C62.5264 127.388 62.6963 126.963 62.9656 126.427C63.0949 126.17 63.2332 125.912 63.3797 125.642C63.5201 125.383 63.6766 125.097 63.8132 124.831L63.8168 124.824L67.7368 117.115C68.3014 116.013 69.2632 114.218 69.7908 112.93C70.1294 112.103 69.9294 111.35 69.7759 110.958C69.6116 110.54 69.3675 110.18 69.1619 109.911C68.7435 109.365 68.1857 108.82 67.6785 108.365C66.7204 107.504 65.3836 106.483 65.1742 106.307L57.3453 99.744C56.7436 99.2394 56.2559 98.868 55.6584 98.3469C55.2159 97.9609 54.908 97.6348 54.7087 97.3898L54.712 97.3625C54.6778 97.4369 54.7238 97.2658 55.3927 96.98C55.7154 96.8421 56.0873 96.715 56.5097 96.5858C56.8824 96.4719 57.3947 96.3226 57.7902 96.19L65.9367 93.4699C66.1513 93.398 67.5604 92.9853 68.6291 92.5956C69.1947 92.3894 69.8267 92.1338 70.3505 91.8499C70.6059 91.7114 70.9213 91.5182 71.2054 91.2679C71.4243 91.0749 71.9908 90.5295 72.0935 89.6445C72.1951 88.7549 72.0035 87.7116 71.8471 86.9869C71.6964 86.289 71.4296 85.2816 71.3446 84.9142L69.2354 75.7388C68.8457 74.0451 68.4332 72.8248 68.2697 71.4828C68.2512 71.3309 68.2491 71.2496 68.2506 71.214C68.2736 71.1506 68.2957 71.1175 68.3059 71.1044C68.6053 71.031 69.1876 71.0257 70.0927 71.1366C70.5142 71.1882 70.9492 71.254 71.3924 71.3257C71.818 71.3945 72.2794 71.473 72.6898 71.5259C73.1114 71.5803 74.206 71.7323 75.6565 71.9321C77.0955 72.1303 78.8633 72.3726 80.6034 72.5979C82.341 72.8229 84.0684 73.0358 85.4149 73.1735C86.0849 73.2421 86.6868 73.2917 87.1577 73.3177C87.3901 73.3304 87.6234 73.341 87.8299 73.3377C87.932 73.3361 88.0551 73.33 88.1841 73.3166C88.2806 73.3065 88.5284 73.2786 88.803 73.1771C89.8731 72.7807 90.4284 71.8404 90.5493 71.6555C91.5201 70.1745 92.3783 68.3449 93.0753 67.0593L97.8749 58.2083C98.5678 56.9298 99.1613 55.7319 99.8338 54.7544C99.9485 54.7318 100.019 54.7185 100.058 54.7208Z" fill="black"/>
</g>
</g>
<defs>
<clipPath id="clip0_289_57">
<rect width="150" height="150" fill="white"/>
</clipPath>
<clipPath id="clip1_289_57">
<rect width="112.5" height="112.5" fill="white" transform="translate(36.332 65.6172) rotate(-15)"/>
</clipPath>
</defs>
</svg>
