<svg width="150" height="150" viewBox="0 0 150 150" fill="none" xmlns="http://www.w3.org/2000/svg">
<g clip-path="url(#clip0_227_599)">
<rect width="150" height="150" fill="#FFCC00"/>
<g clip-path="url(#clip1_227_599)">
<path d="M123.773 41.5985L127.137 40.6971L127.228 40.7135C128.059 40.8589 128.945 40.8348 129.875 40.9869C132.32 41.387 134.662 42.8998 136.099 44.907C137.633 47.0767 138.254 49.7622 137.827 52.3849C137.358 55.0342 135.858 57.3896 133.655 58.9345C131.559 60.3997 128.776 60.8931 126.267 60.5357C123.403 65.0792 120.266 70.8186 117.561 75.5255C113.851 81.9783 109.848 88.6326 106.284 95.1149C107.837 96.5055 109.137 98.1079 110.053 99.9896C112.356 99.4967 114.772 98.8388 117.042 98.1968C124.546 96.0745 132.219 94.283 139.7 92.1104C140.129 89.2008 141.226 86.7682 143.646 84.9677C145.772 83.3745 148.447 82.7008 151.074 83.0975C153.584 83.4785 155.989 84.8083 157.489 86.8759C157.967 87.5352 158.39 88.2773 158.841 88.8977L159.614 91.786C159.512 93.6438 159.488 95.09 158.729 96.8226C155.725 103.689 146.983 104.943 142.012 99.2764C141.833 99.0727 141.656 98.8665 141.482 98.6581C134.597 100.276 126.875 102.526 119.988 104.377L114.986 105.729C114.123 105.971 112.732 106.426 111.903 106.555C111.728 108.905 111.763 110.4 110.977 112.696L120.545 118.217C121.618 118.836 124.365 120.507 125.319 120.891C127.917 119.117 130.399 118.176 133.602 118.771C136.196 119.252 138.489 120.753 139.969 122.936C141.444 125.142 141.993 127.839 141.498 130.445C140.978 133.031 139.46 135.307 137.274 136.781C135.099 138.243 132.431 138.774 129.862 138.259C127.45 137.775 124.88 136.214 123.557 134.117C121.906 131.5 121.822 129.63 121.924 126.697C120.462 125.763 108.662 118.86 107.734 118.682C107.137 118.991 106.533 119.601 106.002 120.042C105.014 120.861 103.918 121.726 102.763 122.295C104.236 128.651 106.363 135.877 108.073 142.249C111.193 142.833 113.632 143.901 115.493 146.619C116.967 148.782 117.523 151.441 117.04 154.013C116.461 157.012 114.75 159.264 112.204 160.842C111.98 160.98 111.731 161.142 111.561 161.339L108.227 162.232C107.925 162.161 107.047 162.097 106.726 162.083C99.0356 161.747 94.8318 153.006 99.0401 146.657C99.8397 145.45 100.519 144.877 101.648 143.955C101.235 141.932 100.357 139.014 99.7997 136.932L96.3431 124.073C93.6507 123.996 92.6334 123.84 90.0376 123.227L82.3104 136.579C80.6091 139.525 78.7356 142.647 77.137 145.621C78.7375 147.551 79.5667 150.005 79.4648 152.51C79.3258 155.173 78.1335 157.672 76.1507 159.456C71.7198 163.477 64.6488 162.547 61.4325 157.688C61.1313 157.233 60.7929 156.657 60.424 156.269L59.5191 152.891C59.5837 152.717 59.6461 152.303 59.6446 152.129C59.6041 147.337 62.8644 143.247 67.5902 142.34C68.9318 142.083 70.0487 142.12 71.4971 142.185C71.9627 140.971 74.2801 137.278 75.0461 135.886C77.9677 130.575 81.4425 125.166 84.2833 119.837C82.559 118.2 81.701 117.076 80.575 114.992C77.6573 115.425 73.0461 117.232 70.1254 117.75C69.5075 120.507 68.8169 122.333 66.682 124.338C62.7183 128.061 56.1839 127.495 52.6947 123.429C52.0954 122.731 51.6023 121.757 51.0087 121.13L50.1011 117.743C50.1965 117.455 50.2757 116.304 50.3033 115.931C50.4988 113.283 51.8067 110.799 53.9155 109.129C55.9955 107.472 58.6531 106.718 61.2934 107.035C64.2832 107.4 66.4696 108.852 68.298 111.176C71.4099 110.561 75.5508 109.32 78.7132 108.472C78.7817 105.792 78.8936 104.809 79.5729 102.235C78.8286 101.73 77.3968 100.957 76.5829 100.487L70.8178 97.1584C66.4587 94.6427 61.6188 91.7076 57.2133 89.3465C52.5861 92.5222 47.4832 92.6746 43.3081 88.3323C42.6675 87.666 42.2549 86.7153 41.6456 86.0463L41.5927 85.9892L40.6727 82.556C40.7862 82.236 40.9047 80.5784 40.9702 80.1032C41.307 77.6085 42.6342 75.3544 44.6523 73.8498C46.7709 72.2337 49.4491 71.5344 52.0873 71.9086C54.6872 72.2693 57.0396 73.6419 58.633 75.7279C60.3637 78.0275 60.8863 80.7243 60.4987 83.5365C65.3989 86.6218 70.8635 89.3762 75.8423 92.4031C77.9649 93.6936 80.7008 95.336 82.9167 96.4153C84.7461 94.5868 85.6907 93.8736 87.922 92.6085C87.3012 90.2793 86.6856 87.823 85.9893 85.5244C83.3889 84.9647 81.5659 84.3669 79.6168 82.444C77.8062 80.6576 76.8053 77.848 76.8281 75.3236C76.8435 72.7192 77.9005 70.2291 79.7633 68.4089C81.6868 66.5622 84.2625 65.5513 86.9285 65.5965C89.5735 65.6408 92.0911 66.7399 93.9218 68.6493C95.743 70.5817 96.7249 73.1566 96.6529 75.811C96.5526 79.3436 94.8673 81.4789 92.4397 83.7614C92.825 85.7102 93.7673 88.8802 94.3058 90.8879C95.2169 90.8728 96.1278 90.9221 97.0319 91.0354C98.0616 91.1602 99.4028 91.5081 100.44 91.5113C100.63 91.5119 100.942 91.0243 101.051 90.8366C102.724 87.9715 104.389 85.0702 106.047 82.1981L116.046 64.8743C117.408 62.5149 119.052 59.489 120.496 57.249L120.416 57.1467C117.129 52.8874 117.372 46.9489 121.43 43.2908C122.084 42.7007 123.042 42.1599 123.773 41.5985ZM99.1012 116.601C104.132 114.505 106.52 108.735 104.442 103.697C102.364 98.659 96.6031 96.25 91.5574 98.3094C86.4856 100.379 84.0613 106.177 86.1498 111.241C88.2384 116.305 94.0445 118.708 99.1012 116.601ZM108.846 155.086C110.421 154.234 111.021 152.274 110.192 150.686C109.363 149.099 107.412 148.471 105.812 149.276C104.757 149.808 104.069 150.867 104.013 152.048C103.957 153.229 104.542 154.349 105.543 154.978C106.544 155.607 107.806 155.648 108.846 155.086ZM129.572 53.6312C130.617 53.0845 131.287 52.0189 131.328 50.8406C131.368 49.6623 130.773 48.5531 129.768 47.9359C128.764 47.3187 127.505 47.2888 126.472 47.8574C124.899 48.7237 124.316 50.6953 125.166 52.2778C126.015 53.8602 127.981 54.4639 129.572 53.6312ZM130.063 125.733C128.53 126.669 128.038 128.664 128.959 130.205C129.88 131.746 131.871 132.257 133.42 131.35C134.99 130.432 135.509 128.409 134.576 126.848C133.643 125.287 131.616 124.786 130.063 125.733ZM49.7413 78.6039C48.0141 79.1419 47.0509 80.9793 47.5912 82.7058C48.1315 84.4324 49.9702 85.3931 51.696 84.8505C53.4186 84.309 54.377 82.4745 53.8378 80.7512C53.2985 79.0279 51.4654 78.067 49.7413 78.6039ZM70.9557 155.008C72.0267 154.502 72.7412 153.458 72.8238 152.276C72.9066 151.095 72.3448 149.961 71.3547 149.311C70.3646 148.661 69.1006 148.596 68.0495 149.142C66.4665 149.964 65.833 151.903 66.6249 153.501C67.4168 155.099 69.3426 155.769 70.9557 155.008ZM58.4946 114.059C56.9592 114.949 56.4132 116.901 57.2637 118.459C58.1141 120.017 60.0512 120.613 61.6306 119.803C62.6893 119.26 63.37 118.186 63.4087 116.997C63.4474 115.808 62.8379 114.691 61.8168 114.081C60.7957 113.47 59.5237 113.462 58.4946 114.059ZM147.963 90.094C146.41 91.0147 145.895 93.0188 146.813 94.5739C147.73 96.129 149.733 96.6478 151.29 95.7338C152.852 94.8171 153.373 92.8067 152.453 91.2469C151.532 89.6872 149.521 89.1706 147.963 90.094ZM85.6639 72.4115C84.5484 72.7982 83.7274 73.755 83.5146 74.9161C83.3017 76.0773 83.7301 77.2631 84.6359 78.0201C85.5416 78.7771 86.7847 78.9883 87.8896 78.5728C89.5674 77.9418 90.4265 76.0796 89.8175 74.3937C89.2084 72.7077 87.3575 71.8245 85.6639 72.4115Z" fill="black"/>
</g>
</g>
<defs>
<clipPath id="clip0_227_599">
<rect width="150" height="150" fill="white"/>
</clipPath>
<clipPath id="clip1_227_599">
<rect width="112.5" height="112.5" fill="white" transform="translate(36 65.1171) rotate(-15)"/>
</clipPath>
</defs>
</svg>
