<svg width="512" height="512" viewBox="0 0 512 512" fill="none" xmlns="http://www.w3.org/2000/svg">
<path d="M240.147 0H271.361L271.822 0.155714C275.929 1.50399 282.408 1.93133 286.832 2.83597C292.848 4.06633 298.654 5.63565 304.501 7.49775C345.222 20.4842 379.151 49.0528 398.883 86.967C415.92 119.652 417.763 148.434 416.98 184.351C416.717 196.42 417.328 209.45 416.898 221.501C430.827 224.983 444.57 229.17 458.075 234.046C459.146 244.388 458.833 254.432 458.772 264.801L458.698 300.146L458.725 428.938L458.671 465.441C458.653 468.485 458.104 476.749 458.352 478.961C418.71 493.046 377.978 501.45 336.345 507.11C325.646 508.56 314.696 509.01 303.95 510.075C300.363 510.43 291.244 511 288.262 512H224.717C220.921 510.84 203.852 509.73 198.614 509.285C184.619 508.095 172.373 506.545 158.483 504.425C132.734 500.5 107.244 495.029 82.151 488.048C70.937 484.871 60.805 481.109 50.0125 477.915L50.0355 316.628L50.025 265.077C50.0205 255.633 49.7449 244.297 50.23 235.003C54.748 233.84 61.1345 231.4 65.7495 229.901C75.3195 226.743 85.031 224.031 94.8525 221.773C95.6595 171.915 89.3355 132.163 113.357 86.4285C132.66 49.3943 165.604 21.3143 205.228 8.12145C214.649 5.07645 223.983 3.01028 233.75 1.46033C235.761 1.14119 237.78 0.767795 239.72 0.1413L240.147 0ZM80.3145 256.963C79.769 264.455 80.0205 274.07 80.0255 281.709L80.033 321.951L80.0145 455.918C144.348 475.188 211.402 483.791 278.516 481.387C330.526 479.322 382.075 470.77 431.966 455.931L432.012 321.635L432.016 279.151C432.016 273.16 432.347 262.548 431.838 257C383.954 242.846 334.563 234.408 284.695 231.863C268.513 231.127 248.983 231.392 232.735 231.745C181.993 233.404 128.995 243.118 80.3145 256.963ZM249.806 100.669C232.072 102.886 219.27 109.491 207.827 123.678C189.315 146.629 196.507 175.925 194.874 203.796C218.061 201.669 241.341 200.717 264.625 200.943C278.849 201.101 302.609 202.193 316.97 204.079C316.022 172.185 323.211 140.714 297.965 116.893C286.238 105.762 270.549 99.779 254.388 100.277C252.855 100.327 251.325 100.457 249.806 100.669ZM164.895 207.857L164.948 177.075C164.946 169.987 164.745 162.82 165.212 155.755C168.493 106.06 208.095 69.8715 257.407 70.0405C258.697 70.042 259.987 70.0665 261.276 70.114C287.966 72.7915 308.918 82.4445 326.312 103.354C345.432 126.34 347.843 150.301 346.991 178.852C346.718 187.982 347.269 198.272 346.897 207.519C360.316 209.565 373.688 211.908 387.003 214.547C385.706 172.973 392.425 140.135 372.418 101.269C365.466 87.756 356.216 75.5555 345.081 65.214C320.022 41.8237 286.755 29.2515 252.489 30.2224L252.231 30.2311C215.278 32.1926 183.603 45.7849 158.545 73.5635C149.526 83.574 142.122 94.93 136.601 107.221C120.054 144.078 126.286 175.479 124.918 214.24C137.842 212.683 151.98 208.809 164.895 207.857Z" fill="black"/>
<path d="M252.019 284.201C257.441 283.781 262.894 284.295 268.142 285.721C279.665 288.976 289.425 296.674 295.274 307.122C301.04 317.492 302.472 329.722 299.255 341.143C294.617 357.571 285.027 364.19 271.231 371.97C270.442 384.141 270.967 401.549 271.005 414.169L261.077 414.161L240.839 414.1C241.468 404.791 241.048 381.013 240.735 371.604C236.534 369.758 232.36 367.518 228.702 364.741C219.122 357.535 212.877 346.749 211.398 334.852C209.887 322.983 213.11 310.995 220.37 301.483C228.749 290.583 238.708 285.937 252.019 284.201ZM259.753 343.374C264.928 342.012 268.971 337.974 270.338 332.8C271.706 327.627 270.187 322.118 266.361 318.377C262.535 314.636 256.994 313.24 251.852 314.722C244.031 316.978 239.479 325.105 241.643 332.953C243.807 340.8 251.881 345.447 259.753 343.374Z" fill="black"/>
<path d="M458.075 234.046C459.737 234.665 460.654 234.685 461.641 235.895C462.223 241.409 462.035 249.421 462.036 255.106L462.037 285.614L462.027 384.618L462.023 449.444C462.024 454.128 462.251 474.38 461.531 477.398C460.436 477.98 459.509 478.486 458.352 478.96C458.104 476.749 458.653 468.485 458.671 465.441L458.725 428.938L458.698 300.146L458.772 264.8C458.833 254.431 459.146 244.388 458.075 234.046Z" fill="black" fill-opacity="0.980392"/>
</svg>
