<svg width="512" height="512" viewBox="0 0 512 512" fill="none" xmlns="http://www.w3.org/2000/svg">
<g clip-path="url(#clip0_280_709)">
<path d="M254.424 82.4011C258.492 81.8811 275.278 92.6226 279.518 95.0736L317.333 116.904C346.152 133.533 378.938 151.524 406.905 168.789C407.842 203.352 407.046 241.135 407.069 275.951L407.095 317.838C407.098 325.406 407.393 335.846 406.721 343.125C403.42 345.704 394.047 350.826 389.991 353.165L358.259 371.458C324.714 390.808 290.864 410.843 257.163 429.807C254.399 430.468 239.57 421.064 235.927 418.962L198.737 397.498C168.355 379.955 134.693 361.407 104.945 343.217C104.757 334.887 104.71 326.147 104.864 317.817C105.779 268.376 103.562 218.13 105.042 168.789C107.862 166.56 117.259 161.409 120.64 159.463L151.882 141.461C185.724 121.903 220.339 101.347 254.424 82.4011ZM149.982 177.007C156.284 181.353 164.513 185.855 171.255 189.753L204.818 209.146L236.648 227.515C240.511 229.744 253.82 238.233 257.296 237.92C281.2 223.326 306.59 209.746 330.704 195.383C339.68 190.037 353.593 182.825 361.81 177.145C326.878 158.052 292.87 136.684 257.931 117.555C257.026 117.059 255.863 116.881 254.844 117.021C245.699 121.843 235.978 127.713 226.932 132.94L180.71 159.668C172.854 164.219 157.907 173.424 150.259 176.885L149.982 177.007ZM134.93 309.004L173.827 286.522C181.83 281.903 190.908 276.388 199.151 272.383C201.777 277.394 212.317 293.784 212.638 297.719C209.76 301.926 158.988 329.931 150.341 335.019C156.122 337.838 173.626 347.855 179.074 351.435L220.297 375.237C224.43 377.627 237.238 385.337 240.99 386.718C240.577 346.418 241.767 304.75 240.783 264.67L171.23 224.465C162.704 219.524 143.033 207.287 134.948 203.893L134.93 309.004ZM377.064 308.717C376.698 283.365 377.167 257.807 376.984 232.451C376.954 228.245 377.25 207.18 376.721 204.841C376.02 204.428 376.276 204.439 375.553 204.407C343.074 222.689 311.033 241.86 278.61 260.249C276.259 261.583 273.223 263.438 271.133 265.122C270.716 279.098 270.996 294.229 271 308.273L271.017 387.047L335.232 349.895C344.024 345.001 352.525 339.645 361.464 335.105C350.645 327.993 336.416 320.622 325.073 313.835C318.595 309.959 304.489 301.415 298.079 298.505C302.466 289.883 308.17 280.796 312.957 272.246C332.674 283.269 352.058 294.964 371.759 306.023C373.375 306.93 375.358 308.027 377.064 308.717Z" fill="black"/>
<path d="M235.738 0H275.93L276.418 0.148347C281.68 1.70006 289.877 1.86037 295.509 2.83478C306.051 4.65856 316.632 6.91965 326.906 9.8852C391.93 28.7532 446.896 72.49 479.889 131.613C493.204 155.525 502.565 181.433 507.6 208.333C508.625 213.88 510.91 234.478 512 237.631V274.863C510.66 278.983 510.02 286.499 509.465 290.99C502.605 346.31 472.323 406.799 430.064 443.707C436.547 443.631 442.558 443.554 449.036 443.846C448.78 453.521 449.011 464.141 448.957 473.902C429.365 473.564 409.651 473.96 390.048 473.813C384.144 473.769 377.879 473.688 372.004 474.08C372.477 456.381 371.702 437.807 372.029 420.031C372.166 412.549 371.714 403.934 372.294 396.562C378.546 397.127 395.377 396.72 402.01 396.704C402.029 406.933 401.826 418.244 402.326 428.382C424.106 407.735 438.091 393.429 453.19 366.399C482.552 313.869 489.785 251.809 473.292 193.935C456.782 136.373 418.158 87.6855 365.86 58.515C310.569 27.8064 249.386 22.9027 188.974 40.1446C186.789 31.2084 183.108 20.3503 180.581 11.1391C192.353 7.96245 202.386 5.28135 214.528 3.21716C219.415 2.38635 231.909 1.35161 235.738 0Z" fill="black"/>
<path d="M62.9345 38.5557C85.7935 37.8231 113 38.1405 136.008 38.4798C137.378 42.3174 137.094 107.815 135.959 113.754C132.082 113.726 113.365 112.988 111.14 114.67L110.8 115.686C109.344 114.154 110.163 87.8346 109.887 83.6741C64.11 122.224 35.6367 177.47 30.8008 237.121C25.7364 296.489 44.4189 355.443 82.7525 401.058C120.837 446.761 175.508 475.474 234.752 480.886C268.287 483.648 290.421 480.642 322.734 472.213C324.819 478.894 330.215 494.674 331.269 500.775C321.968 503.625 314.518 505.665 305.017 507.57C299.628 508.655 280.654 510.485 276.926 512H235.732C231.327 510.455 212.878 508.63 206.801 507.415C185.351 503.13 165.631 496.726 145.895 487.337C81.0875 456.353 32.1922 399.676 11.0444 331.026C7.8601 320.593 5.62 310.544 3.64466 299.836C2.50197 293.641 2.12267 282.215 0 276.708V235.221C1.22788 232.488 2.8606 217.946 3.506 213.813C4.52912 207.509 5.769 201.242 7.2235 195.024C18.2756 148.718 46.1384 99.8365 81.981 68.2285C76.4295 68.667 68.549 68.4266 62.835 68.3916C63.343 60.1336 62.938 47.1531 62.9345 38.5557Z" fill="black"/>
<path d="M136.008 38.4798C137.425 38.4412 138.626 38.2082 139.723 38.9775C140.258 42.0202 140.085 60.524 140.027 64.7515C139.799 81.424 140.365 98.902 139.898 115.493C129.919 115.813 120.659 115.565 110.8 115.686L111.14 114.67C113.365 112.988 132.082 113.726 135.959 113.754C137.094 107.815 137.378 42.3173 136.008 38.4798Z" fill="black" fill-opacity="0.980392"/>
</g>
<defs>
<clipPath id="clip0_280_709">
<rect width="512" height="512" fill="white"/>
</clipPath>
</defs>
</svg>
