<svg width="150" height="150" viewBox="0 0 150 150" fill="none" xmlns="http://www.w3.org/2000/svg">
<g clip-path="url(#clip0_227_666)">
<rect width="150" height="150" fill="#FFCC00"/>
<g clip-path="url(#clip1_227_666)">
<path d="M94.6849 68.1369C95.5187 67.7952 99.6924 69.1204 100.732 69.3994L109.999 71.8822C117.061 73.7726 125.043 75.7265 131.96 77.8003C134.125 85.0827 136.104 93.147 138.089 100.535L140.477 109.424C140.908 111.03 141.564 113.229 141.836 114.812C141.282 115.547 139.584 117.167 138.856 117.894L133.161 123.581C127.142 129.596 121.097 135.773 115.023 141.714C114.474 142.012 110.792 140.859 109.899 140.62L100.785 138.18C93.3394 136.184 85.1402 134.162 77.7919 131.993C77.2784 130.236 76.7714 128.384 76.3303 126.607C73.7127 116.061 70.3848 105.523 67.8929 94.9671C68.3646 94.3336 70.0661 92.706 70.6731 92.1008L76.2801 86.5032C82.3504 80.4277 88.5283 74.0964 94.6849 68.1369ZM77.8983 94.1557C79.483 94.7196 81.4856 95.2071 83.1381 95.651L91.3645 97.8583L99.1647 99.9468C100.111 100.2 103.419 101.245 104.139 100.981C108.382 96.524 112.999 92.1978 117.3 87.7782C118.901 86.133 121.444 83.8112 122.864 82.1383C114.365 80.0725 105.932 77.4715 97.4285 75.3984C97.2081 75.3447 96.9512 75.3731 96.743 75.4607C95.0762 77.0042 93.3468 78.803 91.7241 80.4268L83.4339 88.7281C82.0255 90.1408 79.3766 92.9444 77.9502 94.1139L77.8983 94.1557ZM82.2102 123.027L89.1873 116.043C90.6231 114.608 92.2361 112.921 93.7579 111.602C94.6003 112.516 97.7694 115.395 98.0612 116.212C97.6896 117.269 88.5065 126.1 86.9605 127.672C88.3478 127.941 92.6325 129.072 93.9925 129.522L104.095 132.229C105.108 132.501 108.265 133.409 109.14 133.489C106.76 124.959 104.643 116.048 102.155 107.597L85.1069 103.02C83.0164 102.456 78.1455 100.977 76.2365 100.717L82.2102 123.027ZM133.584 109.196C132.065 103.836 130.711 98.3846 129.23 93.0135C128.985 92.1226 127.85 87.6348 127.604 87.1686C127.432 87.1208 127.487 87.1086 127.332 87.1428C121.478 92.8701 115.768 98.761 109.932 104.508C109.509 104.925 108.97 105.491 108.622 105.967C109.329 108.957 110.249 112.153 111.048 115.133L115.532 131.851L127.048 120.314C128.635 118.775 130.135 117.155 131.774 115.683C129.074 114.789 125.634 114.034 122.841 113.239C121.246 112.784 117.766 111.773 116.24 111.52C116.681 109.441 117.374 107.188 117.904 105.101C122.716 106.319 127.495 107.699 132.305 108.926C132.7 109.026 133.183 109.146 133.584 109.196Z" fill="black"/>
<path d="M86.033 51.7108L94.5631 49.4252L94.6752 49.4289C95.8803 49.459 97.6292 49.0268 98.8799 48.9134C101.221 48.701 103.595 48.5791 105.945 48.6242C120.818 48.9309 134.972 55.0876 145.336 65.7596C149.522 70.0773 152.982 75.0437 155.581 80.4667C156.114 81.5857 157.77 85.8274 158.181 86.4347L160.298 94.3367C160.248 95.2874 160.539 96.919 160.677 97.9038C162.367 110.035 159.38 124.595 152.51 134.832C153.881 134.447 155.153 134.089 156.544 133.782C157.04 135.85 157.693 138.091 158.237 140.166C154.06 141.208 149.898 142.413 145.729 143.497C144.474 143.824 143.139 144.163 141.915 144.58C141.009 140.797 139.788 136.899 138.846 133.107C138.45 131.511 137.864 129.709 137.568 128.111C138.927 127.875 142.476 126.832 143.883 126.451C144.468 128.621 145.069 131.033 145.751 133.157C149.2 127.536 151.354 123.704 153.022 117.109C156.266 104.29 154.272 90.7072 147.48 79.362C140.703 68.0838 129.736 59.9471 116.978 56.7301C103.496 53.3569 90.2321 55.7955 78.3907 62.8906C77.4188 61.1182 76.0202 59.023 74.9599 57.2117C77.2777 55.8681 79.2546 54.7285 81.7143 53.5999C82.7042 53.1456 85.2972 52.2154 86.033 51.7108Z" fill="black"/>
<path d="M51.5498 69.7211C56.3598 68.2657 62.152 66.7858 67.0546 65.5494C67.5635 66.286 71.2282 80.2033 71.3249 81.5284C70.5005 81.7429 66.486 82.6507 66.1095 83.1341L66.0951 83.369C65.6989 83.1268 64.3761 77.4942 64.0809 76.6269C56.5575 87.412 53.6561 100.757 56.0221 113.692C58.3235 126.58 65.6413 138.03 76.3713 145.531C87.0534 153.066 100.29 156.05 113.171 153.83C120.446 152.509 124.973 150.612 131.351 146.986C132.174 148.285 134.216 151.327 134.787 152.562C132.975 153.696 131.51 154.553 129.602 155.497C128.52 156.034 124.597 157.502 123.892 158.035L115.149 160.378C114.126 160.3 110.107 160.962 108.748 161.05C103.952 161.36 99.402 161.123 94.6793 160.252C79.1625 157.362 65.5618 148.113 57.1693 134.746C55.9002 132.713 54.8533 130.707 53.825 128.547C53.2302 127.297 52.4999 124.894 51.7362 123.846L49.3769 115.04C49.4821 114.39 49.0016 111.211 48.9035 110.297C48.7622 108.901 48.6689 107.501 48.624 106.098C48.3363 95.6417 51.4701 83.6825 57.2797 74.9357C56.1264 75.3445 54.4402 75.7416 53.2255 76.0591C52.8637 74.2776 52.0395 71.5456 51.5498 69.7211Z" fill="black"/>
<path d="M67.0546 65.5494C67.3532 65.4606 67.5947 65.3429 67.8713 65.4438C68.1579 66.0591 69.1736 69.9962 69.4017 70.8967C70.3015 74.4483 71.4154 78.1256 72.2599 81.6733C70.1602 82.3088 68.1808 82.7828 66.0952 83.3691L66.1095 83.1341C66.486 82.6507 70.5005 81.7429 71.3249 81.5284C71.2282 80.2033 67.5635 66.286 67.0546 65.5494Z" fill="black" fill-opacity="0.980392"/>
</g>
</g>
<defs>
<clipPath id="clip0_227_666">
<rect width="150" height="150" fill="white"/>
</clipPath>
<clipPath id="clip1_227_666">
<rect width="112.5" height="112.5" fill="white" transform="translate(36 65.1171) rotate(-15)"/>
</clipPath>
</defs>
</svg>
