<svg width="150" height="150" viewBox="0 0 150 150" fill="none" xmlns="http://www.w3.org/2000/svg">
<g clip-path="url(#clip0_227_669)">
<rect width="150" height="150" fill="#FFCC00"/>
<g clip-path="url(#clip1_227_669)">
<path d="M36 65.1171L87.1652 51.4075L91.1629 66.3798C91.7789 68.6769 92.6084 71.4722 93.118 73.7601C95.2494 73.1971 97.5527 72.5729 99.6936 72.075C98.7585 65.0674 100.624 57.9738 104.886 52.333C106.993 49.5588 109.638 47.2385 112.664 45.511C113.676 44.9404 115.292 44.2387 116.173 43.6349L121.901 42.1L122.004 42.1073C123.596 42.2092 125.512 41.8566 127.564 41.9906C134.515 42.4467 141.013 45.5996 145.673 50.7775C147.195 52.4763 148.213 53.9303 149.258 55.9457C149.541 56.4911 150.553 58.6415 150.827 58.9894L152.223 64.202L152.22 64.3078C152.167 66.0996 152.481 67.7904 152.377 69.8093C152.003 76.5726 149.069 82.9399 144.17 87.6178C142.187 89.5134 138.586 92.1065 135.943 93.0008C136.49 95.1403 137.114 97.3217 137.636 99.4533C145.082 97.6403 152.699 95.2528 160.083 93.5351L173.784 144.667L122.641 158.37C120.992 152.902 119.458 146.576 117.963 140.997L108.907 107.207L123.729 103.232C126.171 102.577 128.867 101.795 131.314 101.234C130.723 99.3749 130.073 96.599 129.583 94.6851C125.597 95.3834 120.089 94.6305 116.379 93.1181C109.232 90.2048 104.501 85.4696 101.441 78.4976C99.2118 79.0426 97.0475 79.7223 94.8696 80.2473C96.9047 87.4658 99.0284 95.3755 100.845 102.644C96.1184 104.055 91.0701 105.222 86.2989 106.571C85.0619 106.921 79.5381 108.485 78.5339 108.552C78.949 110.704 79.6808 112.918 80.1753 115.09C83.1683 114.797 85.6346 114.774 88.6199 115.326C95.5393 116.602 101.669 120.574 105.661 126.368C109.634 132.153 111.143 139.282 109.853 146.181C108.517 153.229 104.419 159.452 98.4702 163.462C96.9116 164.517 94.9282 165.247 93.721 166.084L93.6409 166.141L87.8664 167.688C87.178 167.6 85.6799 167.749 84.9406 167.791C75.877 168.292 67.1163 163.723 61.9524 156.328C60.8593 154.762 60.0165 152.324 59.028 151.059L57.475 145.263C57.6322 144.402 57.3678 142.401 57.3723 141.424C57.4243 130.066 63.7442 121.357 73.8728 116.799C73.2515 114.681 72.7721 112.531 72.1157 110.401C66.9608 111.577 61.4585 113.358 56.2894 114.624C54.3408 115.102 51.5927 116.03 49.7178 116.313L36 65.1171ZM54.3684 108.143L92.7661 97.8902L86.2125 73.4382C85.0305 69.0249 83.5158 63.9222 82.5087 59.5235L55.8391 66.6574L48.2928 68.6924C47.2238 68.9826 45.0881 69.6306 44.0877 69.7553L50.3734 93.2743C51.6643 98.0869 52.9697 103.406 54.3684 108.143ZM127.256 150.265C132.59 148.963 138.118 147.402 143.438 145.977L165.706 140.002L155.438 101.685C152.713 102.536 149.44 103.305 146.63 104.056L129.76 108.575L121.167 110.888C120.15 111.164 117.955 111.858 117.047 111.951C119.306 120.937 121.931 129.931 124.246 138.908C125.183 142.54 126.449 146.652 127.256 150.265ZM131.667 87.4515C142.155 84.2905 148.105 73.2357 144.966 62.7411C141.827 52.2464 130.785 46.2736 120.284 49.3901C109.751 52.5161 103.757 63.5985 106.905 74.1247C110.053 84.6508 121.148 90.6219 131.667 87.4515ZM90.2958 160.144C100.673 156.571 106.186 145.259 102.606 134.884C99.0252 124.509 87.7086 119.004 77.3364 122.593C66.9751 126.177 61.4779 137.479 65.0547 147.843C68.6314 158.207 79.9292 163.713 90.2958 160.144Z" fill="black"/>
</g>
</g>
<defs>
<clipPath id="clip0_227_669">
<rect width="150" height="150" fill="white"/>
</clipPath>
<clipPath id="clip1_227_669">
<rect width="112.5" height="112.5" fill="white" transform="translate(36 65.1171) rotate(-15)"/>
</clipPath>
</defs>
</svg>
