<svg width="512" height="512" viewBox="0 0 512 512" fill="none" xmlns="http://www.w3.org/2000/svg">
<g clip-path="url(#clip0_230_5289)">
<path d="M0 0H241.073L241.01 70.528C241.013 81.3515 241.367 94.617 240.912 105.275C250.945 105.311 261.805 105.28 271.803 105.613C275.947 73.7055 292.504 44.7192 317.883 24.9421C330.413 15.2287 344.776 8.1444 360.11 4.11365C365.232 2.79778 373.162 1.61653 377.747 0H404.737L405.18 0.153141C412.059 2.47647 420.896 3.18308 429.758 6.189C459.778 16.3815 484.63 37.8963 499.016 66.1475C503.705 75.408 506.47 82.9995 508.69 93.0905C509.29 95.821 511.205 106.466 512 108.318V132.878L511.86 133.339C509.515 141.153 508.905 148.956 506.07 157.709C496.46 187 476.061 211.535 449.016 226.329C438.065 232.326 419.182 239.484 406.51 240.303C406.393 250.352 406.565 260.675 406.35 270.661C441.217 271.461 477.514 269.939 512 271.086V512H271.034C270.224 486.017 270.932 456.404 270.931 430.114L270.922 270.905L340.766 270.892C352.269 270.889 365.043 270.626 376.46 271.043C376.054 262.174 376.464 249.205 376.567 240.215C358.22 238.589 334.895 228.792 320.367 217.773C292.381 196.548 277.158 170.158 271.92 135.905C261.479 135.675 251.163 136.114 240.971 135.856C241.414 169.986 241.433 207.259 240.857 241.352C218.417 241.985 194.849 241.172 172.286 241.482C166.436 241.562 140.312 241.929 135.818 241.043C135.108 250.991 135.717 261.587 135.333 271.717C148.835 273.955 159.705 276.757 172.178 282.701C201.092 296.463 223.358 321.142 234.085 351.314C244.737 381.427 242.97 414.541 229.174 443.35C214.999 472.763 189.654 495.289 158.78 505.91C150.685 508.715 141.107 509.585 134.813 511.845L134.394 512H107.187C104.265 510.8 97.5035 509.69 94.204 509.005C53.77 500.53 20.6391 470.127 6.64955 431.534C3.68823 423.365 2.85475 411.655 0 404.927V377.619C1.70507 374.019 2.9002 364.911 4.07017 360.623C17.6772 310.755 55.719 279.912 105.613 271.808C105.377 261.763 105.802 251.747 105.426 241.609C81.3785 240.71 55.0935 242.055 30.8779 241.535C21.7491 241.338 8.5752 242.18 0 241.215V0ZM30.0678 210.777L210.942 210.937L210.934 95.7255C210.937 74.9325 210.288 50.7165 211.042 30.1934L85.399 30.1395L49.8282 30.1971C44.7872 30.2133 34.6351 30.5465 30.0905 29.9161L30.0193 140.71C30.0251 163.387 29.4981 188.308 30.0678 210.777ZM300.866 481.805C325.85 482.367 351.992 482.013 377.056 482.014L481.986 481.978L481.98 301.44C468.996 301.973 453.704 301.498 440.465 301.489L360.984 301.483L320.483 301.529C315.688 301.546 305.219 302.011 301.119 301.348C300.464 343.511 301.409 386.145 301.015 428.332C300.856 445.405 301.576 464.97 300.866 481.805ZM394.25 210.87C444.079 209.329 483.254 167.74 481.818 117.908C480.381 68.0755 438.875 28.8117 389.04 30.1427C339.056 31.4778 299.649 73.1355 301.09 123.117C302.531 173.098 344.272 212.417 394.25 210.87ZM126.753 481.697C176.582 478.215 214.142 434.979 210.622 385.152C207.103 335.326 163.839 297.798 114.015 301.355C64.244 304.908 26.7656 348.117 30.2813 397.891C33.7969 447.664 76.977 485.175 126.753 481.697Z" fill="black"/>
</g>
<defs>
<clipPath id="clip0_230_5289">
<rect width="512" height="512" fill="white"/>
</clipPath>
</defs>
</svg>
