<svg width="512" height="512" viewBox="0 0 512 512" fill="none" xmlns="http://www.w3.org/2000/svg">
<path d="M365.505 0H395.535L395.5 219.161V284.575L395.505 305.74C395.507 309.56 395.63 314.142 395.44 317.87C413.237 318.445 431.69 317.63 449.542 318.057C449.255 330.462 449.505 343.847 449.502 356.31V408.065L412.765 408.087C408.355 408.09 399.432 408.398 395.485 408.098L395.502 470.75C395.502 484.403 395.655 498.368 395.472 512H365.515C365.33 505.843 365.452 499.18 365.452 492.983L365.457 458.888V427.158C365.45 420.958 365.315 414.285 365.51 408.138C347.775 408.32 329.152 408.138 311.395 408.04C311.597 405.498 311.462 400.705 311.462 398.055L311.46 378.908L311.457 318.135C316.42 317.725 325.607 317.985 330.872 317.985L365.475 318.035C365.25 315.895 365.442 310.125 365.445 307.64L365.465 285.795L365.467 214.729L365.465 73.245C365.462 49.1028 365.132 24.0792 365.505 0ZM341.48 348.1C341.522 357.04 341.867 369.175 341.435 377.87C350.577 378.157 360.32 377.995 369.497 377.992H415.562L419.475 378.03C419.317 375.267 419.347 371.985 419.437 369.188C419.665 362.278 419.15 355.01 419.512 348.14C395.69 347.918 369.81 347.78 346.012 348.125C344.332 348.18 343.152 348.21 341.48 348.1Z" fill="black"/>
<path d="M116.509 0H146.539L146.507 218.658L146.509 284.272L146.512 305.628C146.514 309.508 146.637 314.085 146.445 317.872C164.254 318.43 182.736 317.582 200.55 318.057C200.292 329.185 200.512 341.222 200.511 352.402L200.51 408.065L163.756 408.085C159.393 408.09 150.388 408.397 146.492 408.09L146.509 471.688C146.509 485.035 146.654 498.672 146.479 512H116.518C116.048 494.855 116.461 475.555 116.464 458.242L116.462 426.9C116.454 420.78 116.33 414.22 116.514 408.14L62.3994 408.04C62.6107 405.428 62.4609 401.06 62.4607 398.263L62.4599 378.995L62.4627 318.138C67.2454 317.728 76.3097 317.985 81.4267 317.985L116.48 318.03C116.259 315.932 116.445 310.038 116.449 307.6L116.47 286.103L116.472 215.467L116.47 73.811C116.468 49.4637 116.149 24.2907 116.509 0ZM92.4412 377.872C102.138 378.17 111.885 377.892 121.588 377.992C137.848 378.162 154.207 377.755 170.457 378.025C170.266 369.782 170.607 361.445 170.455 353.193C170.425 351.538 170.432 349.795 170.515 348.142L116.548 348.082L100.943 348.105C98.6499 348.115 95.1187 348.272 92.9314 348.115C92.8074 348.287 92.6834 348.458 92.5594 348.63C92.1832 357.053 92.8464 369.94 92.4412 377.872Z" fill="black"/>
<path d="M240.505 0H270.538L270.51 67.23L270.515 87.7602C270.515 91.1807 270.63 95.5325 270.44 98.873C288.248 99.43 306.728 98.5895 324.545 99.0575C324.283 110.482 324.508 122.819 324.508 134.29V189.065L287.755 189.086C283.448 189.09 274.31 189.399 270.488 189.09L270.505 386.953V468.995C270.505 483.232 270.675 497.792 270.475 512H240.516C240.328 505.48 240.456 498.36 240.457 491.802L240.463 455.46L240.466 346.81L240.466 242.546L240.461 208.981C240.453 202.53 240.313 195.54 240.514 189.139L186.396 189.038C186.599 186.538 186.465 181.79 186.464 179.187L186.463 160.046L186.46 99.1385C191.288 98.7227 200.624 98.9858 205.773 98.9853L240.476 99.0335C240.248 96.7963 240.439 90.5357 240.448 87.9705L240.466 66.2195C240.468 44.3597 240.184 21.8021 240.505 0ZM216.484 129.098C216.524 138.118 216.861 150.075 216.438 158.871C225.532 159.157 235.219 158.996 244.348 158.993H290.563L294.48 159.03C294.325 156.374 294.35 153.231 294.438 150.542C294.673 143.508 294.155 136.135 294.513 129.141L251.075 129.082C241.19 129.082 230.844 128.923 221.019 129.124C219.343 129.18 218.153 129.209 216.484 129.098Z" fill="black"/>
</svg>
