<svg width="512" height="512" viewBox="0 0 512 512" fill="none" xmlns="http://www.w3.org/2000/svg">
<path d="M240.147 0H271.361L271.822 0.155714C275.93 1.50399 282.409 1.93133 286.832 2.83597C292.849 4.06633 298.654 5.63565 304.502 7.49775C345.222 20.4842 379.152 49.0528 398.883 86.967C415.921 119.652 417.764 148.434 416.981 184.351C416.718 196.42 417.328 209.45 416.898 221.501C430.827 224.983 444.571 229.17 458.075 234.046C459.146 244.388 458.834 254.432 458.773 264.801L458.699 300.146L458.726 428.938L458.671 465.441C458.653 468.485 458.105 476.749 458.352 478.961C418.711 493.046 377.978 501.45 336.346 507.11C325.646 508.56 314.697 509.01 303.951 510.075C300.364 510.43 291.245 511 288.263 512H224.718C220.921 510.84 203.852 509.73 198.615 509.285C184.62 508.095 172.373 506.545 158.484 504.425C132.735 500.5 107.245 495.029 82.1511 488.048C70.9371 484.871 60.8051 481.109 50.0126 477.915L50.0356 316.628L50.0251 265.077C50.0206 255.633 49.7451 244.297 50.2301 235.003C54.7481 233.841 61.1346 231.4 65.7496 229.901C75.3196 226.744 85.0311 224.031 94.8526 221.773C95.6596 171.915 89.3356 132.162 113.358 86.4285C132.66 49.3943 165.604 21.3142 205.228 8.12145C214.649 5.07645 223.983 3.01029 233.751 1.46033C235.762 1.14119 237.781 0.767795 239.721 0.1413L240.147 0ZM80.3146 256.963C79.7691 264.455 80.0206 274.07 80.0256 281.709L80.0331 321.951L80.0146 455.918C144.348 475.187 211.403 483.791 278.517 481.387C330.527 479.321 382.076 470.77 431.967 455.931L432.013 321.635L432.016 279.151C432.017 273.16 432.347 262.549 431.839 257C383.954 242.845 334.563 234.408 284.696 231.863C268.514 231.127 248.984 231.392 232.735 231.745C181.994 233.404 128.996 243.118 80.3146 256.963ZM249.806 100.669C232.073 102.886 219.271 109.491 207.827 123.678C189.316 146.629 196.507 175.925 194.874 203.796C218.062 201.669 241.342 200.717 264.625 200.943C278.849 201.101 302.61 202.193 316.971 204.079C316.023 172.185 323.211 140.714 297.965 116.893C286.239 105.762 270.549 99.779 254.388 100.277C252.855 100.327 251.326 100.457 249.806 100.669ZM164.896 207.857L164.949 177.075C164.946 169.987 164.746 162.82 165.212 155.755C168.493 106.06 208.096 69.8715 257.408 70.0405C258.698 70.042 259.987 70.0665 261.276 70.114C287.966 72.7915 308.919 82.4445 326.312 103.354C345.433 126.34 347.844 150.301 346.991 178.852C346.718 187.982 347.269 198.272 346.898 207.519C360.317 209.565 373.688 211.908 387.004 214.547C385.706 172.973 392.426 140.135 372.418 101.269C365.467 87.756 356.216 75.5555 345.081 65.214C320.023 41.8237 286.755 29.2515 252.49 30.2224L252.232 30.2311C215.279 32.1926 183.603 45.7849 158.546 73.5635C149.526 83.574 142.122 94.93 136.602 107.221C120.055 144.078 126.287 175.479 124.919 214.24C137.842 212.683 151.98 208.809 164.896 207.857Z" fill="black"/>
<path d="M252.019 284.201C257.441 283.781 262.894 284.295 268.142 285.721C279.665 288.976 289.425 296.674 295.274 307.122C301.04 317.492 302.472 329.722 299.255 341.143C294.617 357.571 285.027 364.19 271.231 371.97C270.442 384.141 270.967 401.549 271.005 414.169L261.077 414.161L240.839 414.1C241.468 404.791 241.048 381.013 240.735 371.604C236.534 369.758 232.36 367.518 228.702 364.741C219.122 357.535 212.877 346.749 211.398 334.852C209.887 322.983 213.11 310.995 220.37 301.483C228.749 290.583 238.708 285.937 252.019 284.201ZM259.753 343.374C264.928 342.012 268.971 337.974 270.338 332.8C271.706 327.627 270.187 322.118 266.361 318.377C262.535 314.636 256.994 313.24 251.852 314.722C244.031 316.978 239.479 325.105 241.643 332.953C243.807 340.8 251.881 345.447 259.753 343.374Z" fill="black"/>
<path d="M458.075 234.047C459.737 234.666 460.654 234.686 461.641 235.896C462.223 241.41 462.035 249.421 462.036 255.107L462.037 285.614L462.027 384.619L462.023 449.445C462.024 454.128 462.251 474.381 461.531 477.398C460.436 477.98 459.509 478.487 458.352 478.961C458.104 476.749 458.653 468.485 458.671 465.442L458.725 428.938L458.698 300.146L458.772 264.801C458.833 254.432 459.146 244.389 458.075 234.047Z" fill="black" fill-opacity="0.980392"/>
</svg>
